<svg width="349" height="200" viewBox="0 0 349 200" fill="none" xmlns="http://www.w3.org/2000/svg">
<rect width="349" height="200" fill="#B04DFE"/>
<path d="M78.8169 134.237C78.8169 134.237 82.0044 139.107 80.866 140.426C79.7276 141.745 89.4066 141.778 89.4066 141.778C89.4066 141.778 87.9527 134.692 88.3806 133.062L78.8169 134.237Z" fill="#FFB8B8"/>
<path d="M83.9107 136.002C89.4308 136.002 93.9057 131.69 93.9057 126.372C93.9057 121.053 89.4308 116.742 83.9107 116.742C78.3906 116.742 73.9157 121.053 73.9157 126.372C73.9157 131.69 78.3906 136.002 83.9107 136.002Z" fill="#2F2E41"/>
<path d="M107.419 178.569V184.278L113.344 183.088L112.851 179.045L107.419 178.569Z" fill="#FFB8B8"/>
<path d="M128.404 179.521L144.946 182.137L140.749 188.084C140.749 188.084 129.145 184.278 126.182 184.278C123.22 184.278 128.404 179.521 128.404 179.521Z" fill="#FFB8B8"/>
<path d="M90.8779 168.103C90.8779 168.103 103.222 154.306 107.172 155.02C111.122 155.734 112.851 160.015 112.851 160.015L115.073 181.185C115.073 181.185 107.172 181.899 107.172 181.185C107.172 180.472 105.691 165.248 105.691 165.248C105.691 165.248 94.0874 189.986 87.9152 173.574L90.8779 168.103Z" fill="#D0CDE1"/>
<path d="M70.8801 177.38C70.8801 177.38 71.127 189.841 78.5335 190.555C85.9401 191.269 94.0873 185.229 94.0873 185.229L107.419 179.076C107.419 179.076 123.22 187.132 127.911 184.991C127.911 184.991 132.848 179.996 129.639 178.569C126.429 177.142 129.392 178.569 129.392 178.569L110.382 169.054C110.382 169.054 106.678 168.103 100.259 170.719C93.8404 173.336 85.1994 174.525 85.1994 174.525L70.8801 177.38Z" fill="#D0CDE1"/>
<path d="M83.2244 136.704C87.3149 136.704 90.6309 133.509 90.6309 129.568C90.6309 125.627 87.3149 122.432 83.2244 122.432C79.1338 122.432 75.8178 125.627 75.8178 129.568C75.8178 133.509 79.1338 136.704 83.2244 136.704Z" fill="#FFB8B8"/>
<path d="M93.8404 149.549L93.3466 159.539C93.3466 159.539 93.5935 172.622 91.3716 173.574C90.2482 174.054 87.9917 175.02 85.9055 176.076C84.3403 176.866 82.8713 177.703 82.0517 178.424C81.8343 178.602 81.647 178.811 81.4962 179.045C80.5086 180.71 74.0896 180.472 72.6083 179.282C71.127 178.093 72.1145 180.71 70.8801 181.185C69.6852 181.647 68.0286 177.874 69.0433 172.242C69.0754 172.054 69.1124 171.863 69.1519 171.671C70.2851 166.212 68.5051 153.136 68.7791 148.084C68.7951 147.698 68.8371 147.313 68.905 146.932C69.6457 143.127 79.0964 135.382 80.8641 138.681C83.0416 142.753 88.0435 139.033 88.9027 137.18C93.8404 136.942 95.5686 142.651 95.5686 142.651L93.8404 149.549Z" fill="#6C63FF"/>
<path d="M113.838 182.137C113.838 182.137 109.888 183.564 108.654 183.326C107.419 183.088 106.185 184.04 106.185 185.467C106.185 186.894 104.703 190.224 106.925 190.462C109.147 190.7 118.282 190.224 120.257 190.938C120.257 190.938 129.145 191.176 128.404 187.608C127.664 184.04 123.96 184.278 123.96 184.278C123.96 184.278 113.838 183.802 113.838 182.137Z" fill="#2F2E41"/>
<path d="M142.724 182.851C142.724 182.851 143.217 181.423 143.958 181.423C144.699 181.423 150.624 182.375 151.365 182.137C152.105 181.899 160.746 181.423 159.265 185.467C157.784 189.511 152.846 189.987 152.846 189.987C152.846 189.987 143.958 189.035 142.724 189.273C141.489 189.511 137.045 189.273 137.786 188.084C138.527 186.894 143.217 184.753 142.724 182.851Z" fill="#2F2E41"/>
<path d="M120.251 148.684L121.605 154.067C121.62 154.127 121.618 154.19 121.598 154.249L115.454 172.748C115.43 172.821 115.38 172.884 115.313 172.926C115.247 172.969 115.167 172.987 115.088 172.98C115.008 172.972 114.934 172.939 114.877 172.885C114.82 172.831 114.784 172.76 114.775 172.683L113.925 165.477C113.919 165.429 113.925 165.38 113.94 165.335L119.58 148.659C119.603 148.589 119.65 148.529 119.712 148.487C119.774 148.446 119.849 148.424 119.925 148.427C120.001 148.43 120.074 148.457 120.132 148.503C120.191 148.549 120.233 148.613 120.251 148.684V148.684Z" fill="#3F3D56"/>
<path d="M119.753 149.139L121.003 153.757L115.584 170.625L114.333 165.404L119.753 149.139Z" fill="white"/>
<path d="M92.4491 174.24C92.6576 174.842 114.125 174.039 114.333 173.838C114.515 173.587 114.669 173.318 114.792 173.035C114.988 172.633 115.167 172.232 115.167 172.232L114.333 165.73L93.0744 165.003C93.0744 165.003 92.5429 170.513 92.4345 173.035C92.3976 173.436 92.4025 173.84 92.4491 174.24V174.24Z" fill="#3F3D56"/>
<path opacity="0.1" d="M111.624 166.609L112.041 172.232H102.662V166.609H111.624Z" fill="black"/>
<path opacity="0.1" d="M99.5357 168.416L99.5918 168.406L99.3272 170.826H94.1166V168.416H99.5357Z" fill="black"/>
<path opacity="0.1" d="M92.4493 174.24C92.6577 174.842 114.125 174.039 114.334 173.838C114.515 173.587 114.669 173.317 114.792 173.035H92.4347C92.3978 173.436 92.4027 173.84 92.4493 174.24V174.24Z" fill="black"/>
<path d="M85.5669 118.528C87.1053 118.528 88.3524 117.327 88.3524 115.844C88.3524 114.362 87.1053 113.161 85.5669 113.161C84.0285 113.161 82.7814 114.362 82.7814 115.844C82.7814 117.327 84.0285 118.528 85.5669 118.528Z" fill="#2F2E41"/>
<path d="M84.7293 118.766C84.7293 118.766 81.8834 123.327 75.2657 125.034C68.648 126.741 75.2117 136.323 75.2117 136.323C75.2117 136.323 72.8249 132.839 76.2675 129.149C79.7101 125.459 85.2502 122.936 84.7293 118.766Z" fill="#2F2E41"/>
<path opacity="0.1" d="M85.9055 176.076C85.2957 177.187 84.5797 178.341 84.4587 178.807C84.3773 179.123 83.4737 178.94 82.0516 178.424C79.2001 177.384 74.2574 175.003 69.6456 172.622C69.4331 172.514 69.2314 172.386 69.0432 172.242C69.0753 172.054 69.1124 171.863 69.1519 171.671C70.2851 166.212 68.505 153.136 68.7791 148.084L70.8801 147.408L75.0771 151.214V167.389C75.0771 167.389 85.94 173.098 86.6807 173.574C87.0584 173.816 86.5375 174.922 85.9055 176.076Z" fill="black"/>
<path d="M95.0749 163.107L101.741 166.438C101.741 166.438 105.691 162.394 108.16 165.486C110.629 168.578 101 169.53 101 169.53C101 169.53 92.606 167.627 92.3592 165.01C92.1123 162.394 95.0749 163.107 95.0749 163.107Z" fill="#FFB8B8"/>
<path d="M83.9649 171.909L87.9151 172.86C87.9151 172.86 92.359 167.627 97.0498 169.53C101.741 171.433 91.1246 175.239 91.1246 175.239C91.1246 175.239 85.4462 178.093 83.2243 175.714C81.0023 173.336 83.9649 171.909 83.9649 171.909Z" fill="#FFB8B8"/>
<path d="M92.6059 140.51C92.8528 140.748 95.5685 142.651 95.5685 142.651C95.5685 142.651 96.3092 151.69 95.3217 153.593C94.3341 155.496 93.5935 155.496 94.3341 156.447C95.0748 157.399 96.0623 156.685 95.0748 158.35C94.0872 160.015 93.0997 159.777 93.8403 160.491C94.581 161.205 94.3341 161.442 94.3341 161.442L97.2967 163.821C97.2967 163.821 95.4791 166.61 93.1784 166.405C90.8777 166.2 88.9026 155.496 88.9026 155.496L92.6059 140.51Z" fill="#6C63FF"/>
<path d="M70.8803 146.219L68.6583 146.933C68.6583 146.933 62.7331 167.865 69.6459 171.433C76.5586 175.001 84.2121 178.569 84.459 177.618C84.7059 176.666 87.4216 172.86 86.6809 172.385C85.9403 171.909 75.0773 166.2 75.0773 166.2V150.025L70.8803 146.219Z" fill="#6C63FF"/>
<path opacity="0.1" d="M74.2128 154.901L73.7193 166.319L86.8041 172.265L74.7067 166.319L74.2128 154.901Z" fill="black"/>
<path d="M264.63 64.221V82.89C264.63 83.0625 264.558 83.2278 264.432 83.3497C264.305 83.4717 264.134 83.5404 263.955 83.5409H263.474V180.794C263.474 183.485 262.364 186.066 260.389 187.969C258.414 189.872 255.735 190.941 252.942 190.941H189.87C188.487 190.941 187.118 190.679 185.84 190.169C184.563 189.659 183.402 188.911 182.424 187.969C181.446 187.027 180.671 185.908 180.142 184.677C179.613 183.446 179.341 182.126 179.341 180.794V86.9518H178.993C178.866 86.952 178.745 86.9039 178.656 86.8181C178.566 86.7323 178.515 86.6158 178.515 86.4941V75.8692C178.515 75.8088 178.527 75.7489 178.551 75.693C178.575 75.6371 178.61 75.5864 178.655 75.5436C178.699 75.5008 178.752 75.4669 178.81 75.4438C178.868 75.4206 178.93 75.4087 178.993 75.4087H179.341V71.4067H178.99C178.857 71.4062 178.73 71.355 178.637 71.2644C178.543 71.1738 178.491 71.0512 178.491 70.9234V60.4435C178.492 60.3162 178.544 60.1942 178.638 60.1042C178.731 60.0141 178.858 59.9634 178.99 59.9631H179.341V54.5H178.984C178.926 54.5001 178.868 54.4891 178.815 54.4677C178.761 54.4463 178.712 54.4149 178.671 54.3753C178.63 54.3357 178.597 54.2886 178.575 54.2369C178.553 54.1851 178.541 54.1296 178.541 54.0736V48.3547C178.541 48.2413 178.588 48.1324 178.671 48.0519C178.754 47.9714 178.866 47.926 178.984 47.9255H179.341V36.3455C179.341 33.655 180.45 31.0748 182.425 29.1723C184.4 27.2699 187.078 26.201 189.87 26.2009H252.942C255.734 26.2009 258.413 27.2696 260.388 29.172C262.363 31.0744 263.473 33.6547 263.474 36.3455V63.5701H263.954C264.134 63.5706 264.305 63.6393 264.432 63.7613C264.558 63.8832 264.63 64.0485 264.63 64.221V64.221Z" fill="#3F3D56"/>
<path d="M224.445 31.4043H214.196C213.782 31.4043 213.446 31.7278 213.446 32.1268V32.9803C213.446 33.3793 213.782 33.7028 214.196 33.7028H224.445C224.859 33.7028 225.195 33.3793 225.195 32.9803V32.1268C225.195 31.7278 224.859 31.4043 224.445 31.4043Z" fill="#E6E8EC"/>
<path d="M228.324 33.8574C229.071 33.8574 229.677 33.2737 229.677 32.5537C229.677 31.8337 229.071 31.25 228.324 31.25C227.577 31.25 226.971 31.8337 226.971 32.5537C226.971 33.2737 227.577 33.8574 228.324 33.8574Z" fill="#E6E8EC"/>
<path d="M258.431 38.3521V181.635C258.43 183.342 257.725 184.979 256.472 186.186C255.219 187.393 253.52 188.071 251.749 188.071H191.373C190.496 188.072 189.626 187.907 188.815 187.584C188.004 187.261 187.267 186.787 186.646 186.189C186.025 185.591 185.533 184.881 185.198 184.1C184.862 183.319 184.69 182.481 184.691 181.635V38.3521C184.691 37.5067 184.864 36.6695 185.2 35.8883C185.536 35.1072 186.028 34.3975 186.648 33.7997C187.269 33.2018 188.006 32.7276 188.816 32.4041C189.627 32.0805 190.496 31.914 191.373 31.9141H200.41V33.0311C200.41 34.4371 200.989 35.7854 202.021 36.7796C203.053 37.7737 204.453 38.3322 205.912 38.3322H236.617C238.076 38.3322 239.476 37.7737 240.508 36.7796C241.54 35.7854 242.119 34.4371 242.119 33.0311V31.9141H251.749C252.626 31.9138 253.495 32.0801 254.306 32.4036C255.117 32.727 255.854 33.2012 256.474 33.7991C257.095 34.397 257.587 35.1068 257.923 35.8881C258.258 36.6693 258.431 37.5066 258.431 38.3521V38.3521Z" fill="white"/>
<path d="M252.366 126.242H191.002V133.916H252.366V126.242Z" fill="#E6E6E6"/>
<path d="M252.366 139.885H191.002V147.56H252.366V139.885Z" fill="#E6E6E6"/>
<path d="M252.366 153.529H191.002V161.204H252.366V153.529Z" fill="#E6E6E6"/>
<path d="M245.58 57.74C248.839 57.74 251.481 55.1948 251.481 52.0552C251.481 48.9155 248.839 46.3704 245.58 46.3704C242.322 46.3704 239.68 48.9155 239.68 52.0552C239.68 55.1948 242.322 57.74 245.58 57.74Z" fill="#6C63FF"/>
<path d="M252.242 71.0994H190.879V110.325H252.242V71.0994Z" fill="#E6E6E6"/>
<path d="M215.314 93.1538C217.106 99.5351 223.243 103.487 223.243 103.487C223.243 103.487 226.475 97.0932 224.683 90.7119C222.891 84.3307 216.754 80.3787 216.754 80.3787C216.754 80.3787 213.522 86.7726 215.314 93.1538Z" fill="#3F3D56"/>
<path d="M217.947 91.7825C222.863 96.3937 223.463 103.482 223.463 103.482C223.463 103.482 216.093 103.094 211.177 98.4832C206.26 93.8721 205.66 86.7837 205.66 86.7837C205.66 86.7837 213.03 87.1714 217.947 91.7825Z" fill="#6C63FF"/>
<path d="M231.613 93.1538C229.822 99.5351 223.685 103.487 223.685 103.487C223.685 103.487 220.453 97.0932 222.244 90.7119C224.036 84.3307 230.173 80.3787 230.173 80.3787C230.173 80.3787 233.405 86.7726 231.613 93.1538Z" fill="#3F3D56"/>
<path d="M228.981 91.7825C224.064 96.3937 223.464 103.482 223.464 103.482C223.464 103.482 230.834 103.094 235.751 98.4832C240.667 93.8721 241.268 86.7837 241.268 86.7837C241.268 86.7837 233.897 87.1714 228.981 91.7825Z" fill="#6C63FF"/>
<path d="M349 199.127H0V200H349V199.127Z" fill="#3F3D56"/>
<path d="M199.172 0H138.165V11.3537H199.172V0Z" fill="#B04DFE"/>
</svg>
