<svg width="112" height="67" viewBox="0 0 112 67" fill="none" xmlns="http://www.w3.org/2000/svg">
<path d="M31.5626 24.3331C31.5626 25.7119 31.7116 26.8298 31.9724 27.6496C32.2704 28.4694 32.6429 29.3637 33.1644 30.3326C33.3506 30.6307 33.4251 30.9288 33.4251 31.1897C33.4251 31.5623 33.2016 31.9349 32.7174 32.3076L30.3706 33.8726C30.0354 34.0962 29.7001 34.208 29.4021 34.208C29.0296 34.208 28.6571 34.0217 28.2846 33.6863C27.7631 33.1274 27.3161 32.5311 26.9436 31.9349C26.5711 31.3014 26.1986 30.5934 25.7889 29.7364C22.8834 33.1646 19.2329 34.8787 14.8374 34.8787C11.7084 34.8787 9.21261 33.9844 7.38736 32.1958C5.56211 30.4071 4.63086 28.0222 4.63086 25.0412C4.63086 21.8737 5.74836 19.3026 8.02061 17.3648C10.2929 15.4271 13.3101 14.4583 17.1469 14.4583C18.4134 14.4583 19.7171 14.5701 21.0954 14.7564C22.4736 14.9427 23.8891 15.2408 25.3791 15.5762V12.856C25.3791 10.0239 24.7831 8.04894 23.6284 6.89377C22.4364 5.7386 20.4249 5.17964 17.5566 5.17964C16.2529 5.17964 14.9119 5.3287 13.5336 5.66407C12.1554 5.99944 10.8144 6.40934 9.51061 6.93103C8.91461 7.19188 8.46761 7.34093 8.20686 7.41546C7.94611 7.48999 7.75986 7.52725 7.61086 7.52725C7.08936 7.52725 6.82861 7.15462 6.82861 6.37208V4.54616C6.82861 3.94994 6.90311 3.50278 7.08936 3.24194C7.27561 2.98109 7.61086 2.72024 8.13236 2.4594C9.43611 1.78865 11.0006 1.2297 12.8259 0.782536C14.6511 0.298109 16.5881 0.0745272 18.6369 0.0745272C23.0696 0.0745272 26.3104 1.08064 28.3964 3.09288C30.4451 5.10512 31.4881 8.16073 31.4881 12.2597V24.3331H31.5626ZM16.4391 29.9972C17.6684 29.9972 18.9349 29.7736 20.2759 29.3265C21.6169 28.8793 22.8089 28.0595 23.8146 26.9416C24.4106 26.2336 24.8576 25.4511 25.0811 24.5567C25.3046 23.6624 25.4536 22.5818 25.4536 21.3148V19.7497C24.3734 19.4889 23.2186 19.2653 22.0266 19.1162C20.8346 18.9672 19.6799 18.8927 18.5251 18.8927C16.0294 18.8927 14.2041 19.3771 12.9749 20.3832C11.7456 21.3893 11.1496 22.8053 11.1496 24.6685C11.1496 26.4199 11.5966 27.7241 12.5279 28.6185C13.4219 29.5501 14.7256 29.9972 16.4391 29.9972ZM46.3509 34.0217C45.6804 34.0217 45.2334 33.9099 44.9354 33.6491C44.6374 33.4255 44.3766 32.9038 44.1531 32.1958L35.3994 3.39099C35.1759 2.64572 35.0641 2.16129 35.0641 1.90044C35.0641 1.30423 35.3621 0.968854 35.9581 0.968854H39.6086C40.3164 0.968854 40.8006 1.08065 41.0614 1.34149C41.3594 1.56507 41.5829 2.08676 41.8064 2.79477L48.0644 27.4633L53.8754 2.79477C54.0616 2.0495 54.2851 1.56507 54.5831 1.34149C54.8811 1.11791 55.4026 0.968854 56.0731 0.968854H59.0531C59.7609 0.968854 60.2451 1.08065 60.5431 1.34149C60.8411 1.56507 61.1019 2.08676 61.2509 2.79477L67.1364 27.7614L73.5806 2.79477C73.8041 2.0495 74.0649 1.56507 74.3256 1.34149C74.6236 1.11791 75.1079 0.968854 75.7784 0.968854H79.2426C79.8386 0.968854 80.1739 1.26696 80.1739 1.90044C80.1739 2.08676 80.1367 2.27308 80.0994 2.49666C80.0621 2.72024 79.9876 3.01835 79.8386 3.42825L70.8614 32.233C70.6379 32.9783 70.3771 33.4627 70.0791 33.6863C69.7811 33.9099 69.2969 34.059 68.6636 34.059H65.4601C64.7524 34.059 64.2681 33.9472 63.9701 33.6863C63.6721 33.4255 63.4114 32.941 63.2624 32.1958L57.4886 8.16073L51.7521 32.1585C51.5659 32.9038 51.3424 33.3882 51.0444 33.6491C50.7464 33.9099 50.2249 34.0217 49.5544 34.0217H46.3509ZM94.2172 35.0278C92.2802 35.0278 90.3432 34.8042 88.4807 34.3571C86.6181 33.9099 85.1654 33.4255 84.1969 32.8665C83.6009 32.5311 83.1912 32.1585 83.0422 31.8231C82.8932 31.4878 82.8186 31.1151 82.8186 30.7798V28.8793C82.8186 28.0968 83.1167 27.7241 83.6754 27.7241C83.8989 27.7241 84.1224 27.7614 84.3459 27.8359C84.5694 27.9105 84.9047 28.0595 85.2772 28.2086C86.5437 28.7675 87.9219 29.2147 89.3747 29.5128C90.8647 29.8109 92.3174 29.96 93.8074 29.96C96.1542 29.96 97.9794 29.5501 99.2459 28.7303C100.512 27.9105 101.183 26.718 101.183 25.1902C101.183 24.1468 100.848 23.2898 100.177 22.5818C99.5067 21.8737 98.2402 21.2403 96.4149 20.644L91.0137 18.9672C88.2944 18.1101 86.2829 16.8432 85.0536 15.1663C83.8244 13.5267 83.1912 11.7008 83.1912 9.76307C83.1912 8.198 83.5264 6.81924 84.1969 5.62681C84.8674 4.43437 85.7614 3.39099 86.8789 2.57119C87.9964 1.71413 89.2629 1.08065 90.7529 0.633482C92.2429 0.186318 93.8074 0 95.4464 0C96.2659 0 97.1227 0.0372636 97.9422 0.149054C98.7989 0.260845 99.5812 0.4099 100.363 0.558954C101.108 0.745272 101.816 0.931591 102.487 1.15517C103.157 1.37875 103.679 1.60234 104.051 1.82592C104.573 2.12403 104.945 2.42214 105.169 2.75751C105.392 3.05562 105.504 3.46552 105.504 3.98721V5.7386C105.504 6.52113 105.206 6.93103 104.647 6.93103C104.349 6.93103 103.865 6.78198 103.232 6.48387C101.108 5.51502 98.7244 5.03059 96.0797 5.03059C93.9564 5.03059 92.2802 5.36596 91.1254 6.07397C89.9707 6.78198 89.3747 7.86262 89.3747 9.39043C89.3747 10.4338 89.7472 11.3281 90.4922 12.0362C91.2372 12.7442 92.6154 13.4522 94.5897 14.0857L99.8792 15.7625C102.561 16.6196 104.498 17.812 105.653 19.3398C106.808 20.8676 107.366 22.619 107.366 24.5567C107.366 26.1591 107.031 27.6123 106.398 28.8793C105.727 30.1463 104.833 31.2642 103.679 32.1585C102.524 33.0901 101.146 33.7608 99.5439 34.2453C97.8677 34.767 96.1169 35.0278 94.2172 35.0278Z" fill="#252F3E"/>
<path fill-rule="evenodd" clip-rule="evenodd" d="M101.257 53.1379C89.0022 62.193 71.1967 67 55.887 67C34.4309 67 15.0982 59.0628 0.496177 45.8715C-0.658574 44.8281 0.384427 43.4121 1.76268 44.2319C17.5567 53.3988 37.0384 58.951 57.1907 58.951C70.787 58.951 85.7242 56.119 99.4695 50.3059C101.518 49.3743 103.269 51.6474 101.257 53.1379Z" fill="#FF9900"/>
<path fill-rule="evenodd" clip-rule="evenodd" d="M106.361 47.3248C104.796 45.3126 96.0053 46.356 92.0195 46.8404C90.8275 46.9894 90.6413 45.9461 91.7215 45.1635C98.7245 40.2447 110.235 41.6608 111.576 43.3004C112.917 44.9772 111.203 56.4917 104.647 62.0067C103.642 62.8637 102.673 62.4166 103.12 61.2987C104.61 57.6096 107.925 49.2998 106.361 47.3248Z" fill="#FF9900"/>
</svg>
