<svg width="116" height="116" viewBox="0 0 116 116" fill="none" xmlns="http://www.w3.org/2000/svg">
<path d="M116 99.8889C116 108.789 108.789 116 99.8889 116H16.1111C7.21456 116 0 108.789 0 99.8889V16.1111C0 7.21133 7.21456 0 16.1111 0H99.8889C108.789 0 116 7.21133 116 16.1111V99.8889Z" fill="#673AB7"/>
<path d="M87.0967 63.1555C85.0022 60.2555 81.9733 58.2577 78.0744 57.1944C78.0744 57.1944 81.3611 56.0021 84.3255 51.5555C86.0978 48.7199 87 45.3044 87 41.3088C87 34.381 84.4867 29.0644 79.46 25.4233C74.4333 21.7821 68.7622 19.3333 59.1278 19.3333H29V96.6666H62.6078C71.7267 96.6021 78.59 94.6366 83.2622 90.8666C87.9022 87.0321 90.2222 81.361 90.2222 73.7888C90.2222 69.5999 89.1911 66.0555 87.0967 63.1555ZM48.3333 32.2221C48.3333 32.2221 61.77 32.2221 62.0278 32.2221C66.9256 32.2221 70.8889 36.1855 70.8889 41.0833C70.8889 45.981 66.9256 49.9444 62.0278 49.9444C61.77 49.9444 48.3333 49.9444 48.3333 49.9444V32.2221ZM64.4444 83.7777H48.3333V64.4444H64.4444C69.7933 64.4444 74.1111 68.7621 74.1111 74.111C74.1111 79.4599 69.7933 83.7777 64.4444 83.7777Z" fill="white"/>
</svg>
