<svg width="116" height="123" viewBox="0 0 116 123" fill="none" xmlns="http://www.w3.org/2000/svg">
<path d="M116 0L106.886 105.69C93.38 116.169 76.4198 122.406 58 122.406C39.5802 122.406 22.62 116.169 9.11388 105.69L0 0H116Z" fill="#006BC0"/>
<path d="M57.9991 9.93652V120.315L96.1286 109.551L104.634 9.93652H57.9991Z" fill="#0096DC"/>
<path d="M91.6901 53.1105H64.19L92.9259 38.4861L94.1677 23.7847H21.8304L23.0962 38.7733H52.1339L24.2728 52.7042L25.5691 68.059H75.2685L73.6395 86.3463L57.9991 90.5823L41.7069 86.0204L41.2996 74.6161H26.1229L28.0214 97.0992L57.9991 105.571L87.9764 97.0992L91.691 53.108L91.6901 53.1105Z" fill="white"/>
</svg>
