<svg width="32" height="32" viewBox="0 0 32 32" fill="none" xmlns="http://www.w3.org/2000/svg">
<path d="M32 16C32 7.16344 24.8366 0 16 0C11.8468 0 8.06314 1.58244 5.21914 4.17725C2.0122 7.10331 0.387451 11.3167 0.387451 16C0.387451 24.8366 7.16345 31.7486 16 31.7486C20.6808 31.7486 24.8922 29.99 27.818 26.786C30.4156 23.9414 32 20.1557 32 16V16Z" fill="#4BC3EF"/>
<path d="M17.0322 30.9677C8.19569 30.9677 1.03225 23.8042 1.03225 14.9677C1.03225 10.812 2.62156 7.02175 5.21912 4.17725C2.01506 7.10306 0 11.3191 0 15.9999C0 23.9579 5.80981 30.559 13.4194 31.7929H18.5807C22.2165 31.2034 25.4414 29.3886 27.8181 26.7859C24.9735 29.3835 21.1879 30.9677 17.0322 30.9677V30.9677Z" fill="#1BADDE"/>
<path d="M20.1291 10.3224H22.1936C22.4786 10.3224 22.7097 10.0912 22.7097 9.80623V6.70948C22.7097 6.42442 22.4786 6.19336 22.1936 6.19336H19.0968C15.9612 6.19336 13.4194 8.73523 13.4194 11.8708V15.9998H10.3226L9.53 19.1443L13.806 19.694L13.8942 31.1375L17.9259 31.4769L18.5807 30.8934V20.1288H21.2745C21.5113 20.1288 21.7177 19.9676 21.7752 19.7379L22.5495 16.641C22.6309 16.3153 22.3846 15.9998 22.0487 15.9998H18.5806V11.8708C18.5806 11.0156 19.2739 10.3224 20.1291 10.3224V10.3224Z" fill="white"/>
<path d="M17.0322 30.9678C16.4722 30.9678 15.9197 30.9366 15.3752 30.8784C14.8499 30.8222 14.4516 30.3771 14.4516 29.8486V20.1291C14.4516 19.5589 13.9894 19.0968 13.4194 19.0968H10.8387C10.5537 19.0968 10.3226 18.8657 10.3226 18.5807V16H9.8065C9.52144 16 9.29037 16.2311 9.29037 16.5161V19.6129C9.29037 19.8979 9.52144 20.129 9.8065 20.129H13.4194V31.7929C14.2598 31.9293 15.1211 32 16 32C16.8789 32 17.7403 31.929 18.5806 31.7926V30.8936C18.0711 30.9425 17.5546 30.9678 17.0322 30.9678V30.9678Z" fill="#E3F5FF"/>
</svg>
