<svg width="613" height="915" viewBox="0 0 613 915" fill="none" xmlns="http://www.w3.org/2000/svg">
<path d="M770.136 432.333C732.562 527.004 771.063 666.43 744.189 716.351C717.316 766.271 755.907 861.661 671.664 842.037C587.517 823.206 438.113 674.709 420.785 618.045C403.458 561.38 386.083 462.53 321.686 375.321C257.978 288.029 89.1709 228.698 36.6706 147.299C-15.8297 65.8995 48.6669 -37.6514 138.304 -66.163C227.942 -94.6747 343.41 -48.2302 431.948 -45.2205C520.487 -42.2108 582.191 -81.8425 612.112 -48.4265C641.937 -15.8037 640.171 91.4534 705.36 150.397C769.955 210.218 902.387 223.228 911.136 255.172C920.575 287.033 806.925 336.951 770.136 432.333Z" fill="#0092E3"/>
</svg>
