<svg width="521" height="546" viewBox="0 0 521 546" fill="none" xmlns="http://www.w3.org/2000/svg">
<path d="M363.412 66.605L362.414 67.6543L430.904 132.91L431.902 131.86L363.412 66.605Z" fill="#E6E6E6"/>
<path d="M432.012 124.784L430.566 124.872L431.002 132.001L423.864 131.915L423.849 133.364L432.542 133.468L432.012 124.784Z" fill="#E6E6E6"/>
<path d="M370.469 66.1492L370.453 67.5982L363.316 67.5124L363.753 74.6416L362.305 74.7292L361.777 66.0452L370.469 66.1492Z" fill="#E6E6E6"/>
<path d="M397.158 107.725C401.555 107.725 405.119 104.158 405.119 99.7574C405.119 95.3573 401.555 91.7903 397.158 91.7903C392.761 91.7903 389.197 95.3573 389.197 99.7574C389.197 104.158 392.761 107.725 397.158 107.725Z" fill="#E6E6E6"/>
<path d="M159.035 66.6051L90.5452 131.86L91.5434 132.91L160.033 67.6543L159.035 66.6051Z" fill="#E6E6E6"/>
<path d="M89.9062 133.468L98.5994 133.364L98.5829 131.915L91.446 132.001L91.8825 124.872L90.4363 124.784L89.9062 133.468Z" fill="#E6E6E6"/>
<path d="M160.671 66.0452L160.142 74.7292L158.695 74.6416L159.131 67.5124L151.994 67.5982L151.979 66.1492L160.671 66.0452Z" fill="#E6E6E6"/>
<path d="M125.289 107.725C129.686 107.725 133.251 104.158 133.251 99.7574C133.251 95.3573 129.686 91.7903 125.289 91.7903C120.893 91.7903 117.328 95.3573 117.328 99.7574C117.328 104.158 120.893 107.725 125.289 107.725Z" fill="#E6E6E6"/>
<path d="M320.571 165.137H200.429C198.702 165.135 197.046 164.448 195.825 163.226C194.604 162.004 193.917 160.347 193.915 158.619V6.51857C193.917 4.79034 194.604 3.13347 195.825 1.91142C197.046 0.689381 198.702 0.0019681 200.429 0H320.571C322.298 0.0019681 323.954 0.689381 325.175 1.91142C326.396 3.13347 327.083 4.79034 327.085 6.51857V158.619C327.083 160.347 326.396 162.004 325.175 163.226C323.954 164.448 322.298 165.135 320.571 165.137ZM200.429 1.44857C199.086 1.45008 197.798 1.98473 196.848 2.93521C195.898 3.88569 195.364 5.17438 195.363 6.51857V158.619C195.364 159.963 195.898 161.251 196.848 162.202C197.798 163.152 199.086 163.687 200.429 163.689H320.571C321.914 163.687 323.202 163.152 324.152 162.202C325.102 161.251 325.636 159.963 325.637 158.619V6.51857C325.636 5.17438 325.102 3.88569 324.152 2.93521C323.202 1.98473 321.914 1.45008 320.571 1.44857H200.429Z" fill="#3F3D56"/>
<path d="M250.506 73.1106H224.06C223.197 73.1096 222.369 72.766 221.758 72.1549C221.148 71.5439 220.804 70.7154 220.803 69.8513V38.6204C220.804 37.7562 221.148 36.9278 221.758 36.3168C222.369 35.7057 223.197 35.362 224.06 35.3611H250.506C251.369 35.362 252.197 35.7057 252.808 36.3168C253.418 36.9278 253.762 37.7562 253.763 38.6204V69.8513C253.762 70.7154 253.418 71.5439 252.808 72.1549C252.197 72.7659 251.369 73.1096 250.506 73.1106Z" fill="#6C63FF"/>
<path d="M301.892 87.5964H275.446C274.583 87.5955 273.755 87.2518 273.144 86.6407C272.534 86.0297 272.19 85.2013 272.189 84.3371V53.1062C272.19 52.2421 272.534 51.4136 273.144 50.8026C273.755 50.1916 274.583 49.8479 275.446 49.8469H301.892C302.756 49.8479 303.583 50.1916 304.194 50.8026C304.805 51.4136 305.148 52.2421 305.149 53.1062V84.3371C305.148 85.2013 304.805 86.0297 304.194 86.6407C303.583 87.2518 302.756 87.5955 301.892 87.5964Z" fill="#CCCCCC"/>
<path d="M260.638 131.778H234.193C233.329 131.777 232.501 131.433 231.891 130.822C231.28 130.211 230.937 129.383 230.936 128.519V97.2876C230.937 96.4235 231.28 95.595 231.891 94.984C232.501 94.373 233.329 94.0293 234.193 94.0283H260.638C261.502 94.0293 262.33 94.373 262.94 94.984C263.551 95.595 263.894 96.4235 263.895 97.2876V128.519C263.894 129.383 263.551 130.211 262.94 130.822C262.33 131.433 261.502 131.777 260.638 131.778Z" fill="#FF6584"/>
<path d="M514.486 321.533H394.344C392.617 321.531 390.961 320.844 389.74 319.622C388.519 318.4 387.832 316.743 387.83 315.015V162.915C387.832 161.187 388.519 159.53 389.74 158.308C390.961 157.086 392.617 156.398 394.344 156.396H514.486C516.213 156.398 517.869 157.086 519.09 158.308C520.311 159.53 520.998 161.187 521 162.915V315.015C520.998 316.743 520.311 318.4 519.09 319.622C517.869 320.844 516.213 321.531 514.486 321.533ZM394.344 157.845C393.001 157.846 391.713 158.381 390.763 159.331C389.813 160.282 389.279 161.571 389.278 162.915V315.015C389.279 316.359 389.813 317.648 390.763 318.598C391.713 319.549 393.001 320.083 394.344 320.085H514.486C515.829 320.083 517.117 319.549 518.067 318.598C519.017 317.648 519.551 316.359 519.552 315.015V162.915C519.551 161.571 519.017 160.282 518.067 159.331C517.117 158.381 515.829 157.846 514.486 157.845H394.344Z" fill="#3F3D56"/>
<path d="M475.042 190.076H433.788C433.021 190.076 432.284 189.77 431.741 189.227C431.198 188.684 430.893 187.947 430.893 187.178C430.893 186.41 431.198 185.673 431.741 185.13C432.284 184.586 433.021 184.281 433.788 184.281H475.042C475.81 184.281 476.546 184.586 477.089 185.13C477.632 185.673 477.937 186.41 477.937 187.178C477.937 187.947 477.632 188.684 477.089 189.227C476.546 189.77 475.81 190.076 475.042 190.076Z" fill="#6C63FF"/>
<path d="M495.307 217.598H413.523C413.143 217.599 412.766 217.524 412.414 217.379C412.062 217.234 411.742 217.021 411.473 216.751C411.204 216.482 410.99 216.163 410.844 215.811C410.698 215.459 410.623 215.082 410.623 214.701C410.623 214.32 410.698 213.943 410.844 213.591C410.99 213.239 411.204 212.92 411.473 212.651C411.742 212.382 412.062 212.168 412.414 212.023C412.766 211.878 413.143 211.803 413.523 211.804H495.307C495.688 211.803 496.064 211.878 496.416 212.023C496.768 212.168 497.088 212.382 497.357 212.651C497.627 212.92 497.84 213.239 497.986 213.591C498.132 213.943 498.207 214.32 498.207 214.701C498.207 215.082 498.132 215.459 497.986 215.811C497.84 216.163 497.627 216.482 497.357 216.751C497.088 217.021 496.768 217.234 496.416 217.379C496.064 217.524 495.688 217.599 495.307 217.598Z" fill="#CCCCCC"/>
<path d="M495.307 232.808H413.523C413.143 232.809 412.766 232.735 412.414 232.589C412.062 232.444 411.742 232.231 411.473 231.962C411.204 231.693 410.99 231.373 410.844 231.021C410.698 230.669 410.623 230.292 410.623 229.911C410.623 229.53 410.698 229.153 410.844 228.801C410.99 228.45 411.204 228.13 411.473 227.861C411.742 227.592 412.062 227.379 412.414 227.233C412.766 227.088 413.143 227.014 413.523 227.014H495.307C495.688 227.014 496.064 227.088 496.416 227.233C496.768 227.379 497.088 227.592 497.357 227.861C497.627 228.13 497.84 228.45 497.986 228.801C498.132 229.153 498.207 229.53 498.207 229.911C498.207 230.292 498.132 230.669 497.986 231.021C497.84 231.373 497.627 231.693 497.357 231.962C497.088 232.231 496.768 232.444 496.416 232.589C496.064 232.735 495.688 232.809 495.307 232.808Z" fill="#CCCCCC"/>
<path d="M495.307 248.018H413.523C413.143 248.019 412.766 247.945 412.414 247.799C412.062 247.654 411.742 247.441 411.473 247.172C411.204 246.903 410.99 246.583 410.844 246.231C410.698 245.879 410.623 245.502 410.623 245.121C410.623 244.74 410.698 244.363 410.844 244.011C410.99 243.66 411.204 243.34 411.473 243.071C411.742 242.802 412.062 242.589 412.414 242.443C412.766 242.298 413.143 242.223 413.523 242.224H495.307C495.688 242.223 496.064 242.298 496.416 242.443C496.768 242.589 497.088 242.802 497.357 243.071C497.627 243.34 497.84 243.66 497.986 244.011C498.132 244.363 498.207 244.74 498.207 245.121C498.207 245.502 498.132 245.879 497.986 246.231C497.84 246.583 497.627 246.903 497.357 247.172C497.088 247.441 496.768 247.654 496.416 247.799C496.064 247.945 495.688 248.019 495.307 248.018Z" fill="#CCCCCC"/>
<path d="M495.307 263.228H413.523C413.143 263.229 412.766 263.155 412.414 263.009C412.062 262.864 411.742 262.651 411.473 262.382C411.204 262.113 410.99 261.793 410.844 261.441C410.698 261.089 410.623 260.712 410.623 260.331C410.623 259.95 410.698 259.573 410.844 259.221C410.99 258.87 411.204 258.55 411.473 258.281C411.742 258.012 412.062 257.798 412.414 257.653C412.766 257.508 413.143 257.433 413.523 257.434H495.307C495.688 257.433 496.064 257.508 496.416 257.653C496.768 257.798 497.088 258.012 497.357 258.281C497.627 258.55 497.84 258.87 497.986 259.221C498.132 259.573 498.207 259.95 498.207 260.331C498.207 260.712 498.132 261.089 497.986 261.441C497.84 261.793 497.627 262.113 497.357 262.382C497.088 262.651 496.768 262.864 496.416 263.009C496.064 263.155 495.688 263.229 495.307 263.228Z" fill="#CCCCCC"/>
<path d="M495.307 278.438H413.523C413.143 278.439 412.766 278.365 412.414 278.219C412.062 278.074 411.742 277.861 411.473 277.592C411.204 277.322 410.99 277.003 410.844 276.651C410.698 276.299 410.623 275.922 410.623 275.541C410.623 275.16 410.698 274.783 410.844 274.431C410.99 274.08 411.204 273.76 411.473 273.491C411.742 273.222 412.062 273.008 412.414 272.863C412.766 272.718 413.143 272.643 413.523 272.644H495.307C495.688 272.643 496.064 272.718 496.416 272.863C496.768 273.008 497.088 273.222 497.357 273.491C497.627 273.76 497.84 274.08 497.986 274.431C498.132 274.783 498.207 275.16 498.207 275.541C498.207 275.922 498.132 276.299 497.986 276.651C497.84 277.003 497.627 277.322 497.357 277.592C497.088 277.861 496.768 278.074 496.416 278.219C496.064 278.365 495.688 278.439 495.307 278.438Z" fill="#CCCCCC"/>
<path d="M495.307 293.648H413.523C413.143 293.649 412.766 293.574 412.414 293.429C412.062 293.284 411.742 293.071 411.473 292.802C411.204 292.532 410.99 292.213 410.844 291.861C410.698 291.509 410.623 291.132 410.623 290.751C410.623 290.37 410.698 289.993 410.844 289.641C410.99 289.289 411.204 288.97 411.473 288.701C411.742 288.432 412.062 288.218 412.414 288.073C412.766 287.928 413.143 287.853 413.523 287.854H495.307C495.688 287.853 496.064 287.928 496.416 288.073C496.768 288.218 497.088 288.432 497.357 288.701C497.627 288.97 497.84 289.289 497.986 289.641C498.132 289.993 498.207 290.37 498.207 290.751C498.207 291.132 498.132 291.509 497.986 291.861C497.84 292.213 497.627 292.532 497.357 292.802C497.088 293.071 496.768 293.284 496.416 293.429C496.064 293.574 495.688 293.649 495.307 293.648Z" fill="#CCCCCC"/>
<path d="M126.656 321.533H6.51373C4.78678 321.531 3.13113 320.844 1.90999 319.622C0.688857 318.4 0.00196435 316.743 0 315.015V162.915C0.00196435 161.187 0.688857 159.53 1.90999 158.308C3.13113 157.086 4.78678 156.398 6.51373 156.396H126.656C128.383 156.398 130.039 157.086 131.26 158.308C132.481 159.53 133.168 161.187 133.17 162.915V315.015C133.168 316.743 132.481 318.4 131.26 319.622C130.039 320.844 128.383 321.531 126.656 321.533ZM6.51373 157.845C5.17055 157.846 3.88281 158.381 2.93303 159.331C1.98325 160.282 1.449 161.571 1.44749 162.915V315.015C1.449 316.359 1.98325 317.648 2.93303 318.598C3.88281 319.549 5.17055 320.083 6.51373 320.085H126.656C127.999 320.083 129.287 319.549 130.237 318.598C131.186 317.648 131.721 316.359 131.722 315.015V162.915C131.721 161.571 131.186 160.282 130.237 159.331C129.287 158.381 127.999 157.846 126.656 157.845H6.51373Z" fill="#3F3D56"/>
<path d="M107.602 192.307H71.4147C70.6469 192.307 69.9105 192.002 69.3676 191.458C68.8247 190.915 68.5197 190.178 68.5197 189.41C68.5197 188.641 68.8247 187.905 69.3676 187.361C69.9105 186.818 70.6469 186.513 71.4147 186.513H107.602C108.37 186.513 109.106 186.818 109.649 187.361C110.192 187.905 110.497 188.641 110.497 189.41C110.497 190.178 110.192 190.915 109.649 191.458C109.106 192.002 108.37 192.307 107.602 192.307Z" fill="#3F3D56"/>
<path d="M107.602 207.517H71.4147C70.6469 207.517 69.9105 207.212 69.3676 206.668C68.8247 206.125 68.5197 205.388 68.5197 204.62C68.5197 203.851 68.8247 203.115 69.3676 202.571C69.9105 202.028 70.6469 201.723 71.4147 201.723H107.602C108.37 201.723 109.106 202.028 109.649 202.571C110.192 203.115 110.497 203.851 110.497 204.62C110.497 205.388 110.192 206.125 109.649 206.668C109.106 207.212 108.37 207.517 107.602 207.517Z" fill="#3F3D56"/>
<path d="M52.8467 216.178H26.4009C25.5375 216.177 24.7096 215.833 24.099 215.222C23.4885 214.611 23.145 213.783 23.144 212.918V181.688C23.145 180.823 23.4885 179.995 24.099 179.384C24.7096 178.773 25.5375 178.429 26.4009 178.428H52.8467C53.7102 178.429 54.538 178.773 55.1486 179.384C55.7592 179.995 56.1026 180.823 56.1036 181.688V212.918C56.1026 213.783 55.7592 214.611 55.1486 215.222C54.538 215.833 53.7102 216.177 52.8467 216.178Z" fill="#6C63FF"/>
<path d="M107.351 238.661H25.5677C25.1871 238.662 24.8101 238.588 24.4583 238.442C24.1065 238.297 23.7868 238.084 23.5174 237.815C23.2481 237.546 23.0344 237.226 22.8886 236.874C22.7428 236.522 22.6677 236.145 22.6677 235.764C22.6677 235.383 22.7428 235.006 22.8886 234.654C23.0344 234.303 23.2481 233.983 23.5174 233.714C23.7868 233.445 24.1065 233.232 24.4583 233.086C24.8101 232.941 25.1871 232.867 25.5677 232.867H107.351C107.732 232.867 108.109 232.941 108.461 233.086C108.813 233.232 109.132 233.445 109.402 233.714C109.671 233.983 109.885 234.303 110.03 234.654C110.176 235.006 110.251 235.383 110.251 235.764C110.251 236.145 110.176 236.522 110.03 236.874C109.885 237.226 109.671 237.546 109.402 237.815C109.132 238.084 108.813 238.297 108.461 238.442C108.109 238.588 107.732 238.662 107.351 238.661Z" fill="#CCCCCC"/>
<path d="M107.351 253.871H25.5677C25.1871 253.872 24.8101 253.798 24.4583 253.652C24.1065 253.507 23.7868 253.294 23.5174 253.025C23.2481 252.756 23.0344 252.436 22.8886 252.084C22.7428 251.732 22.6677 251.355 22.6677 250.974C22.6677 250.593 22.7428 250.216 22.8886 249.864C23.0344 249.513 23.2481 249.193 23.5174 248.924C23.7868 248.655 24.1065 248.442 24.4583 248.296C24.8101 248.151 25.1871 248.076 25.5677 248.077H107.351C107.732 248.076 108.109 248.151 108.461 248.296C108.813 248.442 109.132 248.655 109.402 248.924C109.671 249.193 109.885 249.513 110.03 249.864C110.176 250.216 110.251 250.593 110.251 250.974C110.251 251.355 110.176 251.732 110.03 252.084C109.885 252.436 109.671 252.756 109.402 253.025C109.132 253.294 108.813 253.507 108.461 253.652C108.109 253.798 107.732 253.872 107.351 253.871Z" fill="#CCCCCC"/>
<path d="M107.351 269.081H25.5677C25.1871 269.082 24.8101 269.008 24.4583 268.862C24.1065 268.717 23.7868 268.504 23.5174 268.235C23.2481 267.966 23.0344 267.646 22.8886 267.294C22.7428 266.942 22.6677 266.565 22.6677 266.184C22.6677 265.803 22.7428 265.426 22.8886 265.074C23.0344 264.723 23.2481 264.403 23.5174 264.134C23.7868 263.865 24.1065 263.652 24.4583 263.506C24.8101 263.361 25.1871 263.286 25.5677 263.287H107.351C107.732 263.286 108.109 263.361 108.461 263.506C108.813 263.652 109.132 263.865 109.402 264.134C109.671 264.403 109.885 264.723 110.03 265.074C110.176 265.426 110.251 265.803 110.251 266.184C110.251 266.565 110.176 266.942 110.03 267.294C109.885 267.646 109.671 267.966 109.402 268.235C109.132 268.504 108.813 268.717 108.461 268.862C108.109 269.008 107.732 269.082 107.351 269.081Z" fill="#CCCCCC"/>
<path d="M107.351 284.291H25.5677C25.1871 284.292 24.8101 284.218 24.4583 284.072C24.1065 283.927 23.7868 283.714 23.5174 283.445C23.2481 283.175 23.0344 282.856 22.8886 282.504C22.7428 282.152 22.6677 281.775 22.6677 281.394C22.6677 281.013 22.7428 280.636 22.8886 280.284C23.0344 279.933 23.2481 279.613 23.5174 279.344C23.7868 279.075 24.1065 278.861 24.4583 278.716C24.8101 278.571 25.1871 278.496 25.5677 278.497H107.351C107.732 278.496 108.109 278.571 108.461 278.716C108.813 278.861 109.132 279.075 109.402 279.344C109.671 279.613 109.885 279.933 110.03 280.284C110.176 280.636 110.251 281.013 110.251 281.394C110.251 281.775 110.176 282.152 110.03 282.504C109.885 282.856 109.671 283.175 109.402 283.445C109.132 283.714 108.813 283.927 108.461 284.072C108.109 284.218 107.732 284.292 107.351 284.291Z" fill="#CCCCCC"/>
<path d="M107.351 299.501H25.5677C25.1871 299.502 24.8101 299.428 24.4583 299.282C24.1065 299.137 23.7868 298.924 23.5174 298.655C23.2481 298.385 23.0344 298.066 22.8886 297.714C22.7428 297.362 22.6677 296.985 22.6677 296.604C22.6677 296.223 22.7428 295.846 22.8886 295.494C23.0344 295.143 23.2481 294.823 23.5174 294.554C23.7868 294.285 24.1065 294.071 24.4583 293.926C24.8101 293.781 25.1871 293.706 25.5677 293.707H107.351C107.732 293.706 108.109 293.781 108.461 293.926C108.813 294.071 109.132 294.285 109.402 294.554C109.671 294.823 109.885 295.143 110.03 295.494C110.176 295.846 110.251 296.223 110.251 296.604C110.251 296.985 110.176 297.362 110.03 297.714C109.885 298.066 109.671 298.385 109.402 298.655C109.132 298.924 108.813 299.137 108.461 299.282C108.109 299.428 107.732 299.502 107.351 299.501Z" fill="#CCCCCC"/>
<path d="M172.075 409.689V378.458C172.076 377.594 172.419 376.766 173.03 376.155C173.64 375.544 174.468 375.2 175.332 375.199H201.777C202.641 375.2 203.469 375.544 204.079 376.155C204.69 376.766 205.033 377.594 205.034 378.458V409.689C205.033 410.554 204.69 411.382 204.079 411.993C203.469 412.604 202.641 412.948 201.777 412.949H175.332C174.468 412.948 173.64 412.604 173.03 411.993C172.419 411.382 172.076 410.554 172.075 409.689Z" fill="#E6E6E6"/>
<path d="M181.601 399.29V368.059C181.602 367.194 181.945 366.366 182.556 365.755C183.167 365.144 183.994 364.8 184.858 364.799H211.304C212.167 364.8 212.995 365.144 213.606 365.755C214.216 366.366 214.56 367.194 214.561 368.059V399.29C214.56 400.154 214.216 400.982 213.606 401.593C212.995 402.204 212.167 402.548 211.304 402.549H184.858C183.994 402.548 183.167 402.204 182.556 401.593C181.945 400.982 181.602 400.154 181.601 399.29Z" fill="#6C63FF"/>
<path d="M300.15 389.297C299.155 388.721 298.298 387.934 297.64 386.992C296.981 386.049 296.538 384.973 296.34 383.84C296.142 382.707 296.194 381.545 296.494 380.434C296.793 379.324 297.332 378.293 298.073 377.413L289.876 317.451L306.952 318.289L309.633 376.777C311.026 378.12 311.879 379.929 312.029 381.859C312.18 383.79 311.617 385.709 310.448 387.252C309.279 388.795 307.586 389.856 305.688 390.233C303.79 390.609 301.819 390.276 300.15 389.297V389.297Z" fill="#A0616A"/>
<path d="M309.295 319.088C308.946 319.501 308.497 319.818 307.992 320.011L292.646 325.872C291.876 326.166 291.021 326.154 290.26 325.837C289.498 325.52 288.886 324.924 288.551 324.169L274.958 293.597C273.652 290.762 273.43 287.546 274.333 284.557C275 282.424 276.231 280.51 277.894 279.018C279.557 277.526 281.591 276.511 283.783 276.079C285.468 275.732 287.209 275.756 288.884 276.151C290.891 276.599 292.754 277.54 294.306 278.89C295.858 280.24 297.049 281.956 297.772 283.883L309.858 315.854C310.061 316.395 310.116 316.979 310.017 317.548C309.918 318.117 309.669 318.649 309.295 319.088Z" fill="#CCCCCC"/>
<path d="M229.329 535.652H218.712L214.862 494.476L229.331 494.67L229.329 535.652Z" fill="#A0616A"/>
<path d="M211.128 532.616H231.604V545.518H198.236C198.236 543.823 198.569 542.146 199.217 540.58C199.865 539.015 200.815 537.593 202.012 536.395C203.209 535.197 204.63 534.246 206.195 533.598C207.759 532.949 209.435 532.616 211.128 532.616Z" fill="#2F2E41"/>
<path d="M278.693 535.652H268.075L263.024 494.669L278.694 494.67L278.693 535.652Z" fill="#A0616A"/>
<path d="M260.492 532.616H280.968V545.518H247.599C247.599 543.823 247.933 542.146 248.581 540.58C249.229 539.015 250.178 537.593 251.375 536.395C252.573 535.197 253.994 534.246 255.558 533.598C257.122 532.949 258.799 532.616 260.492 532.616Z" fill="#2F2E41"/>
<path d="M280.028 521.071L263.352 519.835C262.404 519.764 261.515 519.348 260.851 518.667C260.187 517.985 259.795 517.084 259.748 516.134L256.03 439.234C255.994 438.496 255.69 437.797 255.176 437.267C254.661 436.737 253.971 436.413 253.235 436.357C252.499 436.3 251.767 436.514 251.177 436.959C250.588 437.403 250.181 438.048 250.033 438.772L234.521 514.525C234.329 515.457 233.804 516.287 233.043 516.858C232.283 517.43 231.341 517.704 230.393 517.629L215.319 516.422C214.802 516.381 214.299 516.237 213.839 515.999C213.378 515.761 212.97 515.433 212.638 515.035C212.306 514.637 212.056 514.176 211.904 513.68C211.752 513.185 211.7 512.664 211.752 512.148L225.736 372.201C225.791 371.654 225.96 371.125 226.234 370.648C226.507 370.171 226.878 369.758 227.322 369.435C227.767 369.111 228.274 368.886 228.812 368.773C229.35 368.66 229.905 368.662 230.442 368.779L283.621 380.347C284.502 380.541 285.288 381.033 285.848 381.741C286.407 382.449 286.704 383.329 286.689 384.231L284.212 517.254C284.193 518.274 283.775 519.246 283.048 519.961C282.322 520.677 281.344 521.079 280.325 521.082C280.226 521.082 280.127 521.077 280.028 521.071Z" fill="#2F2E41"/>
<path d="M265.439 255.189C277.187 255.189 286.71 245.659 286.71 233.903C286.71 222.147 277.187 212.616 265.439 212.616C253.692 212.616 244.169 222.147 244.169 233.903C244.169 245.659 253.692 255.189 265.439 255.189Z" fill="#A0616A"/>
<path d="M232.437 382.993C230.392 381.158 228.768 378.901 227.678 376.377C226.587 373.854 226.056 371.124 226.12 368.376C226.12 337.782 252.582 269.43 253.412 267.297C253.493 266.784 254.191 266.562 257.854 264.085C261.52 261.607 266.805 261.226 273.563 262.954C274.25 263.13 274.876 263.491 275.372 263.998C275.869 264.505 276.216 265.139 276.378 265.83L277.635 267.648C277.745 268.109 277.961 268.538 278.266 268.9C278.571 269.262 278.957 269.547 279.392 269.733C284.843 272.031 302.167 282.627 296.264 322.506C290.78 359.55 288.555 381.336 287.852 388.984C287.77 389.891 287.372 390.741 286.727 391.385C286.083 392.028 285.233 392.426 284.326 392.507C281.654 392.747 277.067 393.065 271.605 393.065C258.943 393.065 241.574 391.355 232.437 382.993Z" fill="#CCCCCC"/>
<path d="M207.021 371.659C206.515 370.626 206.241 369.495 206.22 368.345C206.198 367.195 206.428 366.054 206.895 365.003C207.361 363.952 208.052 363.016 208.919 362.261C209.786 361.506 210.808 360.95 211.913 360.633L238.494 306.271L252.206 316.49L221.866 366.551C222.275 368.443 221.976 370.42 221.026 372.107C220.076 373.794 218.54 375.074 216.71 375.703C214.881 376.333 212.883 376.269 211.098 375.524C209.312 374.778 207.861 373.403 207.021 371.659L207.021 371.659Z" fill="#A0616A"/>
<path d="M253.707 318.46C253.187 318.608 252.638 318.621 252.111 318.499L236.105 314.809C235.301 314.624 234.599 314.137 234.143 313.449C233.687 312.761 233.511 311.925 233.653 311.111L239.388 278.146C239.883 275.063 241.489 272.269 243.903 270.29C245.645 268.891 247.732 267.988 249.944 267.677C252.155 267.365 254.41 267.657 256.47 268.52C258.063 269.172 259.495 270.163 260.666 271.424C262.083 272.915 263.106 274.736 263.643 276.723C264.18 278.709 264.214 280.798 263.741 282.801L255.975 316.089C255.843 316.65 255.563 317.167 255.164 317.584C254.765 318.001 254.262 318.303 253.707 318.46Z" fill="#CCCCCC"/>
<path d="M260.459 253.135C259.424 252.078 258.66 250.786 258.232 249.37C257.803 247.953 257.724 246.454 258 245C258.742 241.118 259.178 238.578 259.26 237.654C259.543 234.492 256.349 231.933 253.189 231.526C253.067 231.51 252.964 231.499 252.879 231.492C252.959 231.572 253.046 231.652 253.122 231.724C253.722 232.288 254.469 232.99 254.291 233.715C254.184 234.151 253.786 234.461 253.073 234.661C248.131 236.044 244.326 234.774 241.095 230.66C240.187 229.491 239.563 228.126 239.272 226.675C238.115 220.994 241.198 216.151 243.989 213.089C246.289 210.565 250.019 207.5 254.722 207.237C258.38 207.033 262.729 209.139 264.031 212.935C264.645 212.024 265.462 211.269 266.419 210.73C267.375 210.19 268.444 209.881 269.54 209.827C272.037 209.773 274.495 210.457 276.605 211.794C286.919 217.706 291.351 231.79 286.285 242.55C283.097 249.318 276.192 254.356 268.263 255.699C267.766 255.783 267.264 255.826 266.76 255.826C265.583 255.824 264.419 255.585 263.336 255.123C262.253 254.66 261.275 253.984 260.459 253.135Z" fill="#2F2E41"/>
<path d="M160.716 546H329.59C329.82 546 330.04 545.909 330.203 545.746C330.365 545.584 330.456 545.363 330.456 545.133C330.456 544.903 330.365 544.683 330.203 544.52C330.04 544.358 329.82 544.267 329.59 544.267H160.716C160.486 544.267 160.266 544.358 160.103 544.52C159.941 544.683 159.85 544.903 159.85 545.133C159.85 545.363 159.941 545.584 160.103 545.746C160.266 545.909 160.486 546 160.716 546Z" fill="#3F3D56"/>
</svg>
