<svg width="173" height="57" viewBox="0 0 173 57" fill="none" xmlns="http://www.w3.org/2000/svg">
<path d="M74.0336 29.9963C74.0336 38.1969 67.6241 44.2398 59.7582 44.2398C51.8922 44.2398 45.4827 38.1969 45.4827 29.9963C45.4827 21.7378 51.8922 15.7527 59.7582 15.7527C67.6241 15.7527 74.0336 21.7378 74.0336 29.9963ZM67.7845 29.9963C67.7845 24.8717 64.0697 21.3653 59.7582 21.3653C55.4466 21.3653 51.7318 24.8717 51.7318 29.9963C51.7318 35.0695 55.4466 38.6272 59.7582 38.6272C64.0697 38.6272 67.7845 35.0631 67.7845 29.9963Z" fill="#EA4335"/>
<path d="M104.83 29.9963C104.83 38.1969 98.4207 44.2398 90.5548 44.2398C82.6888 44.2398 76.2793 38.1969 76.2793 29.9963C76.2793 21.7442 82.6888 15.7527 90.5548 15.7527C98.4207 15.7527 104.83 21.7378 104.83 29.9963ZM98.5811 29.9963C98.5811 24.8717 94.8663 21.3653 90.5548 21.3653C86.2433 21.3653 82.5284 24.8717 82.5284 29.9963C82.5284 35.0695 86.2433 38.6272 90.5548 38.6272C94.8663 38.6272 98.5811 35.0631 98.5811 29.9963Z" fill="#FBBC05"/>
<path d="M134.344 16.6132V42.1849C134.344 52.7038 128.146 57 120.819 57C113.922 57 109.771 52.3827 108.205 48.6067L113.646 46.3398C114.615 48.658 116.989 51.3937 120.813 51.3937C125.503 51.3937 128.409 48.4975 128.409 43.0454V40.9968H128.191C126.792 42.7243 124.098 44.2334 120.697 44.2334C113.582 44.2334 107.063 38.0299 107.063 30.0476C107.063 22.0075 113.582 15.7527 120.697 15.7527C124.091 15.7527 126.786 17.2618 128.191 18.9379H128.409V16.6196H134.344V16.6132ZM128.852 30.0476C128.852 25.0322 125.509 21.3653 121.255 21.3653C116.944 21.3653 113.332 25.0322 113.332 30.0476C113.332 35.0117 116.944 38.6272 121.255 38.6272C125.509 38.6272 128.852 35.0117 128.852 30.0476Z" fill="#4285F4"/>
<path d="M144.128 1.62469V43.3665H138.033V1.62469H144.128Z" fill="#34A853"/>
<path d="M167.88 34.6842L172.73 37.9208C171.165 40.2391 167.392 44.2334 160.874 44.2334C152.79 44.2334 146.752 37.9786 146.752 29.9899C146.752 21.5195 152.841 15.7463 160.174 15.7463C167.559 15.7463 171.171 21.6287 172.352 24.8075L173 26.4257L153.977 34.3117C155.433 37.1694 157.698 38.6272 160.874 38.6272C164.056 38.6272 166.263 37.0603 167.88 34.6842ZM152.95 29.5596L165.666 24.2744C164.967 22.4956 162.863 21.2562 160.386 21.2562C157.21 21.2562 152.79 24.0625 152.95 29.5596Z" fill="#EA4335"/>
<path d="M22.4109 26.2909V20.248H42.7559C42.9548 21.3012 43.0575 22.547 43.0575 23.8956C43.0575 28.4294 41.8192 34.0356 37.8285 38.03C33.9468 42.0757 28.9873 44.2334 22.4173 44.2334C10.2399 44.2334 0 34.3053 0 22.1167C0 9.92812 10.2399 0 22.4173 0C29.1541 0 33.9532 2.64579 37.559 6.0943L33.2988 10.3584C30.7132 7.93094 27.2101 6.04293 22.4109 6.04293C13.5184 6.04293 6.56352 13.2161 6.56352 22.1167C6.56352 31.0174 13.5184 38.1905 22.4109 38.1905C28.1789 38.1905 31.4638 35.8722 33.5683 33.7659C35.2749 32.0577 36.3977 29.6174 36.8404 26.2845L22.4109 26.2909Z" fill="#4285F4"/>
</svg>
