<svg width="32" height="32" viewBox="0 0 32 32" fill="none" xmlns="http://www.w3.org/2000/svg">
<path d="M7.09188 19.3378L5.978 23.4961L1.90681 23.5822C0.690125 21.3255 0 18.7436 0 15.9999C0 13.3467 0.64525 10.8447 1.789 8.6416H1.78988L5.41437 9.3061L7.00212 12.9089C6.66981 13.8777 6.48869 14.9177 6.48869 15.9999C6.48881 17.1744 6.70156 18.2997 7.09188 19.3378Z" fill="#FBBB00"/>
<path d="M31.7204 13.0112C31.9042 13.9791 32 14.9787 32 16.0002C32 17.1457 31.8796 18.2631 31.6501 19.3409C30.8712 23.0086 28.8361 26.2112 26.0167 28.4776L26.0159 28.4767L21.4506 28.2438L20.8045 24.2104C22.6752 23.1132 24.1372 21.3963 24.9074 19.3409H16.3517V13.0112H25.0322H31.7204Z" fill="#518EF8"/>
<path d="M26.0158 28.4763L26.0167 28.4772C23.2747 30.6811 19.7916 31.9998 16 31.9998C9.9068 31.9998 4.60924 28.5941 1.9068 23.5823L7.09186 19.3379C8.44305 22.944 11.9217 25.5111 16 25.5111C17.7529 25.5111 19.3952 25.0372 20.8044 24.21L26.0158 28.4763Z" fill="#28B446"/>
<path d="M26.2128 3.6835L21.0294 7.927C19.571 7.01538 17.847 6.48875 16 6.48875C11.8294 6.48875 8.28569 9.17356 7.00219 12.909L1.78988 8.64175H1.789C4.45188 3.50769 9.81625 0 16 0C19.8822 0 23.4418 1.38287 26.2128 3.6835Z" fill="#F14336"/>
</svg>
