<svg width="116" height="116" viewBox="0 0 116 116" fill="none" xmlns="http://www.w3.org/2000/svg">
<path d="M6.79688 0L14.0017 101.523L58.0451 116L102.089 101.523L109.293 0H6.79688Z" fill="#FF7816"/>
<path d="M109.293 0L102.089 101.523L58.0452 116V0H109.293Z" fill="#FF4B00"/>
<path d="M90.0586 30.8125H39.6936L40.9167 47.8047H88.8355L85.9124 88.9479L58.0452 98.26L30.178 88.9479L29.2266 75.2188H42.8203L43.092 78.957L58.0452 83.9184L72.9983 78.957L74.2214 61.3984H28.2071L25.0803 17.2188H91.01L90.0586 30.8125Z" fill="#ECECF1"/>
<path d="M88.8355 47.8047L85.9124 88.9479L58.0452 98.26V83.9184L72.9983 78.957L74.2214 61.3984H58.0452V47.8047H88.8355Z" fill="#E2E2E7"/>
<path d="M91.01 17.2188L90.0586 30.8125H58.0452V17.2188H91.01Z" fill="#E2E2E7"/>
</svg>
