<svg width="174" height="94" viewBox="0 0 174 94" fill="none" xmlns="http://www.w3.org/2000/svg">
<path fill-rule="evenodd" clip-rule="evenodd" d="M13.1601 13.8635C19.6898 13.8635 25.1403 19.7616 26.1256 27.4087V11.145C26.1256 5.01329 31.7094 0 38.5318 0C45.3524 0 50.9361 5.01329 50.9361 11.145V16.5386C52.0548 11.5911 56.9515 7.83719 62.7793 7.83719C69.4234 7.83719 74.8626 12.7226 74.8626 18.6904V24.502C75.1929 18.7846 80.5701 14.2004 87.0999 14.2004C93.4775 14.2004 98.759 18.5755 99.3051 24.1086V19.5432C99.3051 13.6451 104.728 8.8199 111.351 8.8199C117.976 8.8199 123.397 13.6451 123.397 19.5432V24.1086C123.853 23.1239 124.78 20.8215 125.505 19.6072C127.588 16.1414 131.576 13.7862 136.133 13.7862C141.807 13.7862 146.606 17.4422 147.926 22.3483V16.0641C147.926 9.68033 153.772 4.45604 160.918 4.45604C168.065 4.45604 173.907 9.68033 173.907 16.0641V28.7021H173.964V69.5601C173.964 75.9441 168.117 81.1682 160.968 81.1682C153.823 81.1682 147.976 75.9441 147.976 69.5601V74.3551C147.976 80.5582 142.545 85.6357 135.901 85.6357C129.258 85.6357 123.83 80.5582 123.83 74.3551V71.0117C122.903 76.6198 117.759 80.9461 111.601 80.9461C105.274 80.9461 100.013 76.3751 99.3051 70.5448V74.758C99.3051 80.7334 93.7741 85.6169 87.0078 85.6169C80.2435 85.6169 74.7087 80.7334 74.7087 74.758V83.1469C74.7087 89.1185 69.2713 94 62.6254 94C55.9792 94 50.5438 89.1185 50.5438 83.1469V76.8214C49.4214 81.9363 44.3783 85.8277 38.3741 85.8277C31.5517 85.8277 25.9679 80.8125 25.9679 74.6827V68.9388C24.6523 76.0871 19.3951 81.4694 13.1601 81.4694C5.94162 81.4694 0.0332031 74.2535 0.0332031 65.4372V29.9013C0.0332031 21.0794 5.94162 13.8635 13.1601 13.8635Z" fill="#F9E307"/>
<path fill-rule="evenodd" clip-rule="evenodd" d="M13.6469 45.068C19.0823 45.068 23.7745 48.2873 25.9705 52.9486C28.1457 48.2383 32.8661 44.9701 38.3391 44.9701C43.6375 44.9701 48.2265 48.0255 50.4881 52.493C52.7348 47.9765 57.3537 44.874 62.684 44.874C68.0501 44.874 72.6916 48.0086 74.9233 52.5701C77.1718 48.0726 81.7832 44.987 87.1023 44.987C92.4646 44.987 97.106 48.1234 99.3377 52.6868C101.588 48.1874 106.198 45.1019 111.517 45.1019C116.791 45.1019 121.367 48.1347 123.641 52.5739C125.901 48.1008 130.498 45.0379 135.794 45.0379C141.179 45.0379 145.839 48.2007 148.056 52.7942C150.267 48.1668 154.936 44.9776 160.351 44.9776C167.885 44.9776 174 51.1676 174 58.8053C174 66.4393 167.885 72.6311 160.351 72.6311C154.963 72.6311 150.308 69.4683 148.086 64.8785C145.879 69.5022 141.205 72.6933 135.794 72.6933C130.52 72.6933 125.944 69.6603 123.671 65.2211C121.41 69.6942 116.817 72.7553 111.517 72.7553C106.153 72.7553 101.511 69.6171 99.2832 65.0555C97.0292 69.5569 92.4213 72.6405 87.1023 72.6405C81.7381 72.6405 77.0985 69.5022 74.865 64.9445C72.6147 69.4419 68.0031 72.5276 62.684 72.5276C57.3912 72.5276 52.8004 69.4683 50.5351 65.0047C48.2921 69.523 43.6732 72.6235 38.3391 72.6235C32.9074 72.6235 28.2115 69.4005 26.0155 64.7392C23.8421 69.4532 19.1199 72.7196 13.6469 72.7196C6.10932 72.7196 0 66.5296 0 58.8938C0 51.2598 6.10932 45.068 13.6469 45.068Z" fill="#E61D25"/>
<path fill-rule="evenodd" clip-rule="evenodd" d="M114.148 56.2991C113.466 55.61 112.528 55.1808 111.486 55.1808C110.445 55.1808 109.502 55.61 108.821 56.2991C108.114 57.0178 107.717 57.987 107.718 58.9969C107.718 60.0512 108.144 61.0038 108.821 61.6946C109.502 62.3836 110.445 62.8129 111.486 62.8129C112.528 62.8129 113.466 62.3836 114.148 61.6946C114.856 60.9769 115.253 60.0071 115.251 58.9969C115.253 57.9867 114.856 57.0168 114.148 56.2991ZM115.347 45.6548C116.542 46.0091 117.682 46.5259 118.737 47.191V58.9969C118.74 60.9421 117.975 62.8095 116.61 64.1909C115.298 65.5182 113.487 66.3428 111.486 66.3428C109.486 66.3428 107.671 65.5182 106.359 64.1909C105.045 62.86 104.236 61.0244 104.236 58.9969C104.236 56.9693 105.045 55.1319 106.359 53.8009C107.671 52.4736 109.486 51.651 111.486 51.651C112.905 51.651 114.228 52.0652 115.347 52.7806V45.6548Z" fill="white"/>
<path d="M16.5314 56.2459C15.8501 55.5549 14.9079 55.1257 13.8699 55.1257C12.8283 55.1257 11.8862 55.5549 11.2048 56.2459C10.5235 56.933 10.1012 57.8894 10.1012 58.9418C10.1012 59.9961 10.5235 60.9505 11.2048 61.6395C11.8862 62.3285 12.8283 62.7578 13.8699 62.7578C14.9079 62.7578 15.8501 62.3285 16.5314 61.6395C17.2404 60.922 17.6372 59.952 17.635 58.9418C17.635 57.8894 17.2127 56.933 16.5314 56.2459ZM13.8699 51.5977C15.8669 51.5977 17.682 52.4185 18.9938 53.7476C20.3076 55.0787 21.1167 56.9142 21.1167 58.9418C21.1167 60.9712 20.3076 62.8049 18.9938 64.134C17.682 65.4649 15.8669 66.2877 13.8699 66.2877C11.8692 66.2877 10.0543 65.4649 8.74231 64.134C7.42849 62.8049 6.61963 60.9712 6.61963 58.9418C6.61963 56.9142 7.42849 55.0787 8.74231 53.7476C10.0543 52.4185 11.8692 51.5977 13.8699 51.5977ZM40.9638 56.1152C40.2789 55.4262 39.3367 55.0007 38.3024 55.0007C37.2608 55.0007 36.3186 55.4262 35.6372 56.1152C34.9285 56.8329 34.5317 57.8028 34.5336 58.813C34.5336 59.8673 34.956 60.8199 35.6372 61.5107C36.3186 62.1998 37.2608 62.629 38.3024 62.629C39.3367 62.629 40.2789 62.1998 40.9638 61.5107C41.6452 60.8199 42.0637 59.8673 42.0637 58.813C42.0637 57.7606 41.6452 56.8042 40.9638 56.1152ZM38.3024 51.4689C40.2994 51.4689 42.1144 52.2898 43.4263 53.6208C44.7401 54.948 45.5491 56.7854 45.5491 58.813C45.5491 60.8443 44.7401 62.6761 43.4263 64.0071C42.1144 65.3362 40.2994 66.1627 38.3024 66.1627C36.2979 66.1627 34.4868 65.3362 33.171 64.0071C31.861 62.6761 31.0484 60.8443 31.0484 58.813C31.0484 56.7854 31.861 54.948 33.171 53.6208C34.4868 52.2898 36.2979 51.4689 38.3024 51.4689ZM83.6264 56.4866C84.0918 55.1783 85.4732 54.2275 87.1117 54.2275C88.7483 54.2275 90.1372 55.1783 90.5989 56.4866H83.6264ZM87.2 51.3772C89.2063 51.3772 91.0175 52.2 92.3294 53.5291C93.6376 54.86 94.4522 56.6956 94.4522 58.7231C94.4522 58.806 94.4522 58.8888 94.4485 58.9774H82.9995C83.1346 61.1913 84.9195 62.9496 87.1061 62.9496C88.8534 62.9496 90.3456 61.8276 90.9387 60.2405H94.2983C94.0058 61.6291 93.3225 62.9044 92.3294 63.9153C91.0175 65.2464 89.2063 66.0672 87.2 66.0672C85.1992 66.0672 83.3842 65.2464 82.0761 63.9153C80.7603 62.5882 79.9495 60.7508 79.9495 58.7231C79.9495 56.6956 80.7603 54.86 82.0761 53.5291C83.3842 52.2 85.1992 51.3772 87.2 51.3772ZM62.8523 51.3372C64.8531 51.3372 66.6679 52.158 67.9799 53.489C69.2877 54.8126 70.0451 56.5852 70.0989 58.4478H66.6136C66.5553 57.4895 66.1444 56.6255 65.5175 55.9854C64.8361 55.2944 63.8939 54.8689 62.8523 54.8689C61.8143 54.8689 60.8721 55.2944 60.1909 55.9854C59.5603 56.6255 59.1529 57.4895 59.0948 58.4478H59.1098V65.9707H55.6056V58.4478C55.6676 56.5143 56.4672 54.7654 57.7284 53.489C59.0403 52.158 60.8516 51.3372 62.8523 51.3372ZM138.565 56.323C137.884 55.6322 136.942 55.2048 135.9 55.2048C134.862 55.2048 133.92 55.6322 133.239 56.323C132.53 57.0398 132.133 58.0092 132.135 59.0189C132.135 60.0732 132.557 61.0277 133.239 61.7168C133.92 62.4058 134.862 62.835 135.9 62.835C136.942 62.835 137.884 62.4058 138.565 61.7168C139.273 60.9983 139.669 60.0289 139.669 59.0189C139.669 58.0096 139.273 57.0408 138.565 56.323ZM135.9 51.675C137.901 51.675 139.716 52.4976 141.026 53.8287C142.342 55.1558 143.151 56.9914 143.151 59.0189C143.151 61.0484 142.342 62.882 141.026 64.2131C139.716 65.5422 137.901 66.3648 135.9 66.3648C133.899 66.3648 132.088 65.5422 130.772 64.2131C129.462 62.882 128.653 61.0484 128.653 59.0189C128.653 56.9914 129.462 55.1558 130.772 53.8287C132.088 52.4976 133.899 51.675 135.9 51.675ZM163.06 56.2348C162.379 55.5457 161.437 55.1165 160.399 55.1165C159.357 55.1165 158.415 55.5457 157.733 56.2348C157.025 56.9538 156.629 57.9239 156.63 58.9344C156.629 59.9432 157.026 60.9114 157.733 61.6284C158.415 62.3193 159.357 62.7486 160.399 62.7486C161.437 62.7486 162.379 62.3193 163.06 61.6284C163.741 60.9413 164.164 59.9867 164.164 58.9344C164.164 57.8782 163.741 56.9238 163.06 56.2348ZM160.399 51.5866C162.396 51.5866 164.211 52.4111 165.522 53.7422C166.836 55.0694 167.645 56.905 167.645 58.9344C167.645 60.9601 166.836 62.7975 165.522 64.1284C164.211 65.4558 162.396 66.2766 160.399 66.2766C158.398 66.2766 156.583 65.4558 155.271 64.1284C153.957 62.7975 153.148 60.9601 153.148 58.9344C153.148 56.905 153.957 55.0694 155.271 53.7422C156.583 52.4111 158.398 51.5866 160.399 51.5866Z" fill="white"/>
<path d="M65.3088 31.0809C64.9593 30.725 64.5426 30.4425 64.0831 30.2499C63.6235 30.0572 63.1304 29.9583 62.6324 29.9588C61.5926 29.9588 60.6466 30.3881 59.9634 31.0809C59.2747 31.7736 58.8543 32.73 58.8543 33.7861C58.8543 34.8479 59.2747 35.8062 59.9634 36.497C60.6466 37.1918 61.5926 37.619 62.6324 37.619C63.1305 37.62 63.6237 37.5213 64.0833 37.3286C64.5429 37.136 64.9595 36.8532 65.3088 36.497C65.9939 35.8062 66.4161 34.8479 66.4161 33.7861C66.4184 32.7729 66.0202 31.8001 65.3088 31.0809ZM89.6501 31.0696C88.965 30.3786 88.0228 29.9475 86.9774 29.9475C85.9319 29.9475 84.986 30.3786 84.301 31.0696C83.6196 31.7661 83.1936 32.7243 83.1936 33.7805C83.1936 34.8385 83.6196 35.7986 84.301 36.4914C84.986 37.1842 85.9319 37.6135 86.9774 37.6135C88.0228 37.6135 88.965 37.1842 89.6501 36.4914C90.3351 35.7986 90.7575 34.8385 90.7575 33.7805C90.7591 32.7658 90.3611 31.7914 89.6501 31.0696ZM86.9774 26.6473C88.9199 26.6473 90.6805 27.4437 91.9549 28.7369C93.2799 30.0788 94.0221 31.8919 94.0195 33.7805C94.0224 35.6692 93.2802 37.4823 91.9549 38.8239C90.6805 40.1191 88.9199 40.9174 86.9774 40.9174C85.031 40.9174 83.2705 40.1191 81.9962 38.8239C80.7237 37.5362 79.9354 35.7497 79.9354 33.7805C79.9354 31.8131 80.7237 30.0246 81.9962 28.7369C83.2705 27.4437 85.031 26.6473 86.9774 26.6473ZM38.2667 26.5551C40.2487 26.5551 42.0392 27.3664 43.3362 28.6842C44.575 29.9343 45.3595 31.6399 45.4326 33.53H45.4739V40.9814H42.1087V33.53C42.0418 32.5992 41.645 31.7231 40.9901 31.0601C40.2937 30.356 39.329 29.9174 38.2667 29.9174C37.2026 29.9174 36.2397 30.356 35.5434 31.0601C34.9053 31.7021 34.4942 32.5699 34.4248 33.53V40.9814H31.0783V33.53H31.099C31.174 31.6399 31.9566 29.9343 33.1936 28.6842C34.4942 27.3664 36.2829 26.5551 38.2667 26.5551ZM138.306 30.8756C137.623 30.179 136.677 29.7498 135.634 29.7498C134.588 29.7498 133.642 30.179 132.961 30.8756C132.276 31.5666 131.854 32.5247 131.854 33.5809C131.854 34.6427 132.276 35.5991 132.961 36.2919C133.31 36.6478 133.726 36.9302 134.185 37.1225C134.644 37.3148 135.136 37.4133 135.634 37.412C136.131 37.4129 136.624 37.3143 137.082 37.122C137.541 36.9296 137.957 36.6475 138.306 36.2919C138.991 35.5991 139.416 34.6427 139.416 33.5809C139.418 32.5674 139.019 31.5945 138.306 30.8756ZM135.634 26.4477C137.58 26.4477 139.339 27.2497 140.615 28.5356C141.887 29.8308 142.676 31.6117 142.676 33.5809V40.8403H139.738V39.3794C138.58 40.2208 137.165 40.7178 135.634 40.7178C133.691 40.7178 131.927 39.9158 130.654 38.6263C129.38 37.3348 128.592 35.552 128.592 33.5809C128.592 31.6117 129.38 29.8308 130.654 28.5356C131.927 27.2497 133.691 26.4477 135.634 26.4477ZM12.2363 26.5701H15.6372V40.9796H12.2363V26.5701ZM156.752 27.084H158.541V21.1936H161.788V27.0842H163.776V30.149H161.788V35.6256C161.756 36.9678 162.387 37.5853 163.892 37.7811V40.9213C160.59 40.8723 158.415 40.1268 158.541 35.6256V30.1487H156.752V27.084ZM114.903 30.8342C113.646 29.6689 112.004 29.2565 110.966 29.2528C109.592 29.2452 108.822 30.8003 110.243 31.4667C110.692 31.672 111.262 31.8226 111.835 31.992C114.449 32.7657 117.139 33.5659 116.861 37.0901C116.78 38.0671 116.411 38.8673 115.827 39.4904C115.27 40.074 114.551 40.475 113.73 40.699C112.997 40.9023 112.176 40.9607 111.33 40.8948C109.301 40.7253 107.12 39.8952 105.474 38.31L107.257 35.9342C108.404 37.0374 110.142 37.7885 111.565 37.9034C112.084 37.9448 112.565 37.9127 112.965 37.8017C113.276 37.7189 113.524 37.5927 113.682 37.4233C113.804 37.2915 113.888 37.1032 113.907 36.8547C113.997 35.7497 112.48 35.2979 111.015 34.8649C108.623 34.1551 106.292 33.466 106.311 30.5706C106.315 29.6293 106.574 28.8009 107.043 28.1194C107.469 27.5039 108.051 27.022 108.755 26.7037C109.404 26.4138 110.157 26.2576 110.981 26.2614C112.572 26.267 114.481 26.8827 116.435 28.2645L114.903 30.8342ZM62.6324 26.6548C64.0625 26.6548 65.3896 27.084 66.5007 27.8258V20.2824H69.6782V33.7862C69.6782 35.7592 68.8899 37.5421 67.6155 38.8354C66.343 40.1231 64.5788 40.925 62.6324 40.925C60.6899 40.925 58.9311 40.1231 57.6549 38.8354C56.3786 37.5421 55.5941 35.7592 55.5941 33.7862C55.5941 31.8208 56.3786 30.0361 57.6549 28.7446C58.9311 27.4551 60.6899 26.6549 62.6324 26.6549" fill="#211916"/>
<path fill-rule="evenodd" clip-rule="evenodd" d="M83.627 56.4866C84.0924 55.1783 85.4738 54.2275 87.1122 54.2275C88.7489 54.2275 90.1378 55.1783 90.5995 56.4866H83.627Z" fill="#E61D25"/>
</svg>
