<svg width="116" height="116" viewBox="0 0 116 116" fill="none" xmlns="http://www.w3.org/2000/svg">
<path d="M0 116V0H116V116H0Z" fill="#FFD600"/>
<path d="M75.8447 86.8291C78.0745 90.4509 80.4976 93.9212 85.6306 93.9212C89.9419 93.9212 92.2039 91.7784 92.2039 88.814C92.2039 85.2663 89.8646 84.0064 85.1215 81.941L82.5212 80.8325C75.0166 77.649 70.0254 73.6599 70.0254 65.2338C70.0254 57.4682 75.9704 51.5586 85.2601 51.5586C91.8753 51.5586 96.6281 53.8496 100.056 59.8494L91.9558 65.0275C90.1739 61.844 88.2471 60.5905 85.2601 60.5905C82.2118 60.5905 80.2817 62.5142 80.2817 65.0275C80.2817 68.1338 82.2151 69.3904 86.6778 71.3141L89.2782 72.4225C98.1232 76.1893 103.111 80.0366 103.111 88.6851C103.111 98.0037 95.7516 103.111 85.8723 103.111C76.2088 103.111 70.7214 98.2615 67.6667 92.2585L75.8447 86.8291ZM38.5121 87.0933C40.1425 90.0126 42.6204 92.2585 46.1842 92.2585C49.5933 92.2585 51.5556 90.9116 51.5556 85.6755V51.5554H62.2953V87.3253C62.2953 98.1745 56.0023 103.111 46.8125 103.111C38.5088 103.111 32.5155 97.485 30.0731 92.2585L38.5121 87.0933Z" fill="#000001"/>
</svg>
