<svg width="49" height="49" viewBox="0 0 49 49" fill="none" xmlns="http://www.w3.org/2000/svg">
<g filter="url(#filter0_d)">
<rect x="7" y="6" width="33" height="33" rx="5" fill="#42BBFF"/>
</g>
<path d="M30.6761 11H24.449H17.8753C16.2938 11.0029 15.0104 12.2948 15 13.8941V31.1057C15.0104 32.7051 16.2938 33.9969 17.8753 33.9999H30.6842C31.0359 34.0051 31.3751 33.8682 31.6264 33.6193C31.8662 33.3701 32.0003 33.0361 32 32.6883V12.3389C31.9985 11.6 31.4067 11.0015 30.6761 11ZM24.9959 12.0952H28.1771V17.2319L27.0481 15.411C27.0023 15.334 26.9386 15.2694 26.8624 15.2232C26.6059 15.0676 26.2733 15.1517 26.1194 15.411L24.9959 17.2237V12.0952ZM16.0965 13.8941C16.101 12.9025 16.8947 12.0997 17.8753 12.0952H23.9129V17.6809C23.8925 18.1255 24.1685 18.529 24.587 18.6666C25.0635 18.8117 25.4913 18.4996 25.7458 18.0889L26.5878 16.7198L27.4298 18.0889C27.6816 18.4941 28.1094 18.8063 28.5995 18.6666C29.016 18.5296 29.2915 18.129 29.2736 17.6864V12.1089H30.6842C30.8092 12.1104 30.9101 12.2125 30.9116 12.3389V28.2194C30.8365 28.2066 30.7604 28.2002 30.6842 28.2006H17.8753C17.2294 28.2004 16.6024 28.4214 16.0965 28.8276V13.8941ZM30.9116 30.5636L18.4276 30.5773C18.1286 30.5773 17.8861 30.8225 17.8861 31.1249C17.8861 31.4273 18.1286 31.6725 18.4276 31.6725L30.9116 31.6588V32.6774C30.9122 32.7386 30.8889 32.7977 30.8466 32.8416C30.8032 32.8843 30.7448 32.9079 30.6842 32.9074H17.8753C16.8922 32.9074 16.0952 32.1013 16.0952 31.1071C16.0952 30.1128 16.8922 29.3068 17.8753 29.3068H30.6842C30.8092 29.3083 30.9101 29.4104 30.9116 29.5368V30.5636Z" fill="white"/>
<defs>
<filter id="filter0_d" x="0" y="0" width="49" height="49" filterUnits="userSpaceOnUse" color-interpolation-filters="sRGB">
<feFlood flood-opacity="0" result="BackgroundImageFix"/>
<feColorMatrix in="SourceAlpha" type="matrix" values="0 0 0 0 0 0 0 0 0 0 0 0 0 0 0 0 0 0 127 0" result="hardAlpha"/>
<feOffset dx="1" dy="2"/>
<feGaussianBlur stdDeviation="4"/>
<feComposite in2="hardAlpha" operator="out"/>
<feColorMatrix type="matrix" values="0 0 0 0 0 0 0 0 0 0 0 0 0 0 0 0 0 0 0.1 0"/>
<feBlend mode="normal" in2="BackgroundImageFix" result="effect1_dropShadow"/>
<feBlend mode="normal" in="SourceGraphic" in2="effect1_dropShadow" result="shape"/>
</filter>
</defs>
</svg>
