<svg width="349" height="200" viewBox="0 0 349 200" fill="none" xmlns="http://www.w3.org/2000/svg">
<path d="M0 0H349V200H0V0Z" fill="#09C676"/>
<path d="M79.4588 198.376C82.2722 196.02 83.9812 192.298 83.533 188.674C83.0848 185.05 80.309 181.718 76.7084 180.949C73.1078 180.179 69.0033 182.31 67.9097 185.796C67.3078 179.074 66.6142 172.071 63.0089 166.347C59.7444 161.164 54.0902 157.456 47.9624 156.792C41.8345 156.129 35.3826 158.635 31.5609 163.429C27.7392 168.223 26.8034 175.192 29.4801 180.696C31.4518 184.751 35.0846 187.769 38.8908 190.223C51.1899 198.089 65.9412 201.288 80.4304 199.231L79.4588 198.376Z" fill="#F2F2F2"/>
<path d="M37.6208 158.774C42.677 162.856 47.3156 167.421 51.4694 172.404C55.6239 177.382 59.2814 182.748 62.3907 188.426C64.1287 191.611 65.6899 194.887 67.0675 198.241C67.3483 198.923 66.2307 199.22 65.953 198.546C63.513 192.633 60.4942 186.972 56.94 181.643C53.4031 176.333 49.3549 171.376 44.8523 166.841C42.3056 164.278 39.6186 161.855 36.8035 159.584C36.2265 159.118 37.0485 158.312 37.6208 158.774V158.774Z" fill="white"/>
<path d="M247.352 13.3928H94.9867C94.4061 13.3935 93.8494 13.6224 93.4388 14.0293C93.0282 14.4363 92.7973 14.9881 92.7967 15.5636V117.9C92.7973 118.476 93.0282 119.028 93.4388 119.435C93.8494 119.842 94.4061 120.071 94.9867 120.071H247.352C247.932 120.071 248.489 119.842 248.899 119.435C249.31 119.028 249.541 118.476 249.542 117.9V15.5636C249.541 14.9881 249.31 14.4363 248.899 14.0293C248.489 13.6224 247.932 13.3935 247.352 13.3928V13.3928ZM248.916 117.9C248.916 118.312 248.751 118.706 248.458 118.997C248.164 119.287 247.766 119.451 247.352 119.451H94.9867C94.5719 119.451 94.1741 119.287 93.8808 118.997C93.5874 118.706 93.4226 118.312 93.4224 117.9V15.5636C93.4226 15.1524 93.5874 14.7581 93.8808 14.4674C94.1741 14.1766 94.5719 14.0132 94.9867 14.013H247.352C247.766 14.0132 248.164 14.1766 248.458 14.4674C248.751 14.7581 248.916 15.1524 248.916 15.5636V117.9Z" fill="#3F3D56"/>
<path d="M249.229 22.0884H93.1098V22.7086H249.229V22.0884Z" fill="#3F3D56"/>
<path d="M98.4281 19.9052C99.4649 19.9052 100.305 19.0721 100.305 18.0445C100.305 17.0169 99.4649 16.1838 98.4281 16.1838C97.3914 16.1838 96.551 17.0169 96.551 18.0445C96.551 19.0721 97.3914 19.9052 98.4281 19.9052Z" fill="#3F3D56"/>
<path d="M103.825 19.9052C104.862 19.9052 105.702 19.0721 105.702 18.0445C105.702 17.0169 104.862 16.1838 103.825 16.1838C102.788 16.1838 101.948 17.0169 101.948 18.0445C101.948 19.0721 102.788 19.9052 103.825 19.9052Z" fill="#3F3D56"/>
<path d="M109.222 19.9052C110.259 19.9052 111.1 19.0721 111.1 18.0445C111.1 17.0169 110.259 16.1838 109.222 16.1838C108.186 16.1838 107.345 17.0169 107.345 18.0445C107.345 19.0721 108.186 19.9052 109.222 19.9052Z" fill="#3F3D56"/>
<path d="M184.309 36.4961H158.029C157.448 36.4961 156.891 36.2674 156.48 35.8603C156.069 35.4532 155.839 34.9011 155.839 34.3253C155.839 33.7496 156.069 33.1974 156.48 32.7903C156.891 32.3832 157.448 32.1545 158.029 32.1545H184.309C184.89 32.1545 185.447 32.3832 185.858 32.7903C186.269 33.1974 186.499 33.7496 186.499 34.3253C186.499 34.9011 186.269 35.4532 185.858 35.8603C185.447 36.2674 184.89 36.4961 184.309 36.4961V36.4961Z" fill="#CCCCCC"/>
<path d="M202.299 47.0401H140.039C139.458 47.0401 138.901 46.8113 138.491 46.4042C138.08 45.9971 137.849 45.445 137.849 44.8693C137.849 44.2935 138.08 43.7414 138.491 43.3343C138.901 42.9272 139.458 42.6985 140.039 42.6985H202.299C202.88 42.6985 203.437 42.9272 203.848 43.3343C204.258 43.7414 204.489 44.2935 204.489 44.8693C204.489 45.445 204.258 45.9971 203.848 46.4042C203.437 46.8113 202.88 47.0401 202.299 47.0401Z" fill="#CCCCCC"/>
<path d="M220.972 111.838C218.612 111.838 216.305 111.144 214.343 109.845C212.38 108.545 210.851 106.698 209.948 104.537C209.045 102.376 208.809 99.998 209.269 97.7038C209.729 95.4095 210.866 93.3022 212.534 91.6481C214.203 89.9941 216.329 88.8677 218.644 88.4113C220.958 87.955 223.358 88.1892 225.538 89.0844C227.718 89.9795 229.582 91.4954 230.893 93.4404C232.204 95.3853 232.904 97.6719 232.904 100.011C232.9 103.147 231.642 106.153 229.405 108.37C227.168 110.587 224.135 111.835 220.972 111.838V111.838ZM220.972 88.9997C218.775 88.9997 216.627 89.6456 214.8 90.8555C212.973 92.0654 211.549 93.7852 210.708 95.7972C209.867 97.8093 209.647 100.023 210.076 102.159C210.505 104.295 211.563 106.257 213.116 107.797C214.67 109.337 216.649 110.386 218.804 110.811C220.959 111.236 223.193 111.018 225.223 110.184C227.253 109.351 228.988 107.939 230.209 106.129C231.429 104.318 232.081 102.189 232.081 100.011C232.077 97.0917 230.906 94.2929 228.823 92.2285C226.741 90.1642 223.917 89.0031 220.972 88.9997V88.9997Z" fill="#3F3D56"/>
<path d="M120.937 80.1623C118.577 80.1623 116.271 79.4687 114.308 78.1691C112.346 76.8696 110.817 75.0224 109.914 72.8613C109.011 70.7002 108.774 68.3222 109.235 66.028C109.695 63.7338 110.831 61.6264 112.5 59.9724C114.169 58.3183 116.295 57.1919 118.61 56.7356C120.924 56.2792 123.323 56.5134 125.504 57.4086C127.684 58.3037 129.547 59.8196 130.859 61.7646C132.17 63.7095 132.869 65.9962 132.869 68.3353C132.866 71.471 131.608 74.4772 129.371 76.6944C127.134 78.9116 124.101 80.1588 120.937 80.1623V80.1623ZM120.937 57.324C118.74 57.324 116.592 57.9698 114.766 59.1797C112.939 60.3897 111.515 62.1094 110.674 64.1215C109.833 66.1335 109.613 68.3475 110.042 70.4835C110.47 72.6195 111.528 74.5816 113.082 76.1215C114.636 77.6615 116.615 78.7102 118.77 79.1351C120.925 79.56 123.159 79.3419 125.189 78.5085C127.219 77.6751 128.954 76.2637 130.174 74.4529C131.395 72.6421 132.047 70.5132 132.047 68.3353C132.043 65.416 130.872 62.6171 128.789 60.5528C126.706 58.4885 123.883 57.3273 120.937 57.324V57.324Z" fill="#3F3D56"/>
<path d="M125.572 74.6051C125.26 74.6052 124.96 74.4823 124.739 74.2635C124.518 74.0447 124.393 73.7479 124.393 73.4382V66.8023C124.393 66.493 124.517 66.1964 124.738 65.9776C124.959 65.7589 125.258 65.6358 125.57 65.6355H125.572C125.884 65.6358 126.183 65.7589 126.404 65.9776C126.625 66.1964 126.749 66.493 126.749 66.8023V73.4382C126.749 73.7476 126.625 74.0442 126.404 74.2629C126.183 74.4817 125.884 74.6047 125.572 74.6051ZM122.498 74.6051C122.343 74.6066 122.188 74.5776 122.044 74.5198C121.899 74.4619 121.768 74.3762 121.657 74.2678C121.546 74.1594 121.457 74.0302 121.397 73.8879C121.336 73.7455 121.305 73.5927 121.304 73.4382V69.8637C121.305 69.5543 121.429 69.2577 121.65 69.039C121.87 68.8203 122.169 68.6973 122.482 68.6969H122.498C122.811 68.6973 123.11 68.8203 123.33 69.039C123.551 69.2577 123.675 69.5543 123.676 69.8637V73.4382C123.675 73.7476 123.551 74.0442 123.33 74.2629C123.11 74.4817 122.811 74.6047 122.498 74.6051V74.6051ZM119.395 74.6051C119.083 74.6052 118.783 74.4823 118.562 74.2635C118.341 74.0447 118.216 73.7479 118.216 73.4382V63.2328C118.216 62.9234 118.34 62.6268 118.561 62.4081C118.782 62.1893 119.081 62.0663 119.393 62.0659H119.395C119.707 62.0663 120.006 62.1893 120.227 62.4081C120.448 62.6268 120.572 62.9234 120.572 63.2328V73.4382C120.572 73.7476 120.448 74.0442 120.227 74.2629C120.006 74.4817 119.707 74.6047 119.395 74.6051V74.6051ZM116.304 74.6051C116.149 74.6053 115.996 74.5752 115.853 74.5165C115.71 74.4579 115.58 74.3719 115.47 74.2635C115.361 74.155 115.274 74.0262 115.215 73.8845C115.156 73.7427 115.125 73.5908 115.125 73.4374L115.127 71.9046C115.127 71.5951 115.251 71.2984 115.472 71.0797C115.693 70.861 115.992 70.7382 116.304 70.7383C116.616 70.7385 116.916 70.8615 117.136 71.0804C117.357 71.2993 117.481 71.5961 117.481 71.9056V73.4382C117.48 73.7476 117.356 74.0442 117.136 74.2629C116.915 74.4817 116.616 74.6047 116.304 74.6051V74.6051Z" fill="#6C63FF"/>
<path d="M301.943 199.245C299.583 199.245 297.276 198.552 295.314 197.252C293.352 195.953 291.822 194.105 290.919 191.944C290.016 189.783 289.78 187.405 290.24 185.111C290.701 182.817 291.837 180.709 293.506 179.055C295.174 177.401 297.3 176.275 299.615 175.819C301.93 175.362 304.329 175.596 306.509 176.492C308.689 177.387 310.553 178.903 311.864 180.848C313.175 182.793 313.875 185.079 313.875 187.418C313.871 190.554 312.613 193.56 310.376 195.777C308.139 197.995 305.106 199.242 301.943 199.245ZM301.943 176.407C299.746 176.407 297.598 177.053 295.771 178.263C293.944 179.473 292.52 181.192 291.679 183.204C290.839 185.217 290.619 187.431 291.047 189.567C291.476 191.703 292.534 193.665 294.088 195.205C295.641 196.744 297.621 197.793 299.776 198.218C301.931 198.643 304.164 198.425 306.194 197.591C308.224 196.758 309.959 195.347 311.18 193.536C312.4 191.725 313.052 189.596 313.052 187.418C313.049 184.499 311.877 181.7 309.794 179.636C307.712 177.571 304.888 176.41 301.943 176.407V176.407Z" fill="#3F3D56"/>
<path d="M305.232 185.366L302.906 188.891C303.093 189.116 303.194 189.399 303.193 189.69C303.193 190.026 303.058 190.348 302.818 190.586C302.578 190.823 302.252 190.957 301.913 190.957C301.574 190.957 301.249 190.823 301.009 190.586C300.769 190.348 300.634 190.026 300.633 189.69C300.634 189.608 300.642 189.527 300.656 189.446L299.12 188.56C298.922 188.75 298.667 188.872 298.393 188.906C298.119 188.94 297.842 188.886 297.602 188.75L295.969 190.267V191.779C295.969 192.078 296.089 192.365 296.302 192.576C296.515 192.788 296.804 192.908 297.106 192.909H306.777C307.079 192.908 307.368 192.788 307.582 192.577C307.795 192.365 307.916 192.078 307.917 191.779V186.172L306.355 185.142C306.198 185.262 306.015 185.346 305.82 185.384C305.625 185.423 305.424 185.417 305.232 185.366H305.232Z" fill="#6C63FF"/>
<path d="M298.233 186.388C298.573 186.388 298.898 186.522 299.138 186.76C299.378 186.998 299.513 187.321 299.513 187.657V187.657V187.82L301.115 188.709C301.343 188.523 301.63 188.421 301.926 188.422C302.019 188.422 302.112 188.432 302.203 188.451L304.534 184.874C304.418 184.712 304.342 184.525 304.312 184.328C304.282 184.131 304.3 183.93 304.364 183.741C304.427 183.552 304.535 183.381 304.678 183.241C304.821 183.102 304.995 182.997 305.186 182.937C305.378 182.876 305.581 182.862 305.779 182.894C305.977 182.926 306.165 183.004 306.327 183.121C306.489 183.239 306.62 183.393 306.711 183.571C306.802 183.748 306.849 183.944 306.848 184.143C306.848 184.244 306.837 184.345 306.814 184.443L307.917 185.173V183.058C307.916 182.758 307.795 182.472 307.582 182.26C307.368 182.048 307.079 181.929 306.777 181.928H297.106C296.804 181.929 296.515 182.049 296.302 182.26C296.089 182.472 295.969 182.758 295.969 183.058V189.118L297.035 188.105C296.963 187.914 296.94 187.708 296.966 187.506C296.992 187.303 297.068 187.11 297.185 186.943C297.303 186.775 297.46 186.639 297.642 186.544C297.825 186.45 298.028 186.401 298.233 186.401V186.388Z" fill="#6C63FF"/>
<path d="M171.642 80.1623C169.282 80.1623 166.975 79.4687 165.013 78.1691C163.051 76.8696 161.522 75.0224 160.619 72.8613C159.716 70.7002 159.479 68.3222 159.94 66.028C160.4 63.7338 161.536 61.6264 163.205 59.9724C164.874 58.3183 167 57.1919 169.314 56.7356C171.629 56.2792 174.028 56.5134 176.208 57.4086C178.389 58.3037 180.252 59.8196 181.563 61.7646C182.874 63.7095 183.574 65.9962 183.574 68.3353C183.571 71.471 182.312 74.4772 180.076 76.6944C177.839 78.9116 174.806 80.1588 171.642 80.1623V80.1623ZM171.642 57.324C169.445 57.324 167.297 57.9698 165.47 59.1797C163.644 60.3897 162.22 62.1094 161.379 64.1215C160.538 66.1335 160.318 68.3475 160.747 70.4835C161.175 72.6195 162.233 74.5816 163.787 76.1215C165.341 77.6615 167.32 78.7102 169.475 79.1351C171.63 79.56 173.864 79.3419 175.894 78.5085C177.923 77.6751 179.658 76.2637 180.879 74.4529C182.1 72.6421 182.751 70.5132 182.751 68.3353C182.748 65.416 181.577 62.6171 179.494 60.5528C177.411 58.4885 174.588 57.3273 171.642 57.324V57.324Z" fill="#3F3D56"/>
<path d="M165.303 72.6228C165.132 72.6227 164.964 72.5723 164.821 72.4779C164.679 72.3835 164.568 72.2493 164.502 72.0924C164.436 71.9354 164.419 71.7626 164.452 71.5959C164.485 71.4291 164.568 71.2759 164.689 71.1555L169.098 66.7733C169.166 66.7047 169.248 66.6503 169.338 66.6133C169.428 66.5762 169.524 66.5573 169.622 66.5575H169.622C169.72 66.5572 169.816 66.5761 169.906 66.613C169.996 66.6499 170.078 66.7041 170.146 66.7725L172.191 68.7993C172.232 68.8403 172.281 68.8729 172.335 68.8951C172.389 68.9172 172.447 68.9286 172.505 68.9284H172.506C172.564 68.9285 172.622 68.9172 172.676 68.895C172.73 68.8728 172.779 68.8402 172.82 68.7991L175.707 65.9329C175.721 65.9193 175.731 65.9031 175.739 65.8852C175.746 65.8674 175.75 65.8483 175.75 65.829C175.75 65.8097 175.746 65.7906 175.739 65.7728C175.731 65.755 175.72 65.7388 175.707 65.7252L174.773 64.8009C174.71 64.7393 174.668 64.6608 174.651 64.5753C174.633 64.4898 174.642 64.4011 174.676 64.3205C174.709 64.24 174.766 64.1711 174.84 64.1226C174.913 64.0742 174.999 64.0483 175.087 64.0483H178.404C178.522 64.0485 178.635 64.0949 178.718 64.1776C178.802 64.2602 178.849 64.3722 178.849 64.489V67.7753C178.849 67.8625 178.823 67.9477 178.774 68.0202C178.725 68.0927 178.656 68.1492 178.574 68.1825C178.493 68.2159 178.404 68.2246 178.317 68.2076C178.231 68.1906 178.152 68.1487 178.09 68.087L177.154 67.1597C177.141 67.1461 177.124 67.1353 177.106 67.1279C177.088 67.1205 177.069 67.1167 177.05 67.1167C177.03 67.1167 177.011 67.1205 176.993 67.1279C176.975 67.1353 176.959 67.1461 176.945 67.1597L173.036 71.0319C172.967 71.1003 172.885 71.1545 172.795 71.1914C172.706 71.2283 172.609 71.2472 172.512 71.2469H172.512C172.414 71.2471 172.318 71.2283 172.228 71.1913C172.138 71.1544 172.056 71.1001 171.988 71.0317L169.942 69.004C169.857 68.9239 169.745 68.8792 169.628 68.8792C169.511 68.8792 169.398 68.9239 169.313 69.004L165.917 72.3707C165.836 72.4509 165.741 72.5144 165.635 72.5577C165.53 72.6009 165.417 72.6231 165.303 72.6228V72.6228Z" fill="#6C63FF"/>
<path d="M171.642 111.174C169.282 111.174 166.975 110.48 165.013 109.18C163.051 107.881 161.522 106.034 160.619 103.873C159.716 101.711 159.479 99.3334 159.94 97.0392C160.4 94.745 161.536 92.6376 163.205 90.9836C164.874 89.3296 167 88.2031 169.314 87.7468C171.629 87.2904 174.028 87.5247 176.208 88.4198C178.389 89.315 180.252 90.8309 181.563 92.7758C182.874 94.7208 183.574 97.0074 183.574 99.3466C183.571 102.482 182.312 105.488 180.076 107.706C177.839 109.923 174.806 111.17 171.642 111.174V111.174Z" fill="#E6E6E6"/>
<path d="M221.075 79.2322C218.715 79.2322 216.408 78.5385 214.446 77.239C212.484 75.9394 210.954 74.0923 210.051 71.9312C209.148 69.7701 208.912 67.392 209.372 65.0978C209.833 62.8036 210.969 60.6962 212.638 59.0422C214.306 57.3881 216.432 56.2617 218.747 55.8054C221.062 55.349 223.461 55.5832 225.641 56.4784C227.821 57.3736 229.685 58.8895 230.996 60.8344C232.307 62.7794 233.007 65.066 233.007 67.4052C233.003 70.5408 231.745 73.547 229.508 75.7642C227.271 77.9814 224.238 79.2286 221.075 79.2322V79.2322Z" fill="#E6E6E6"/>
<path d="M120.937 87.5193C118.889 87.5219 116.876 88.0451 115.09 89.0388C117.671 89.2649 120.091 90.378 121.932 92.1855C123.773 93.9929 124.919 96.3812 125.171 98.9373C125.423 101.493 124.767 104.057 123.314 106.184C121.862 108.311 119.705 109.868 117.218 110.585C117.684 110.739 118.159 110.862 118.641 110.954C119.397 111.102 120.167 111.176 120.937 111.175C124.102 111.175 127.137 109.928 129.375 107.71C131.613 105.492 132.87 102.484 132.87 99.347C132.87 96.2101 131.613 93.2017 129.375 90.9835C127.137 88.7654 124.102 87.5193 120.937 87.5193V87.5193Z" fill="#E6E6E6"/>
<path d="M116.41 88.4064C115.654 88.2563 114.885 88.1815 114.114 88.1831C111.046 88.18 108.094 89.3471 105.871 91.4425C103.647 93.538 102.323 96.4011 102.171 99.4384C102.02 102.476 103.053 105.454 105.057 107.757C107.061 110.06 109.882 111.51 112.936 111.807C115.989 112.103 119.04 111.224 121.458 109.352C123.875 107.479 125.473 104.756 125.919 101.747C126.366 98.7387 125.628 95.675 123.858 93.1913C122.087 90.7076 119.421 88.9942 116.41 88.4064V88.4064ZM117.218 110.586C115.69 111.026 114.084 111.136 112.509 110.908C110.934 110.68 109.427 110.12 108.09 109.264C106.753 108.409 105.617 107.279 104.759 105.951C103.9 104.622 103.34 103.127 103.115 101.565C102.891 100.003 103.007 98.4122 103.457 96.899C103.907 95.3859 104.679 93.9862 105.722 92.7947C106.765 91.6031 108.054 90.6476 109.502 89.9927C110.95 89.3378 112.523 88.9988 114.114 88.9987C114.443 88.9987 114.768 89.0142 115.09 89.039C117.671 89.2651 120.091 90.3782 121.932 92.1857C123.773 93.9931 124.919 96.3815 125.171 98.9376C125.423 101.494 124.767 104.057 123.314 106.184C121.862 108.311 119.706 109.868 117.218 110.586V110.586Z" fill="#3F3D56"/>
<path d="M121.062 97.9288C120.667 96.2153 119.603 94.727 118.102 93.7906C116.602 92.8542 114.788 92.5462 113.059 92.9343C112.89 92.9725 112.715 93.0195 112.561 93.0665L114.155 100.012L121.162 98.4341C121.133 98.2725 121.1 98.0962 121.062 97.9288Z" fill="#6C63FF"/>
<path d="M120.383 99.6533L113.373 101.231L111.781 94.2856C110.559 94.6605 109.471 95.3748 108.646 96.344C107.821 97.3132 107.294 98.4965 107.126 99.7537C106.959 101.011 107.159 102.289 107.703 103.437C108.246 104.585 109.11 105.555 110.193 106.231C111.275 106.907 112.531 107.261 113.81 107.251C115.089 107.241 116.339 106.868 117.411 106.176C118.483 105.484 119.332 104.501 119.858 103.345C120.383 102.189 120.564 100.908 120.377 99.6533H120.383Z" fill="#6C63FF"/>
<path d="M243.561 155.254C241.201 155.254 238.894 154.56 236.932 153.261C234.969 151.961 233.44 150.114 232.537 147.953C231.634 145.792 231.398 143.414 231.858 141.12C232.318 138.825 233.455 136.718 235.124 135.064C236.792 133.41 238.918 132.283 241.233 131.827C243.547 131.371 245.947 131.605 248.127 132.5C250.307 133.395 252.171 134.911 253.482 136.856C254.793 138.801 255.493 141.088 255.493 143.427C255.489 146.563 254.231 149.569 251.994 151.786C249.757 154.003 246.724 155.25 243.561 155.254V155.254ZM243.561 132.416C241.364 132.416 239.216 133.061 237.389 134.271C235.562 135.481 234.138 137.201 233.297 139.213C232.456 141.225 232.236 143.439 232.665 145.575C233.094 147.711 234.152 149.673 235.705 151.213C237.259 152.753 239.238 153.802 241.393 154.227C243.548 154.652 245.782 154.433 247.812 153.6C249.842 152.767 251.577 151.355 252.798 149.544C254.018 147.734 254.67 145.605 254.67 143.427C254.666 140.507 253.495 137.709 251.412 135.644C249.33 133.58 246.506 132.419 243.561 132.416V132.416Z" fill="#3F3D56"/>
<path d="M248.709 148.166C248.272 148.166 247.845 148.038 247.482 147.798C247.119 147.557 246.835 147.216 246.668 146.816C246.5 146.416 246.456 145.976 246.541 145.551C246.626 145.127 246.836 144.736 247.145 144.43C247.454 144.124 247.847 143.915 248.275 143.83C248.703 143.746 249.147 143.789 249.551 143.954C249.955 144.12 250.3 144.4 250.543 144.76C250.786 145.119 250.915 145.542 250.916 145.975C250.916 146.556 250.683 147.112 250.27 147.523C249.856 147.934 249.294 148.165 248.709 148.166ZM243.56 148.166C242.975 148.165 242.414 147.934 242.001 147.524C241.587 147.114 241.354 146.558 241.354 145.978V140.875C241.354 140.295 241.587 139.74 242.001 139.33C242.415 138.921 242.976 138.69 243.56 138.69C244.145 138.69 244.706 138.921 245.12 139.33C245.534 139.74 245.766 140.295 245.767 140.875V145.978C245.766 146.558 245.534 147.114 245.12 147.524C244.706 147.934 244.145 148.165 243.56 148.166V148.166ZM238.413 148.166C237.828 148.165 237.267 147.934 236.853 147.524C236.439 147.113 236.206 146.557 236.205 145.977V143.938C236.205 143.357 236.438 142.801 236.852 142.39C237.266 141.98 237.828 141.749 238.413 141.749C238.999 141.749 239.561 141.98 239.975 142.39C240.389 142.801 240.622 143.357 240.622 143.938V145.977C240.621 146.557 240.388 147.113 239.974 147.524C239.56 147.934 238.999 148.165 238.413 148.166V148.166Z" fill="#6C63FF"/>
<path d="M92.2575 196.488L95.8946 196.079L96.0335 181.98L90.6657 182.584L92.2575 196.488Z" fill="#A0616A"/>
<path d="M103.291 198.637L91.8612 199.923L91.3601 195.546L98.374 194.757C99.5453 194.625 100.721 194.96 101.644 195.688C102.566 196.415 103.158 197.477 103.291 198.637V198.637L103.291 198.637Z" fill="#2F2E41"/>
<path d="M54.8547 196.263L58.5149 196.263L60.256 182.269L54.8541 182.269L54.8547 196.263Z" fill="#A0616A"/>
<path d="M65.5741 199.631L54.0706 199.632L54.0704 195.226L61.1294 195.226C62.3081 195.226 63.4386 195.69 64.2722 196.516C65.1057 197.342 65.574 198.463 65.5741 199.631V199.631L65.5741 199.631Z" fill="#2F2E41"/>
<path d="M81.116 133.684L83.2059 140.422L94.551 164.756L97.5365 187.839L90.6698 188.134L86.49 166.828L72.1594 151.439L59.6201 191.686L53.9476 191.094C53.9476 191.094 58.7244 139.01 65.2926 133.684C65.2926 133.684 76.0406 128.653 81.116 133.684Z" fill="#2F2E41"/>
<path d="M71.8454 104.61C75.8952 104.61 79.1782 101.356 79.1782 97.3415C79.1782 93.3274 75.8952 90.0732 71.8454 90.0732C67.7956 90.0732 64.5125 93.3274 64.5125 97.3415C64.5125 101.356 67.7956 104.61 71.8454 104.61Z" fill="#A0616A"/>
<path d="M81.8623 135.015C81.8623 135.015 82.758 104.831 70.2187 106.902C57.6794 108.974 62.9041 138.123 62.9041 138.123C62.9041 138.123 65.5911 143.449 72.1593 137.531C78.7275 131.612 81.8623 135.015 81.8623 135.015Z" fill="#6C63FF"/>
<path d="M107.822 109.891C107.586 110.258 107.273 110.57 106.903 110.804C106.533 111.038 106.115 111.188 105.68 111.245C105.245 111.302 104.803 111.264 104.384 111.133C103.965 111.002 103.581 110.781 103.258 110.487L93.8652 115.503L94.357 110.029L103.201 106.105C103.735 105.6 104.439 105.306 105.177 105.28C105.916 105.254 106.638 105.497 107.208 105.964C107.777 106.43 108.154 107.088 108.267 107.812C108.381 108.536 108.222 109.275 107.822 109.891L107.822 109.891Z" fill="#A0616A"/>
<path d="M71.7753 110.587L87.0215 113.142L100.684 106.749L102.759 111.145L87.8018 120.588C87.8018 120.588 71.967 121.654 68.306 117.515C66.9332 115.963 66.7762 114.55 67.1163 113.39C67.4142 112.44 68.0523 111.631 68.9104 111.115C69.7685 110.598 70.7874 110.411 71.7753 110.587V110.587Z" fill="#6C63FF"/>
<path d="M70.9732 104.979C71.0082 104.947 71.0354 104.909 71.0527 104.865C71.07 104.822 71.0768 104.775 71.0726 104.729C71.0685 104.682 71.0535 104.637 71.0288 104.598C71.0041 104.558 70.9704 104.525 70.9304 104.5C70.2793 104.1 69.7488 103.534 69.3946 102.861C69.0404 102.188 68.8757 101.433 68.9178 100.675C68.9598 99.9166 69.207 99.1838 69.6335 98.5532C70.0599 97.9226 70.6499 97.4174 71.3413 97.0909C73.4972 96.072 76.4185 96.8646 78.0122 94.9068C78.3363 94.4879 78.5655 94.0047 78.6842 93.4901C78.8028 92.9754 78.8081 92.4415 78.6997 91.9247C78.3558 90.0755 76.9533 88.7022 75.3827 87.7611C73.4533 86.605 71.2357 86.0076 68.9813 86.0367C66.7269 86.0657 64.5258 86.7201 62.6274 87.9255C60.7289 89.131 59.209 90.8394 58.2399 92.8572C57.2709 94.8749 56.8913 97.1214 57.1442 99.3421C57.347 101.122 57.901 103.117 56.8334 104.562C55.8937 105.834 54.1201 106.073 52.562 106.389C49.2203 107.066 45.9963 108.63 43.7285 111.155C41.4607 113.681 40.2509 117.224 40.9347 120.537C41.6184 123.849 44.3615 126.76 47.733 127.274C50.4772 127.692 53.3108 126.536 55.326 124.643C57.3412 122.75 58.6149 120.194 59.4184 117.56C60.372 114.433 60.7482 111.064 62.4699 108.279C64.1547 105.553 67.7853 103.6 70.6308 105.019C70.6854 105.047 70.7473 105.059 70.8084 105.051C70.8695 105.044 70.9269 105.019 70.9732 104.979V104.979Z" fill="#2F2E41"/>
<path d="M283.473 158.778C283.87 158.582 284.219 158.303 284.495 157.959C284.771 157.615 284.968 157.216 285.071 156.788C285.174 156.361 285.182 155.917 285.093 155.486C285.005 155.056 284.822 154.65 284.558 154.297L291.623 115.541L285.03 115.455L280.123 153.78C279.555 154.259 279.183 154.928 279.079 155.66C278.975 156.393 279.146 157.138 279.558 157.754C279.971 158.37 280.598 158.814 281.32 159.003C282.041 159.192 282.807 159.112 283.473 158.778H283.473Z" fill="#FFB8B8"/>
<path d="M263.011 156.941L260.508 168.725L260.821 195.084H265.514L267.704 169.345L271.145 158.491L263.011 156.941Z" fill="#FFB8B8"/>
<path d="M278.521 157.825L276.018 169.609L276.331 195.969H281.024L283.214 170.229L286.656 159.376L278.521 157.825Z" fill="#FFB8B8"/>
<path d="M259.182 194.785L266.58 194.766L266.591 199.383L254.536 199.413C254.535 198.807 254.654 198.206 254.886 197.645C255.119 197.085 255.461 196.575 255.892 196.145C256.324 195.715 256.836 195.374 257.401 195.141C257.965 194.907 258.571 194.786 259.182 194.785V194.785Z" fill="#2F2E41"/>
<path d="M274.807 195.283L282.205 195.265L282.216 199.882L270.161 199.912C270.16 199.305 270.279 198.705 270.511 198.144C270.744 197.583 271.086 197.073 271.517 196.644C271.949 196.214 272.461 195.873 273.026 195.639C273.59 195.406 274.196 195.285 274.807 195.283V195.283Z" fill="#2F2E41"/>
<path d="M274.431 99.1493C278.675 99.1493 282.115 95.7392 282.115 91.5327C282.115 87.3261 278.675 83.916 274.431 83.916C270.187 83.916 266.746 87.3261 266.746 91.5327C266.746 95.7392 270.187 99.1493 274.431 99.1493Z" fill="#FFB8B8"/>
<path d="M291.412 110.372C289.074 106.736 281.734 98.1118 270.811 103.062C269.951 103.456 269.232 104.103 268.753 104.914C268.274 105.725 268.057 106.662 268.131 107.599C268.659 114.514 269.326 132.133 263.637 142.676C263.637 142.676 280.219 147.637 289.292 142.986C289.292 142.986 286.163 122.208 289.292 118.177C290.335 116.888 291.18 115.454 291.799 113.92C292.016 113.339 292.094 112.717 292.027 112.101C291.96 111.485 291.75 110.893 291.412 110.372V110.372Z" fill="#3F3D56"/>
<path d="M288.353 110.114L291.424 111.382C291.628 111.466 291.804 111.607 291.931 111.787C292.057 111.967 292.129 112.179 292.139 112.398L292.421 119.107L285.538 118.487L288.353 110.114Z" fill="#3F3D56"/>
<path d="M264.888 142.055C264.888 142.055 258.005 154.77 259.257 166.554L268.956 168.105L275.839 151.669L274.274 168.415L284.286 168.725C284.286 168.725 290.856 144.536 288.666 142.365L264.888 142.055Z" fill="#2F2E41"/>
<path d="M255.113 143.19C255.551 143.124 255.969 142.963 256.337 142.719C256.706 142.475 257.016 142.154 257.246 141.778C257.476 141.403 257.62 140.982 257.668 140.545C257.716 140.108 257.667 139.666 257.524 139.25L271.487 113.161L265.235 111.085L253.461 137.417C252.772 137.701 252.212 138.226 251.887 138.892C251.563 139.558 251.496 140.319 251.699 141.031C251.903 141.742 252.363 142.355 252.992 142.753C253.621 143.151 254.376 143.307 255.113 143.19H255.113Z" fill="#FFB8B8"/>
<path d="M273.393 106.098L270.807 104.951C270.807 104.951 268.614 103.604 266.671 106.569C264.727 109.533 262.628 116.031 262.628 116.031L271.066 118.384L273.393 106.098Z" fill="#3F3D56"/>
<path d="M275.662 95.1995C275.938 94.25 275.858 92.9652 274.929 92.606C274.445 92.4189 273.905 92.5665 273.389 92.619C272.378 92.7174 271.366 92.4413 270.548 91.8438C269.587 91.136 268.994 90.054 268.43 89.0072L267.578 87.4239C267.388 87.0938 267.227 86.7487 267.094 86.3921C266.62 84.9944 267.135 83.3761 268.189 82.3354C269.291 81.3196 270.74 80.7563 272.245 80.7593C273.738 80.7699 275.212 81.0831 276.578 81.6795C279.007 82.6606 281.206 84.125 283.04 85.9823C284.239 87.198 285.33 88.7817 285.08 90.4634C284.885 91.7725 283.922 92.8208 283.004 93.7815L279.674 97.2662C279.084 97.8833 278.454 98.5256 277.63 98.7629C276.807 99.0002 275.746 98.6516 275.521 97.8312C275.521 97.8312 275.386 96.149 275.662 95.1995Z" fill="#2F2E41"/>
<path d="M348.63 200H0.370095C0.27194 200 0.177805 199.953 0.108398 199.869C0.0389918 199.786 0 199.672 0 199.554C0 199.435 0.0389918 199.322 0.108398 199.238C0.177805 199.154 0.27194 199.107 0.370095 199.107H348.63C348.728 199.107 348.822 199.154 348.892 199.238C348.961 199.322 349 199.435 349 199.554C349 199.672 348.961 199.786 348.892 199.869C348.822 199.953 348.728 200 348.63 200Z" fill="#3F3D56"/>
<path d="M225.352 104.973H216.591C216.342 104.973 216.104 104.875 215.928 104.7C215.752 104.526 215.653 104.289 215.653 104.043C215.653 103.796 215.752 103.559 215.928 103.385C216.104 103.21 216.342 103.112 216.591 103.112H225.352C225.6 103.112 225.839 103.21 226.015 103.385C226.191 103.559 226.29 103.796 226.29 104.043C226.29 104.289 226.191 104.526 226.015 104.7C225.839 104.875 225.6 104.973 225.352 104.973V104.973Z" fill="#6C63FF"/>
<path d="M225.352 100.941H216.591C216.342 100.941 216.104 100.843 215.928 100.669C215.752 100.495 215.653 100.258 215.653 100.011C215.653 99.7644 215.752 99.5278 215.928 99.3533C216.104 99.1788 216.342 99.0808 216.591 99.0808H225.352C225.6 99.0808 225.839 99.1788 226.015 99.3533C226.191 99.5278 226.29 99.7644 226.29 100.011C226.29 100.258 226.191 100.495 226.015 100.669C225.839 100.843 225.6 100.941 225.352 100.941V100.941Z" fill="#6C63FF"/>
<path d="M225.352 96.91H216.591C216.342 96.91 216.104 96.812 215.928 96.6375C215.752 96.463 215.653 96.2264 215.653 95.9796C215.653 95.7329 215.752 95.4963 215.928 95.3218C216.104 95.1473 216.342 95.0493 216.591 95.0493H225.352C225.6 95.0493 225.839 95.1473 226.015 95.3218C226.191 95.4963 226.29 95.7329 226.29 95.9796C226.29 96.2264 226.191 96.463 226.015 96.6375C225.839 96.812 225.6 96.91 225.352 96.91V96.91Z" fill="#6C63FF"/>
<path d="M177.902 1.86067H169.142C168.893 1.86067 168.655 1.76265 168.479 1.58818C168.302 1.41371 168.204 1.17707 168.204 0.930333C168.204 0.683593 168.302 0.446964 168.479 0.272492C168.655 0.098021 168.893 0 169.142 0H177.902C178.151 0 178.39 0.098021 178.566 0.272492C178.742 0.446964 178.841 0.683593 178.841 0.930333C178.841 1.17707 178.742 1.41371 178.566 1.58818C178.39 1.76265 178.151 1.86067 177.902 1.86067V1.86067Z" fill="#6C63FF"/>
</svg>
