<svg width="279" height="60" viewBox="0 0 279 60" fill="none" xmlns="http://www.w3.org/2000/svg">
<path d="M98.4977 34.5582L96.8345 39.3024H96.6959C96.4187 38.2326 95.9105 36.6047 95.0789 34.6512L86.1624 12.0931H77.4307V48.0466H83.2056V25.8605C83.2056 24.4652 83.2056 22.8838 83.1594 20.9303C83.1132 19.9535 83.0208 19.2093 82.9746 18.6512H83.1132C83.3904 20.0466 83.7138 21.0698 83.9448 21.721L94.6631 47.9535H98.7287L109.355 21.4884C109.586 20.8838 109.817 19.6745 110.048 18.6512H110.186C110.048 21.3024 109.955 23.6745 109.909 25.1163V47.907H116.054V12H107.645L98.4977 34.5582ZM121.875 22.1396H127.881V47.907H121.875V22.1396ZM124.924 11.2559C123.908 11.2559 123.076 11.6279 122.383 12.2791C121.69 12.9303 121.32 13.7675 121.32 14.7907C121.32 15.7675 121.69 16.6047 122.383 17.2559C123.076 17.907 123.908 18.2326 124.924 18.2326C125.94 18.2326 126.818 17.8605 127.465 17.2559C128.158 16.6047 128.528 15.7675 128.528 14.7907C128.528 13.814 128.158 12.9768 127.465 12.2791C126.864 11.6279 125.987 11.2559 124.924 11.2559ZM149.179 21.907C148.07 21.6745 146.915 21.5349 145.806 21.5349C143.08 21.5349 140.586 22.1396 138.507 23.3489C136.428 24.5582 134.764 26.2326 133.702 28.3256C132.593 30.4652 132.039 32.9303 132.039 35.7675C132.039 38.2326 132.593 40.4186 133.656 42.4186C134.718 44.3721 136.197 45.9535 138.183 47.0233C140.077 48.0931 142.295 48.6512 144.79 48.6512C147.654 48.6512 150.103 48.0466 152.043 46.9303L152.089 46.8838V41.3024L151.858 41.4884C150.981 42.1396 149.964 42.6977 148.948 43.0233C147.885 43.3954 146.915 43.5814 146.083 43.5814C143.681 43.5814 141.787 42.8838 140.447 41.3489C139.061 39.8605 138.368 37.814 138.368 35.2559C138.368 32.6047 139.061 30.5117 140.493 28.9768C141.925 27.4419 143.82 26.6512 146.13 26.6512C148.07 26.6512 150.057 27.3024 151.858 28.6047L152.089 28.7907V22.8838L152.043 22.8372C151.258 22.5117 150.38 22.1396 149.179 21.907ZM168.998 21.721C167.52 21.721 166.134 22.1861 164.933 23.1628C163.916 24 163.223 25.2093 162.623 26.6512H162.577V22.1396H156.571V47.907H162.577V34.7442C162.577 32.5117 163.039 30.6512 164.055 29.3024C165.071 27.907 166.365 27.2093 167.936 27.2093C168.49 27.2093 169.045 27.3489 169.738 27.4419C170.384 27.6279 170.846 27.814 171.17 28.0466L171.401 28.2326V22.1861L171.262 22.1396C170.846 21.8605 170.015 21.721 168.998 21.721ZM185.353 21.5814C181.149 21.5814 177.776 22.8373 175.42 25.3024C173.018 27.7675 171.863 31.1628 171.863 35.4419C171.863 39.4419 173.064 42.6977 175.374 45.0698C177.684 47.3954 180.826 48.6047 184.753 48.6047C188.864 48.6047 192.144 47.3489 194.501 44.8373C196.903 42.3256 198.058 38.9768 198.058 34.8373C198.058 30.7442 196.949 27.4884 194.685 25.1163C192.514 22.7442 189.326 21.5814 185.353 21.5814ZM190.158 41.3954C189.049 42.8373 187.294 43.5349 185.122 43.5349C182.951 43.5349 181.195 42.8373 179.948 41.3024C178.7 39.8605 178.1 37.7675 178.1 35.1163C178.1 32.3721 178.747 30.2791 179.948 28.7907C181.195 27.3024 182.905 26.5582 185.076 26.5582C187.201 26.5582 188.864 27.2559 190.065 28.6977C191.267 30.1396 191.913 32.2326 191.913 34.9768C191.821 37.7675 191.313 39.9535 190.158 41.3954ZM211.456 32.8373C209.562 32.0466 208.361 31.4419 207.806 30.9303C207.344 30.4652 207.113 29.814 207.113 28.9768C207.113 28.2791 207.39 27.5814 208.083 27.1163C208.776 26.6512 209.562 26.4186 210.717 26.4186C211.733 26.4186 212.796 26.6047 213.812 26.8838C214.829 27.1628 215.753 27.5814 216.492 28.1396L216.723 28.3256V22.6512L216.584 22.6047C215.891 22.3256 214.967 22.0466 213.858 21.814C212.75 21.6279 211.733 21.5349 210.902 21.5349C208.037 21.5349 205.681 22.2326 203.833 23.7675C201.985 25.2093 201.107 27.1628 201.107 29.4419C201.107 30.6512 201.292 31.721 201.708 32.6047C202.124 33.4884 202.724 34.3256 203.556 35.0233C204.387 35.6745 205.589 36.4186 207.252 37.1163C208.638 37.721 209.7 38.1861 210.347 38.5582C210.994 38.9303 211.41 39.3489 211.733 39.6745C211.964 40.0466 212.103 40.5117 212.103 41.1163C212.103 42.8373 210.809 43.6745 208.176 43.6745C207.159 43.6745 206.097 43.4884 204.849 43.0698C203.602 42.6512 202.447 42.0466 201.477 41.3489L201.246 41.1628V47.0698L201.384 47.1163C202.262 47.5349 203.325 47.814 204.618 48.1396C205.912 48.3721 207.067 48.5582 208.083 48.5582C211.179 48.5582 213.72 47.8605 215.522 46.3256C217.37 44.8373 218.34 42.9303 218.34 40.4652C218.34 38.7442 217.878 37.2093 216.861 36.0466C215.522 34.9303 213.858 33.7675 211.456 32.8373ZM234.186 21.5814C229.982 21.5814 226.609 22.8373 224.253 25.3024C221.897 27.7675 220.696 31.1628 220.696 35.4419C220.696 39.4419 221.897 42.6977 224.207 45.0698C226.517 47.3954 229.659 48.6047 233.586 48.6047C237.697 48.6047 240.978 47.3489 243.334 44.8373C245.736 42.3256 246.891 38.9768 246.891 34.8373C246.891 30.7442 245.782 27.4884 243.519 25.1163C241.347 22.7442 238.159 21.5814 234.186 21.5814ZM238.945 41.3954C237.836 42.8373 236.08 43.5349 233.909 43.5349C231.691 43.5349 229.982 42.8373 228.735 41.3024C227.487 39.8605 226.887 37.7675 226.887 35.1163C226.887 32.3721 227.533 30.2791 228.735 28.7907C229.982 27.3024 231.691 26.5582 233.863 26.5582C235.942 26.5582 237.651 27.2559 238.852 28.6977C240.054 30.1396 240.7 32.2326 240.7 34.9768C240.7 37.7675 240.1 39.9535 238.945 41.3954ZM279 27.1163V22.1396H272.948V14.5117L272.763 14.5582L267.034 16.2791L266.896 16.3256V22.1396H257.84V18.8838C257.84 17.3954 258.21 16.2326 258.857 15.4884C259.504 14.7442 260.474 14.3721 261.675 14.3721C262.507 14.3721 263.384 14.5582 264.355 14.9768L264.586 15.1163V9.86051L264.447 9.81399C263.615 9.53492 262.507 9.34888 261.074 9.34888C259.273 9.34888 257.702 9.76748 256.27 10.4652C254.837 11.2559 253.775 12.3256 252.989 13.7675C252.204 15.1628 251.788 16.7442 251.788 18.5582V22.1396H247.584V27.0698H251.788V47.907H257.84V27.1163H266.896V40.3721C266.896 45.814 269.437 48.5582 274.519 48.5582C275.35 48.5582 276.228 48.4187 277.06 48.2791C277.937 48.0931 278.584 47.8605 278.954 47.6745L279 47.628V42.6512L278.769 42.8373C278.399 43.0698 278.076 43.2559 277.522 43.3954C277.06 43.5349 276.644 43.5814 276.32 43.5814C275.119 43.5814 274.288 43.3024 273.687 42.6047C273.133 41.9535 272.855 40.8838 272.855 39.3024V27.1163H279Z" fill="#737373"/>
<path d="M0 0H28.3204V28.5116H0V0Z" fill="#F25022"/>
<path d="M31.2773 0H59.5978V28.5116H31.2773V0Z" fill="#7FBA00"/>
<path d="M0 31.4883H28.3204V60H0V31.4883Z" fill="#00A4EF"/>
<path d="M31.2773 31.4883H59.5978V60H31.2773V31.4883Z" fill="#FFB900"/>
</svg>
