<svg width="187" height="45" viewBox="0 0 187 45" fill="none" xmlns="http://www.w3.org/2000/svg">
<g filter="url(#filter0_d)">
<path d="M21.5489 6.92705C21.8483 6.00574 23.1517 6.00574 23.4511 6.92705L26.2045 15.4012C26.3384 15.8132 26.7223 16.0922 27.1555 16.0922L36.0658 16.0922C37.0345 16.0922 37.4373 17.3318 36.6536 17.9012L29.445 23.1385C29.0945 23.3932 28.9479 23.8446 29.0818 24.2566L31.8352 32.7308C32.1345 33.6521 31.0801 34.4182 30.2963 33.8488L23.0878 28.6115C22.7373 28.3568 22.2627 28.3568 21.9122 28.6115L14.7037 33.8488C13.9199 34.4182 12.8655 33.6521 13.1648 32.7307L15.9182 24.2566C16.0521 23.8446 15.9055 23.3932 15.555 23.1385L8.34641 17.9012C7.56269 17.3318 7.96547 16.0922 8.93419 16.0922L17.8445 16.0922C18.2777 16.0922 18.6616 15.8132 18.7955 15.4012L21.5489 6.92705Z" fill="#F9D100"/>
</g>
<g filter="url(#filter1_d)">
<path d="M56.5489 6.92705C56.8483 6.00574 58.1517 6.00574 58.4511 6.92705L61.2045 15.4012C61.3384 15.8132 61.7223 16.0922 62.1555 16.0922L71.0658 16.0922C72.0345 16.0922 72.4373 17.3318 71.6536 17.9012L64.445 23.1385C64.0945 23.3932 63.9479 23.8446 64.0818 24.2566L66.8352 32.7308C67.1345 33.6521 66.0801 34.4182 65.2963 33.8488L58.0878 28.6115C57.7373 28.3568 57.2627 28.3568 56.9122 28.6115L49.7037 33.8488C48.9199 34.4182 47.8655 33.6521 48.1648 32.7307L50.9182 24.2566C51.0521 23.8446 50.9055 23.3932 50.555 23.1385L43.3464 17.9012C42.5627 17.3318 42.9655 16.0922 43.9342 16.0922L52.8445 16.0922C53.2777 16.0922 53.6616 15.8132 53.7955 15.4012L56.5489 6.92705Z" fill="#F9D100"/>
</g>
<g filter="url(#filter2_d)">
<path d="M91.5489 6.92705C91.8483 6.00574 93.1517 6.00574 93.4511 6.92705L96.2045 15.4012C96.3384 15.8132 96.7223 16.0922 97.1555 16.0922L106.066 16.0922C107.035 16.0922 107.437 17.3318 106.654 17.9012L99.445 23.1385C99.0945 23.3932 98.9479 23.8446 99.0818 24.2566L101.835 32.7308C102.135 33.6521 101.08 34.4182 100.296 33.8488L93.0878 28.6115C92.7373 28.3568 92.2627 28.3568 91.9122 28.6115L84.7037 33.8488C83.9199 34.4182 82.8655 33.6521 83.1648 32.7307L85.9182 24.2566C86.0521 23.8446 85.9055 23.3932 85.555 23.1385L78.3464 17.9012C77.5627 17.3318 77.9655 16.0922 78.9342 16.0922L87.8445 16.0922C88.2777 16.0922 88.6616 15.8132 88.7955 15.4012L91.5489 6.92705Z" fill="#F9D100"/>
</g>
<g filter="url(#filter3_d)">
<path d="M126.549 6.92705C126.848 6.00574 128.152 6.00574 128.451 6.92705L131.204 15.4012C131.338 15.8132 131.722 16.0922 132.156 16.0922L141.066 16.0922C142.035 16.0922 142.437 17.3318 141.654 17.9012L134.445 23.1385C134.095 23.3932 133.948 23.8446 134.082 24.2566L136.835 32.7308C137.135 33.6521 136.08 34.4182 135.296 33.8488L128.088 28.6115C127.737 28.3568 127.263 28.3568 126.912 28.6115L119.704 33.8488C118.92 34.4182 117.865 33.6521 118.165 32.7307L120.918 24.2566C121.052 23.8446 120.905 23.3932 120.555 23.1385L113.346 17.9012C112.563 17.3318 112.965 16.0922 113.934 16.0922L122.844 16.0922C123.278 16.0922 123.662 15.8132 123.796 15.4012L126.549 6.92705Z" fill="#F9D100"/>
</g>
<g filter="url(#filter4_d)">
<path d="M161.549 6.92705C161.848 6.00574 163.152 6.00574 163.451 6.92705L166.204 15.4012C166.338 15.8132 166.722 16.0922 167.156 16.0922L176.066 16.0922C177.035 16.0922 177.437 17.3318 176.654 17.9012L169.445 23.1385C169.095 23.3932 168.948 23.8446 169.082 24.2566L171.835 32.7308C172.135 33.6521 171.08 34.4182 170.296 33.8488L163.088 28.6115C162.737 28.3568 162.263 28.3568 161.912 28.6115L154.704 33.8488C153.92 34.4182 152.865 33.6521 153.165 32.7307L155.918 24.2566C156.052 23.8446 155.905 23.3932 155.555 23.1385L148.346 17.9012C147.563 17.3318 147.965 16.0922 148.934 16.0922L157.844 16.0922C158.278 16.0922 158.662 15.8132 158.796 15.4012L161.549 6.92705Z" fill="#F9D100"/>
</g>
<defs>
<filter id="filter0_d" x="0.932373" y="0.23584" width="45.1354" height="43.8082" filterUnits="userSpaceOnUse" color-interpolation-filters="sRGB">
<feFlood flood-opacity="0" result="BackgroundImageFix"/>
<feColorMatrix in="SourceAlpha" type="matrix" values="0 0 0 0 0 0 0 0 0 0 0 0 0 0 0 0 0 0 127 0" result="hardAlpha"/>
<feOffset dx="1" dy="2"/>
<feGaussianBlur stdDeviation="4"/>
<feComposite in2="hardAlpha" operator="out"/>
<feColorMatrix type="matrix" values="0 0 0 0 0 0 0 0 0 0 0 0 0 0 0 0 0 0 0.05 0"/>
<feBlend mode="normal" in2="BackgroundImageFix" result="effect1_dropShadow"/>
<feBlend mode="normal" in="SourceGraphic" in2="effect1_dropShadow" result="shape"/>
</filter>
<filter id="filter1_d" x="35.9324" y="0.23584" width="45.1354" height="43.8082" filterUnits="userSpaceOnUse" color-interpolation-filters="sRGB">
<feFlood flood-opacity="0" result="BackgroundImageFix"/>
<feColorMatrix in="SourceAlpha" type="matrix" values="0 0 0 0 0 0 0 0 0 0 0 0 0 0 0 0 0 0 127 0" result="hardAlpha"/>
<feOffset dx="1" dy="2"/>
<feGaussianBlur stdDeviation="4"/>
<feComposite in2="hardAlpha" operator="out"/>
<feColorMatrix type="matrix" values="0 0 0 0 0 0 0 0 0 0 0 0 0 0 0 0 0 0 0.05 0"/>
<feBlend mode="normal" in2="BackgroundImageFix" result="effect1_dropShadow"/>
<feBlend mode="normal" in="SourceGraphic" in2="effect1_dropShadow" result="shape"/>
</filter>
<filter id="filter2_d" x="70.9324" y="0.23584" width="45.1354" height="43.8082" filterUnits="userSpaceOnUse" color-interpolation-filters="sRGB">
<feFlood flood-opacity="0" result="BackgroundImageFix"/>
<feColorMatrix in="SourceAlpha" type="matrix" values="0 0 0 0 0 0 0 0 0 0 0 0 0 0 0 0 0 0 127 0" result="hardAlpha"/>
<feOffset dx="1" dy="2"/>
<feGaussianBlur stdDeviation="4"/>
<feComposite in2="hardAlpha" operator="out"/>
<feColorMatrix type="matrix" values="0 0 0 0 0 0 0 0 0 0 0 0 0 0 0 0 0 0 0.05 0"/>
<feBlend mode="normal" in2="BackgroundImageFix" result="effect1_dropShadow"/>
<feBlend mode="normal" in="SourceGraphic" in2="effect1_dropShadow" result="shape"/>
</filter>
<filter id="filter3_d" x="105.932" y="0.23584" width="45.1354" height="43.8082" filterUnits="userSpaceOnUse" color-interpolation-filters="sRGB">
<feFlood flood-opacity="0" result="BackgroundImageFix"/>
<feColorMatrix in="SourceAlpha" type="matrix" values="0 0 0 0 0 0 0 0 0 0 0 0 0 0 0 0 0 0 127 0" result="hardAlpha"/>
<feOffset dx="1" dy="2"/>
<feGaussianBlur stdDeviation="4"/>
<feComposite in2="hardAlpha" operator="out"/>
<feColorMatrix type="matrix" values="0 0 0 0 0 0 0 0 0 0 0 0 0 0 0 0 0 0 0.05 0"/>
<feBlend mode="normal" in2="BackgroundImageFix" result="effect1_dropShadow"/>
<feBlend mode="normal" in="SourceGraphic" in2="effect1_dropShadow" result="shape"/>
</filter>
<filter id="filter4_d" x="140.932" y="0.23584" width="45.1354" height="43.8082" filterUnits="userSpaceOnUse" color-interpolation-filters="sRGB">
<feFlood flood-opacity="0" result="BackgroundImageFix"/>
<feColorMatrix in="SourceAlpha" type="matrix" values="0 0 0 0 0 0 0 0 0 0 0 0 0 0 0 0 0 0 127 0" result="hardAlpha"/>
<feOffset dx="1" dy="2"/>
<feGaussianBlur stdDeviation="4"/>
<feComposite in2="hardAlpha" operator="out"/>
<feColorMatrix type="matrix" values="0 0 0 0 0 0 0 0 0 0 0 0 0 0 0 0 0 0 0.05 0"/>
<feBlend mode="normal" in2="BackgroundImageFix" result="effect1_dropShadow"/>
<feBlend mode="normal" in="SourceGraphic" in2="effect1_dropShadow" result="shape"/>
</filter>
</defs>
</svg>
