<svg width="693" height="553" viewBox="0 0 693 553" fill="none" xmlns="http://www.w3.org/2000/svg">
<path d="M408.683 0.774902H143.051C136.56 0.774902 131.298 6.03556 131.298 12.5249V206.4C131.298 212.889 136.56 218.15 143.051 218.15H408.683C415.174 218.15 420.436 212.889 420.436 206.4V12.5249C420.436 6.03556 415.174 0.774902 408.683 0.774902Z" fill="#F2F6FB"/>
<path d="M131.298 12.5285C131.298 6.03717 136.558 0.774902 143.047 0.774902H409.258C415.747 0.774902 421.008 6.03443 421.008 12.5285V25.3623H131.298V12.5285Z" fill="#E1E5F0"/>
<path d="M148.155 18.6566C151.153 18.6566 153.583 16.2798 153.583 13.3479C153.583 10.4161 151.153 8.03931 148.155 8.03931C145.157 8.03931 142.726 10.4161 142.726 13.3479C142.726 16.2798 145.157 18.6566 148.155 18.6566Z" fill="#FF5645"/>
<path d="M165.869 18.6566C168.867 18.6566 171.297 16.2798 171.297 13.3479C171.297 10.4161 168.867 8.03931 165.869 8.03931C162.871 8.03931 160.44 10.4161 160.44 13.3479C160.44 16.2798 162.871 18.6566 165.869 18.6566Z" fill="#FFCB3D"/>
<path d="M184.154 18.6566C187.152 18.6566 189.582 16.2798 189.582 13.3479C189.582 10.4161 187.152 8.03931 184.154 8.03931C181.156 8.03931 178.725 10.4161 178.725 13.3479C178.725 16.2798 181.156 18.6566 184.154 18.6566Z" fill="#3ABF7C"/>
<path d="M145.616 41.957H153.779C154.428 41.957 154.954 42.4831 154.954 43.132V45.9298C154.954 46.5787 154.428 47.1048 153.779 47.1048H145.616C144.967 47.1048 144.44 46.5787 144.44 45.9298V43.132C144.44 42.4831 144.967 41.957 145.616 41.957ZM369.041 41.957H406.118C406.767 41.957 407.294 42.4831 407.294 43.132V45.9298C407.294 46.5787 406.767 47.1048 406.118 47.1048H369.041C368.392 47.1048 367.866 46.5787 367.866 45.9298V43.132C367.866 42.4831 368.392 41.957 369.041 41.957ZM298.071 41.957H335.148C335.797 41.957 336.323 42.4831 336.323 43.132V45.9298C336.323 46.5787 335.797 47.1048 335.148 47.1048H298.071C297.421 47.1048 296.895 46.5787 296.895 45.9298V43.132C296.895 42.4831 297.421 41.957 298.071 41.957ZM342.756 41.957H361.433C362.082 41.957 362.609 42.4831 362.609 43.132V45.9298C362.609 46.5787 362.082 47.1048 361.433 47.1048H342.756C342.107 47.1048 341.58 46.5787 341.58 45.9298V43.132C341.58 42.4831 342.107 41.957 342.756 41.957Z" fill="#D8DEED"/>
<path d="M158.758 79.2786H235.264C235.913 79.2786 236.439 79.8046 236.439 80.4536V88.3991C236.439 89.048 235.913 89.5741 235.264 89.5741H158.758C158.109 89.5741 157.583 89.048 157.583 88.3991V80.4536C157.583 79.8046 158.109 79.2786 158.758 79.2786ZM158.758 96.0088H222.121C222.77 96.0088 223.296 96.5349 223.296 97.1838V105.129C223.296 105.778 222.77 106.304 222.121 106.304H158.758C158.109 106.304 157.583 105.778 157.583 105.129V97.1838C157.583 96.5349 158.109 96.0088 158.758 96.0088ZM158.758 129.469H195.836C196.485 129.469 197.011 129.995 197.011 130.644V138.59C197.011 139.239 196.485 139.765 195.836 139.765H158.758C158.109 139.765 157.583 139.239 157.583 138.59V130.644C157.583 129.995 158.109 129.469 158.758 129.469ZM158.758 112.739H235.264C235.913 112.739 236.439 113.265 236.439 113.914V121.86C236.439 122.509 235.913 123.035 235.264 123.035H158.758C158.109 123.035 157.583 122.509 157.583 121.86V113.914C157.583 113.265 158.109 112.739 158.758 112.739Z" fill="#E1E5F0"/>
<path d="M239.477 161.643H309.628C313.106 161.643 314.606 162.052 316.042 162.82C317.479 163.588 318.606 164.715 319.375 166.151C320.143 167.587 320.552 169.087 320.552 172.564V176.461C320.552 179.938 320.143 181.438 319.375 182.874C318.606 184.31 317.479 185.437 316.042 186.205C314.606 186.973 313.106 187.382 309.628 187.382H239.477C235.999 187.382 234.499 186.973 233.063 186.205C231.626 185.437 230.499 184.31 229.731 182.874C228.962 181.438 228.553 179.938 228.553 176.461V172.564C228.553 169.087 228.962 167.587 229.731 166.151C230.499 164.715 231.626 163.588 233.063 162.82C234.499 162.052 235.999 161.643 239.477 161.643Z" fill="#3ABF7C"/>
<path d="M371.294 104.472V117.984C371.294 121.957 368.796 125.501 365.053 126.837C356.276 129.969 347.5 131.535 338.723 131.535C329.947 131.535 321.17 129.969 312.393 126.837C308.651 125.501 306.152 121.957 306.152 117.984V105.3L279.951 96.0546C278.917 95.6897 278.112 94.8648 277.772 93.8225C277.169 91.9715 278.181 89.982 280.033 89.3789L332.41 72.3191C336.891 70.8595 341.732 70.9378 346.164 72.5417L392.786 89.4145C393.739 89.7595 394.498 90.4982 394.868 91.4419C395.579 93.2544 394.686 95.2998 392.873 96.0106L371.294 104.472Z" fill="#474BFF"/>
<path opacity="0.176986" d="M371.294 104.471V117.984C371.294 121.957 368.796 125.501 365.053 126.837C356.276 129.969 347.5 131.535 338.723 131.535C329.946 131.535 321.17 129.969 312.393 126.837C308.651 125.501 306.152 121.957 306.152 117.984V105.3L331.895 114.384C336.687 116.076 341.929 115.985 346.66 114.13L371.294 104.471Z" fill="#444444"/>
<path d="M380.723 116.704V101.574L338.405 92.1043C337.635 91.9322 337.155 91.183 337.331 90.4309C337.507 89.6788 338.273 89.2086 339.042 89.3807L382.47 99.0987C383.119 99.244 383.58 99.809 383.58 100.461V116.704C385.083 117.267 386.151 118.691 386.151 120.359C386.151 121.797 385.358 123.053 384.176 123.733C384.28 123.916 384.358 124.077 384.41 124.217C386.903 130.846 390.068 137.875 382.838 138.234C378.684 138.441 378.012 133.713 380.822 124.05C379.266 123.514 378.151 122.064 378.151 120.359C378.151 118.691 379.219 117.267 380.723 116.704Z" fill="#474961"/>
<path d="M442.751 10.172C442.751 6.92888 445.383 4.2998 448.626 4.2998H501.279L522.671 25.6547V93.0127C522.671 96.2571 520.034 98.8873 516.794 98.8873H448.627C445.382 98.8873 442.751 96.2588 442.751 93.0151V10.172Z" fill="#F2F6FB"/>
<path d="M498.199 56.5721L471.554 69.9747C471.351 70.0768 471.104 69.9951 471.001 69.7922C470.973 69.7348 470.958 69.6715 470.958 69.6073V42.8021C470.958 42.575 471.142 42.3909 471.369 42.3909C471.433 42.3909 471.496 42.4059 471.554 42.4347L498.199 55.8374C498.402 55.9394 498.484 56.1867 498.382 56.3896C498.342 56.4684 498.278 56.5324 498.199 56.5721Z" fill="#D8DEED"/>
<path d="M501.279 4.2998L522.671 25.6547L502.601 29.2692C499.405 29.8448 497.258 27.7222 497.808 24.5224L501.279 4.2998Z" fill="#D8DEED"/>
<path d="M613 128.872C613 125.629 615.633 123 618.876 123H671.528L692.92 144.355V211.713C692.92 214.957 690.284 217.587 687.043 217.587H618.877C615.631 217.587 613 214.959 613 211.715V128.872Z" fill="#F2F6FB"/>
<path d="M668.449 175.272L641.803 188.675C641.6 188.777 641.353 188.695 641.251 188.492C641.222 188.435 641.207 188.371 641.207 188.307V161.502C641.207 161.275 641.391 161.091 641.618 161.091C641.683 161.091 641.746 161.106 641.803 161.135L668.449 174.537C668.652 174.639 668.733 174.887 668.631 175.09C668.592 175.168 668.528 175.232 668.449 175.272Z" fill="#D8DEED"/>
<path d="M671.528 123L692.92 144.355L672.85 147.969C669.654 148.545 667.508 146.422 668.057 143.222L671.528 123Z" fill="#D8DEED"/>
<path d="M442.751 126.497C442.751 123.254 445.383 120.625 448.626 120.625H501.279L522.671 141.98V209.338C522.671 212.582 520.034 215.212 516.794 215.212H448.627C445.382 215.212 442.751 212.584 442.751 209.34V126.497Z" fill="#F2F6FB"/>
<path d="M501.279 120.625L522.671 141.98L502.601 145.594C499.405 146.17 497.258 144.047 497.808 140.847L501.279 120.625Z" fill="#D8DEED"/>
<path d="M460.968 185.547V160.604C460.968 160.098 461.186 159.616 461.566 159.281C464.565 156.644 468.227 155.538 472.552 155.964C477.169 156.418 480.229 158.761 481.734 162.99V190.255C481.734 190.579 481.471 190.842 481.146 190.842C480.963 190.842 480.79 190.757 480.679 190.611C478.604 187.889 476.252 186.187 473.625 185.503C471.028 184.828 467.626 185.383 463.42 187.169C462.523 187.549 461.488 187.132 461.108 186.236C461.015 186.018 460.968 185.783 460.968 185.547ZM504.705 185.547C504.705 185.783 504.657 186.018 504.565 186.236C504.184 187.132 503.149 187.549 502.253 187.169C498.046 185.383 494.645 184.828 492.048 185.503C489.42 186.187 487.069 187.889 484.994 190.611C484.883 190.757 484.71 190.842 484.526 190.842C484.202 190.842 483.939 190.579 483.939 190.255V162.99C485.443 158.761 488.504 156.418 493.121 155.964C497.446 155.538 501.108 156.644 504.106 159.281C504.487 159.616 504.705 160.098 504.705 160.604V185.547Z" fill="#D8DEED"/>
<path d="M613 10.872C613 7.62884 615.633 4.99976 618.876 4.99976H671.528L692.92 26.3547V93.7126C692.92 96.9571 690.284 99.5873 687.043 99.5873H618.877C615.631 99.5873 613 96.9587 613 93.715V10.872Z" fill="#F2F6FB"/>
<path d="M671.528 4.99976L692.92 26.3547L672.85 29.9692C669.654 30.5447 667.508 28.4221 668.057 25.2224L671.528 4.99976Z" fill="#D8DEED"/>
<path d="M631.217 69.9215V44.9792C631.217 44.4726 631.435 43.9905 631.816 43.6559C634.814 41.0185 638.476 39.9127 642.801 40.3386C647.418 40.7932 650.479 43.1353 651.983 47.3649V74.6295C651.983 74.9539 651.72 75.217 651.396 75.217C651.212 75.217 651.039 75.1314 650.928 74.9856C648.853 72.2638 646.502 70.5613 643.874 69.878C641.277 69.2027 637.876 69.758 633.669 71.5438C632.773 71.9242 631.738 71.5063 631.357 70.6103C631.265 70.3925 631.217 70.1582 631.217 69.9215ZM674.954 69.9215C674.954 70.1582 674.907 70.3925 674.814 70.6103C674.434 71.5063 673.399 71.9242 672.502 71.5438C668.296 69.758 664.894 69.2027 662.297 69.878C659.669 70.5613 657.318 72.2638 655.243 74.9856C655.132 75.1314 654.959 75.217 654.776 75.217C654.451 75.217 654.188 74.9539 654.188 74.6295V47.3649C655.693 43.1353 658.753 40.7932 663.37 40.3386C667.695 39.9127 671.357 41.0185 674.356 43.6559C674.736 43.9905 674.954 44.4726 674.954 44.9792V69.9215Z" fill="#D8DEED"/>
<path d="M114.849 416.725H539.366L569.482 291.704C575.063 268.538 597.473 253.515 621.028 257.15C622.092 257.314 623.148 257.523 624.194 257.774C645.025 262.79 657.846 283.739 652.829 304.566L618.904 445.396C613.323 468.562 590.913 483.584 567.357 479.949C566.294 479.785 565.238 479.577 564.192 479.325C551.516 476.273 541.806 467.321 537.277 456.087H116.938C112.409 467.321 102.699 476.273 90.0228 479.325C88.9768 479.577 87.9207 479.785 86.8574 479.949C63.3021 483.584 40.8918 468.562 35.3113 445.396L1.38607 304.566C-3.63088 283.739 9.18939 262.79 30.0209 257.774C31.067 257.523 32.123 257.314 33.1864 257.15C56.7417 253.515 79.1519 268.538 84.7325 291.704L114.849 416.725Z" fill="#E1E5F0"/>
<mask id="mask0" style="mask-type:alpha" maskUnits="userSpaceOnUse" x="88" y="256" width="477" height="161">
<path d="M147.752 256.925H506.216C538.671 256.925 564.981 283.228 564.981 315.675V416.725H88.9871V315.675C88.9871 283.228 115.297 256.925 147.752 256.925Z" fill="white"/>
</mask>
<g mask="url(#mask0)">
<path d="M147.752 256.925H506.216C538.671 256.925 564.981 283.228 564.981 315.675V416.725H88.9871V315.675C88.9871 283.228 115.297 256.925 147.752 256.925Z" fill="#F2F6FB"/>
</g>
<path d="M74.5889 488.4L58.386 516.457C55.8707 520.813 50.3 522.305 45.9435 519.79C41.5869 517.276 40.0943 511.706 42.6095 507.351L55.5318 484.975C51.7519 482.017 49.3225 477.414 49.3225 472.244C49.3225 463.321 56.5577 456.087 65.4827 456.087H587.313C596.238 456.087 603.474 463.321 603.474 472.244C603.474 477.097 601.333 481.451 597.944 484.412L611.191 507.351C613.707 511.706 612.214 517.276 607.857 519.79C603.501 522.305 597.93 520.813 595.415 516.457L579.212 488.4H74.5889Z" fill="#D8DEED"/>
<path d="M318.388 519.055C318.635 518.979 318.896 518.938 319.164 518.938H351.778C353.248 518.938 354.482 520.172 354.482 521.641C354.482 523.109 353.248 524.343 351.778 524.343H323.752H229.729C228.268 524.343 227.084 523.159 227.084 521.699C227.084 520.239 228.268 519.055 229.729 519.055H318.388Z" fill="#FFCB3D"/>
<path d="M323.723 519.055H319.164C318.896 519.055 318.635 519.097 318.388 519.173H229.729C229.302 519.173 228.898 519.274 228.542 519.453L227.672 481.424L271.664 482.051L280 458.543L318.666 470.26C320.597 476.821 322.586 483.383 324.575 490.003C325.628 493.459 326.682 496.857 327.735 500.255C331.011 501.544 333.82 502.715 335.809 503.594C339.612 505.234 342.83 506.758 346.34 509.042C346.34 509.042 349.383 510.917 351.08 513.612C351.606 514.491 352.074 515.487 352.367 516.541C352.484 517.01 352.484 517.479 352.542 517.889C352.524 518.273 352.437 518.703 352.326 519.113C352.149 519.075 351.966 519.055 351.778 519.055H323.733C323.759 518.972 323.771 518.887 323.769 518.8C323.768 518.887 323.752 518.972 323.723 519.055Z" fill="#474961"/>
<path opacity="0.176986" d="M323.826 519.055C323.867 518.922 323.873 518.785 323.845 518.644C323.786 518.174 323.786 517.704 323.669 517.293C322.964 514.473 320.73 512.123 319.438 510.889C316.793 509.185 314.149 507.658 311.269 506.307C300.868 501.137 297.871 501.195 291.054 496.554C288.234 494.615 285.648 492.442 283.239 489.974L273.128 482.102L271.745 482.082L280.093 458.543L318.759 470.26C320.69 476.821 322.679 483.383 324.668 490.003C325.721 493.459 326.775 496.857 327.828 500.255C331.104 501.544 333.913 502.715 335.902 503.594C339.705 505.235 342.923 506.758 346.433 509.042C346.433 509.042 349.476 510.917 351.173 513.612C351.699 514.491 352.167 515.487 352.46 516.541C352.577 517.01 352.577 517.479 352.635 517.889C352.617 518.28 352.527 518.718 352.414 519.134C352.209 519.083 351.997 519.055 351.779 519.055H323.826Z" fill="#444444"/>
<path d="M284.955 442.445C285.165 447.458 285.448 451.626 285.855 454.687C285.923 455.452 285.885 461.082 284.832 463.081C281.564 469.202 263.446 467.403 247.31 467.853C231.174 468.302 222.278 469.878 217.476 466.164C214.844 464.141 214.454 460.507 214.297 459.239C213.577 452.78 212.739 446.237 211.855 439.66C191.742 447.639 179.093 452.37 173.908 453.856C168.776 455.325 163.091 455.721 157.92 455.962C113.855 471.964 90.1302 446.146 87.6313 440.013C78.0867 416.59 81.0446 397.315 89.1454 383.637C94.3696 374.816 134.427 353.462 209.319 319.574C210.998 318.814 214.687 316.94 220.387 313.953C227.035 310.396 235.798 308.409 246.675 307.992C249.188 307.896 251.703 308.078 254.175 308.535C269.875 311.435 278.332 317.028 279.544 325.314C279.562 325.414 279.571 325.464 279.589 325.565C280.125 329.126 280.596 332.879 281.01 336.777C283.746 336.199 286.341 335.591 288.795 334.952C288.803 334.946 288.811 334.94 288.819 334.935C295.278 330.483 319.142 326.808 330.804 331.874C345.221 338.136 353.688 353.244 351.502 368.807C348.382 391.026 346.597 403.071 346.147 404.941C345.476 407.808 337.322 440.227 334.345 452.125C333.692 454.826 330.826 456.874 327.151 457.243C323.103 457.676 298.389 448.014 284.955 442.445Z" fill="#A339FF"/>
<path opacity="0.176986" d="M285.181 442.536C284.195 417.04 284.905 371.06 281.255 336.806C283.95 336.235 286.507 335.635 288.927 335.004C288.935 334.999 288.943 334.993 288.951 334.988C295.41 330.536 319.274 326.861 330.936 331.927C345.353 338.189 353.82 353.297 351.635 368.859C348.514 391.079 346.729 403.123 346.279 404.994C345.608 407.861 337.454 440.279 334.478 452.178C333.824 454.878 330.958 456.927 327.283 457.296C323.244 457.727 298.636 448.111 285.181 442.536ZM212.094 439.671C191.919 447.675 179.235 452.421 174.04 453.908C169.146 455.31 163.747 455.735 158.771 455.981C159.62 455.666 160.476 455.337 161.34 454.992C180.123 447.478 196.174 436.061 209.493 420.739C210.359 427.05 211.247 433.376 212.094 439.671Z" fill="#444444"/>
<path d="M152.142 346.473C120.081 362.217 100.197 373.534 92.4881 380.423L90.1633 381.579C78.4335 365.983 73.6885 344.864 75.9284 318.223C70.3254 316.852 65.5205 315.449 63.3253 314.421C58.9348 312.366 57.7462 307.87 59.7595 300.932C61.4459 294.265 64.8575 286.535 69.9943 277.741C76.0996 267.289 84.7127 266.985 90.2717 267.682C95.127 264.068 118.794 263.657 123.234 264.557C130.219 266.025 140.578 268.081 146.254 276.504C148.076 279.13 148.923 281.683 149.365 283.507C149.365 283.507 150.212 286.059 150.814 288.841C152.198 295.2 154.941 317.457 152.142 346.473Z" fill="#FFCB3D"/>
<path d="M221.486 262.789L162.968 315.466C161.641 316.66 161.534 318.704 162.728 320.03C163.923 321.356 165.966 321.463 167.293 320.269L225.812 267.592C227.138 266.397 227.245 264.354 226.051 263.028C224.856 261.702 222.813 261.595 221.486 262.789Z" fill="#474961"/>
<path d="M201.028 280.294L166.099 257.753C163.928 256.352 161.097 256.533 159.123 258.198L124.925 287.036C122.444 289.128 122.129 292.834 124.222 295.314C124.573 295.73 124.979 296.095 125.43 296.398L164.587 322.78L201.755 289.613C204.176 287.452 204.387 283.738 202.226 281.318C201.874 280.924 201.472 280.58 201.028 280.294Z" fill="#474BFF"/>
<path d="M104.583 243.097C102.826 240.821 101.251 238.681 100.415 236.921C99.1756 234.357 99.8213 226.883 102.165 223.901C104.509 220.919 123.096 207.128 123.33 207.112C125.311 206.797 136.471 205.486 142.798 213.407C143.375 214.073 143.897 214.802 144.373 215.711C145.404 217.818 145.978 220.134 145.966 222.491L145.875 232.98C145.832 234.043 145.73 235.11 145.565 236.123C144.381 243.626 142.048 249.855 139.384 253.87C137.416 256.893 135.185 258.698 133.138 258.9C132.556 259 129.386 259.162 125.615 258.307C125.369 258.244 125.434 258.296 123.9 257.753L124.213 264.665C129.301 265.729 135.888 267.197 141.187 271.058C133.622 275.082 125.244 276.893 116.054 276.49C112.101 276.317 107.933 275.787 103.55 274.9C100.296 271.05 96.3326 268.783 94.1198 268.418C93.1113 268.251 91.744 267.974 90.1426 267.79C90.1705 267.767 90.1984 267.743 90.2265 267.719C92.1597 266.127 97.7165 265.139 103.782 264.601L104.16 242.963L104.583 243.097ZM154.152 327.294C154.288 327.294 154.424 327.286 154.56 327.27C154.429 327.276 154.298 327.276 154.167 327.269C154.162 327.277 154.157 327.286 154.152 327.294ZM162.013 320.873L164.505 322.531L166.821 320.472C166.897 320.415 166.971 320.354 167.043 320.289L168.427 319.043L201.488 289.632C201.948 289.223 202.328 288.757 202.628 288.256L212.626 279.256C217.153 277.018 220.666 276.135 221.838 277.783C221.838 277.783 204.311 296.785 195.055 306.758C192.633 313.105 189.044 321.221 184.286 331.107C172.436 336.646 161.688 341.784 152.045 346.521C152.666 340.329 153.031 334.441 153.207 328.944C141.694 348.661 123.898 365.323 99.8184 378.93C69.0245 396.331 64.0051 337.004 63.206 314.1C63.3193 314.156 63.4349 314.211 63.5528 314.263C69.8679 317.09 99.1539 323.605 104.58 322.723C104.736 322.705 104.887 322.669 105.032 322.615L104.109 336.848L138.275 312.586C138.282 312.577 138.289 312.568 138.296 312.559L155.301 290.8C156.599 289.138 159 288.843 160.662 290.142C161.183 290.549 161.57 291.064 161.815 291.63L162.307 290.901C163.487 289.153 165.861 288.691 167.61 289.871C168.763 290.648 169.356 291.945 169.289 293.24C170.206 293.152 171.157 293.393 171.951 293.991L171.961 293.999C173.574 295.214 173.896 297.505 172.681 299.117C172.649 299.16 172.615 299.202 172.581 299.243L172.331 299.546C173.533 299.261 174.851 299.563 175.822 300.468C177.365 301.907 177.449 304.323 176.011 305.866L162.013 320.873ZM287.001 443.043C297.317 447.282 312.772 453.33 321.461 455.897L318.666 470.26L285.628 460.249C285.885 458.501 285.875 456.732 285.832 456.254C285.461 453.465 285.199 449.732 285.005 445.26C284.974 444.381 284.939 443.463 284.901 442.507L287.001 443.043ZM227.687 468.545C232.534 468.617 238.899 468.087 247.31 467.853C253.314 467.685 259.592 467.83 265.278 467.761L272.171 480.619L271.664 482.051L227.727 481.425L227.687 468.545Z" fill="#F2A98A"/>
<path opacity="0.2" d="M153.042 328.51C153.276 328.104 153.508 327.697 153.737 327.288C154.83 327.349 155.94 326.943 156.745 326.08L161.691 320.778L164.326 322.531L166.641 320.472C166.717 320.415 166.791 320.354 166.863 320.289L168.247 319.043L201.308 289.632C201.768 289.223 202.149 288.757 202.449 288.256L212.446 279.256C216.974 277.018 220.486 276.135 221.659 277.783C221.659 277.783 204.148 296.767 194.889 306.744C192.469 313.124 188.887 321.307 184.215 331.057C172.322 336.615 161.538 341.77 151.865 346.521C152.502 340.166 152.87 334.13 153.042 328.51Z" fill="#8C2A00"/>
<path d="M123.902 257.772L115.727 255.009L124.178 264.649L123.902 257.772Z" fill="#482D1F"/>
<path d="M133.228 207.386C136.512 208.226 139.962 209.923 142.583 213.204C143.16 213.87 143.682 214.599 144.158 215.508C144.613 216.437 144.978 217.407 145.244 218.403L115.477 228.781L119.295 208.734C124.989 207.905 129.634 207.455 133.228 207.386Z" fill="#482D1F"/>
<path d="M135.532 208.648C125.108 218.852 118.471 225.519 115.619 228.648C115.514 228.8 115.408 228.957 115.302 229.119C115.176 228.587 114.686 226.856 113.343 225.184C113.217 225.075 112.13 223.855 110.561 223.317C107.732 222.455 104.184 223.939 102.367 226.599C100.437 229.325 100.679 232.783 101.977 235.342C103.275 237.902 105.53 238.981 106.317 239.279L109.481 239.883L109.801 239.737C107.475 244.658 105.354 249.086 103.997 249.407C101.529 249.99 97.723 244.721 95.0359 242.169C93.3283 240.547 89.2261 235.24 87.9991 227.848C87.6344 225.403 86.2797 217.11 91.3743 210.577C93.1521 208.307 95.2638 207.119 96.1315 206.604C99.0843 205.03 110.421 204.131 119.13 203.654C117.471 201.085 116.463 195.759 116.104 187.678C116.092 187.412 116.171 187.15 116.328 186.935C116.709 186.41 117.444 186.294 117.969 186.676C125.185 191.92 129.777 195.73 131.746 198.106C133.192 195.806 137.409 193.127 144.4 190.068C144.645 189.961 144.92 189.941 145.179 190.011C145.806 190.181 146.175 190.827 146.005 191.453C143.106 202.117 140.9 207.719 139.387 208.26C138.556 208.557 137.271 208.686 135.532 208.648Z" fill="#DE3190"/>
<path d="M143.021 235.027C143.148 234.312 143.814 233.735 144.526 233.803C144.999 233.829 145.375 234.156 145.609 234.964C145.928 237.003 143.881 239.738 143.15 238.552C142.628 237.823 142.86 236.099 143.021 235.027ZM130.122 234.317C130.249 233.601 130.916 233.025 131.627 233.093C132.1 233.119 132.477 233.446 132.71 234.254C133.029 236.293 130.982 239.027 130.251 237.842C129.729 237.113 129.962 235.388 130.122 234.317Z" fill="#482D1F"/>
<path d="M138.649 235.788L139.118 241.645C139.119 241.667 139.036 241.762 139.008 241.764C138.688 241.787 138.358 241.788 137.843 241.775C137.743 241.772 137.639 241.769 137.488 241.764C137.298 241.758 137.194 241.755 137.095 241.752C136.754 241.741 136.472 241.734 136.17 241.729C135.846 241.724 135.578 241.982 135.573 242.307C135.567 242.631 135.826 242.898 136.15 242.904C136.446 242.909 136.723 242.916 137.059 242.926C137.158 242.929 137.261 242.933 137.451 242.939C137.603 242.943 137.71 242.947 137.812 242.949C138.362 242.964 138.724 242.962 139.09 242.936C139.766 242.889 140.337 242.232 140.29 241.557L139.821 235.694C139.795 235.371 139.512 235.13 139.188 235.155C138.865 235.181 138.623 235.465 138.649 235.788Z" fill="#482D1F"/>
<path d="M135.259 246.267C134.836 246.12 133.807 245.72 133.707 245.138C133.699 245.021 133.628 244.85 133.741 244.783C134.014 244.469 134.738 244.713 135.813 244.932C137.722 245.27 139.254 245.281 139.254 245.281C139.254 245.281 138.734 246.259 138.398 246.518C137.744 247.271 135.865 246.519 135.259 246.267Z" fill="#482D1F"/>
<path d="M121.011 232.734L117.502 231.921C117.028 231.811 116.732 231.338 116.842 230.864C116.952 230.39 117.426 230.094 117.9 230.204L121.673 231.079C122.978 228.619 125.485 226.867 128.468 226.659C133.065 226.337 137.052 229.803 137.374 234.399C137.382 234.509 137.387 234.618 137.39 234.727L139.177 234.821C139.714 231.004 142.858 227.95 146.859 227.67C151.456 227.349 155.444 230.814 155.765 235.41C156.087 240.006 152.62 243.993 148.023 244.314C143.428 244.635 139.443 241.175 139.117 236.583L137.259 236.485C136.591 240.145 133.515 243.032 129.632 243.303C125.034 243.625 121.047 240.159 120.725 235.563C120.657 234.582 120.761 233.63 121.011 232.734ZM122.903 232.625C122.569 233.494 122.415 234.449 122.484 235.44C122.738 239.065 125.883 241.798 129.509 241.545C133.135 241.291 135.869 238.147 135.615 234.522C135.362 230.897 132.217 228.163 128.591 228.417C126.101 228.591 124.032 230.128 123.061 232.248C123.058 232.266 123.055 232.284 123.05 232.302C123.023 232.423 122.971 232.531 122.903 232.625ZM140.859 235.95C140.858 236.116 140.863 236.283 140.875 236.451C141.129 240.076 144.274 242.81 147.9 242.556C151.526 242.303 154.26 239.158 154.006 235.533C153.753 231.908 150.608 229.175 146.982 229.428C143.643 229.661 141.061 232.345 140.87 235.598C140.881 235.661 140.885 235.726 140.881 235.793C140.879 235.847 140.871 235.899 140.859 235.95Z" fill="#482D1F"/>
<path d="M210.038 421.146L204.972 372.09C204.922 371.606 204.489 371.254 204.005 371.304C203.52 371.354 203.168 371.787 203.218 372.271L208.284 421.327C208.334 421.812 208.767 422.164 209.251 422.114C209.736 422.064 210.088 421.631 210.038 421.146Z" fill="#482D1F"/>
<path d="M108.594 308.777C108.594 308.777 109.119 318.692 105.183 322.338" stroke="#482D1F" stroke-width="3" stroke-linecap="round" stroke-linejoin="round"/>
<path d="M410.43 420.25H517.969C520.566 420.25 522.671 422.354 522.671 424.95V434.35C522.671 436.946 520.566 439.05 517.969 439.05H410.43C407.834 439.05 405.729 436.946 405.729 434.35V424.95C405.729 422.354 407.834 420.25 410.43 420.25ZM404.553 345.05H512.093C514.689 345.05 516.794 347.154 516.794 349.75V359.15C516.794 361.746 514.689 363.85 512.093 363.85H404.553C401.957 363.85 399.852 361.746 399.852 359.15V349.75C399.852 347.154 401.957 345.05 404.553 345.05ZM392.213 382.65H499.752C502.349 382.65 504.454 384.754 504.454 387.35V396.75C504.454 399.346 502.349 401.45 499.752 401.45H392.213C389.617 401.45 387.512 399.346 387.512 396.75V387.35C387.512 384.754 389.617 382.65 392.213 382.65Z" fill="#474BFF"/>
<path d="M421.008 401.45H528.547C531.143 401.45 533.248 403.554 533.248 406.15V415.55C533.248 418.145 531.143 420.25 528.547 420.25H421.008C418.411 420.25 416.306 418.145 416.306 415.55V406.15C416.306 403.554 418.411 401.45 421.008 401.45ZM424.533 363.85H532.073C534.669 363.85 536.774 365.954 536.774 368.55V377.95C536.774 380.545 534.669 382.65 532.073 382.65H424.533C421.937 382.65 419.832 380.545 419.832 377.95V368.55C419.832 365.954 421.937 363.85 424.533 363.85Z" fill="#474961"/>
<path d="M410.136 352.1H516.794V357.387H410.136C408.676 357.387 407.492 356.203 407.492 354.743C407.492 353.283 408.676 352.1 410.136 352.1ZM419.832 370.9H524.433V376.187H419.832V370.9ZM399.852 389.7H504.453V394.987H399.852V389.7ZM416.306 408.5H520.908V413.787H416.306V408.5ZM418.069 427.3H522.671V432.587H418.069V427.3Z" fill="#D8DEED"/>
<path d="M540.918 534.2H648.458C651.054 534.2 653.159 536.304 653.159 538.9V548.3C653.159 550.896 651.054 553 648.458 553H540.918C538.322 553 536.217 550.896 536.217 548.3V538.9C536.217 536.304 538.322 534.2 540.918 534.2ZM535.042 459H642.581C645.178 459 647.282 461.104 647.282 463.7V473.1C647.282 475.696 645.178 477.8 642.581 477.8H535.042C532.445 477.8 530.341 475.696 530.341 473.1V463.7C530.341 461.104 532.445 459 535.042 459ZM522.701 496.6H630.241C632.837 496.6 634.942 498.704 634.942 501.3V510.7C634.942 513.296 632.837 515.4 630.241 515.4H522.701C520.105 515.4 518 513.296 518 510.7V501.3C518 498.704 520.105 496.6 522.701 496.6Z" fill="#474BFF"/>
<path d="M551.496 515.4H659.035C661.632 515.4 663.737 517.504 663.737 520.1V529.5C663.737 532.096 661.632 534.2 659.035 534.2H551.496C548.899 534.2 546.795 532.096 546.795 529.5V520.1C546.795 517.504 548.899 515.4 551.496 515.4ZM555.022 477.8H662.561C665.158 477.8 667.262 479.904 667.262 482.5V491.9C667.262 494.496 665.158 496.6 662.561 496.6H555.022C552.425 496.6 550.321 494.496 550.321 491.9V482.5C550.321 479.904 552.425 477.8 555.022 477.8Z" fill="#474961"/>
<path d="M540.624 466.05H647.282V471.337H540.624C539.164 471.337 537.98 470.154 537.98 468.694C537.98 467.233 539.164 466.05 540.624 466.05ZM550.321 484.85H654.922V490.137H550.321V484.85ZM530.341 503.65H634.942V508.937H530.341V503.65ZM546.795 522.45H651.396V527.737H546.795V522.45ZM548.558 541.25H653.159V546.537H548.558V541.25Z" fill="#D8DEED"/>
</svg>
