<svg width="116" height="116" viewBox="0 0 116 116" fill="none" xmlns="http://www.w3.org/2000/svg">
<g clip-path="url(#clip0)">
<path d="M56.6776 112.614C87.0437 112.614 111.66 87.9972 111.66 57.6311C111.66 27.2649 87.0437 2.64832 56.6776 2.64832C26.3114 2.64832 1.69482 27.2649 1.69482 57.6311C1.69482 87.9972 26.3114 112.614 56.6776 112.614Z" fill="#99E6FC"/>
<path d="M66.2239 111.793C63.121 112.335 59.9302 112.617 56.6749 112.617C26.3089 112.617 1.69482 87.9983 1.69482 57.6325C1.69482 27.2667 26.3089 2.64795 56.6746 2.64795C59.9302 2.64795 63.121 2.93048 66.2237 3.47222C40.4057 7.99209 20.7839 30.5223 20.7839 57.6325C20.7839 84.7427 40.4057 107.273 66.2239 111.793Z" fill="#62DBFB"/>
<path d="M112.863 98.0128L94.8743 84.4618C92.3861 82.5876 88.8554 84.5558 89.1413 87.6576L91.2083 110.085C91.5305 113.581 96.1634 114.582 97.9006 111.531L100.8 106.438C101.598 105.037 103.107 104.196 104.717 104.254L110.574 104.466C114.083 104.592 115.668 100.125 112.863 98.0128Z" fill="#017297"/>
<path d="M97.935 111.472L97.9001 111.532C96.1632 114.581 91.5296 113.582 91.2074 110.085L89.1411 87.6571C88.8536 84.5565 92.3831 82.5901 94.8715 84.4591C94.5516 85.0434 94.3914 85.737 94.4612 86.4998L96.5275 108.927C96.6318 110.052 97.1789 110.917 97.935 111.472Z" fill="#025F80"/>
<path d="M89.9578 73.6512H23.3975C20.2919 73.6512 17.7742 71.1335 17.7742 68.0279V47.2364C17.7742 44.1308 20.2919 41.6132 23.3975 41.6132H89.9578C93.0634 41.6132 95.5811 44.1308 95.5811 47.2364V68.0279C95.5811 71.1335 93.0634 73.6512 89.9578 73.6512Z" fill="#F9F7F8"/>
<path d="M29.1621 73.6514H23.3968C20.2923 73.6514 17.7742 71.1332 17.7742 68.0288V47.2359C17.7742 44.1314 20.2923 41.6133 23.3968 41.6133H29.1621C26.0552 41.6133 23.5371 44.1314 23.5371 47.2359V68.0288C23.5371 71.1332 26.0552 73.6514 29.1621 73.6514Z" fill="#F3DCED"/>
<path d="M113.88 96.6526L112.969 95.9661C112.22 95.4015 111.155 95.5513 110.59 96.3005C110.025 97.05 110.175 98.1154 110.924 98.6802L111.836 99.367C112.863 100.14 112.588 101.201 112.48 101.507C112.371 101.814 111.911 102.805 110.63 102.764L104.775 102.553C102.519 102.471 100.434 103.635 99.3194 105.592L96.419 110.686C95.7837 111.803 94.6975 111.666 94.3801 111.598C94.0622 111.529 93.0157 111.205 92.8981 109.924L90.8297 87.5005C90.7251 86.3629 91.5398 85.816 91.7918 85.6755C92.0442 85.535 92.9375 85.1297 93.8493 85.8164L104.615 93.927C105.365 94.4918 106.43 94.3418 106.995 93.5923C107.559 92.8428 107.41 91.7775 106.66 91.2129L103.834 89.0836C110.067 79.7613 113.356 68.9244 113.356 57.6332C113.356 42.4935 107.461 28.26 96.7553 17.555C86.0502 6.84972 71.8168 0.954102 56.6771 0.954102C39.5983 0.954102 23.5988 8.5447 12.7809 21.7796C12.1868 22.5063 12.2947 23.5766 13.0211 24.1706C13.7477 24.7647 14.8182 24.6569 15.4118 23.9305C16.4946 22.6057 17.6361 21.3448 18.8247 20.1427C23.2537 24.1231 28.2183 27.3388 33.5432 29.7212C32.7121 32.9165 32.0179 36.3246 31.4767 39.9155H23.4001C19.3628 39.9155 16.0782 43.2001 16.0782 47.2376V55.9344H3.42599C3.71441 46.8393 6.31477 37.9772 10.9914 30.2038C11.4752 29.3997 11.2155 28.3556 10.4114 27.8719C9.60731 27.3882 8.56304 27.6476 8.07953 28.4519C2.79385 37.2375 0 47.3283 0 57.6334C0 72.772 5.89539 87.0048 16.6007 97.7096C27.3057 108.415 41.5382 114.31 56.6768 114.31C68.3661 114.31 79.4624 110.831 88.9592 104.223L89.5138 110.236C89.73 112.584 91.3586 114.422 93.6628 114.92C94.055 115.004 94.4454 115.045 94.829 115.045C96.6984 115.045 98.4063 114.066 99.3726 112.367L102.272 107.274C102.758 106.421 103.666 105.914 104.652 105.949L110.508 106.16C110.577 106.163 110.645 106.164 110.714 106.164C112.981 106.164 114.918 104.8 115.683 102.643C116.47 100.421 115.763 98.0698 113.88 96.6526ZM95.8938 83.1023C94.1973 81.8247 91.9921 81.6738 90.1371 82.7072C88.2824 83.741 87.251 85.697 87.4454 87.8123L87.6301 89.8154C85.124 88.175 82.5132 86.7456 79.8148 85.5352C80.6449 82.3424 81.3384 78.937 81.8793 75.3495H89.9552C93.9925 75.3495 97.2771 72.0649 97.2771 68.0276V59.3327H109.929C109.619 69.269 106.593 78.7798 101.115 87.0358L95.8938 83.1023ZM49.6706 82.7391C49.7601 83.6733 50.5895 84.3584 51.5241 84.2682C53.2266 84.1049 54.9603 84.0222 56.6768 84.0222C63.2891 84.0222 69.7128 85.2133 75.7301 87.5189C71.4688 101.783 64.3361 110.912 56.6768 110.912C49.0212 110.912 41.8915 101.789 37.6299 87.5329C39.6969 86.7406 41.8147 86.0756 43.9723 85.5479C44.8838 85.325 45.4421 84.4053 45.2189 83.4936C44.9959 82.5821 44.0765 82.0238 43.1646 82.247C40.9748 82.7826 38.8232 83.4512 36.7206 84.2433C36.0069 81.439 35.3997 78.4655 34.9142 75.3493H78.442C77.9573 78.4594 77.3515 81.4275 76.6396 84.227C70.3266 81.8503 63.5986 80.6238 56.6771 80.6238C54.8525 80.6238 53.0098 80.7117 51.1999 80.8853C50.2655 80.975 49.5808 81.805 49.6706 82.7391ZM109.928 55.9341H97.2771V47.2376C97.2771 43.2004 93.9925 39.9155 89.9552 39.9155H81.8793C81.338 36.3246 80.6438 32.9163 79.8127 29.721C85.1378 27.3383 90.1024 24.1226 94.5317 20.142C104.081 29.781 109.507 42.4246 109.928 55.9341ZM92.0557 17.7956C88.071 21.3403 83.6327 24.2332 78.8801 26.4135C76.0093 16.9743 71.8895 9.67302 67.0524 5.35706C76.3163 7.17575 84.9058 11.4296 92.0557 17.7956ZM56.6768 4.35245C64.3343 4.35245 71.4656 13.4769 75.7274 27.736C69.7151 30.0361 63.2771 31.2428 56.6777 31.2428C50.0784 31.2428 43.6406 30.0364 37.6283 27.7362C41.8896 13.4772 49.0203 4.35245 56.6768 4.35245ZM21.2977 17.7942C28.3944 11.4763 37.0052 7.19796 46.2933 5.36499C41.4603 9.68208 37.3442 16.9802 34.4753 26.4139C29.7223 24.2332 25.2831 21.3396 21.2977 17.7942ZM36.7186 31.0285C43.0268 33.3998 49.7693 34.641 56.6777 34.641C63.5861 34.641 70.3289 33.3996 76.6371 31.0283C77.3501 33.8307 77.9566 36.8018 78.4417 39.9155H34.914C35.3993 36.802 36.0058 33.8307 36.7186 31.0285ZM19.4765 47.2376C19.4765 45.0741 21.2365 43.3139 23.4001 43.3139H89.9552C92.1187 43.3139 93.8787 45.0741 93.8787 47.2376V68.0276C93.8787 70.1911 92.1187 71.9511 89.9552 71.9511H23.4001C21.2365 71.9511 19.4765 70.1911 19.4765 68.0276V47.2376ZM3.42802 59.3325H16.0782V68.0274C16.0782 72.0647 19.3628 75.3493 23.4001 75.3493H31.4767C32.0182 78.9427 32.7131 82.353 33.5448 85.5502C28.193 87.9473 23.2181 91.1759 18.824 95.1226C9.27538 85.4838 3.84854 72.8411 3.42802 59.3325ZM21.2986 97.4678C25.2541 93.9517 29.7031 91.0525 34.4783 88.8595C37.3487 98.2946 41.4671 105.593 46.3023 109.907C37.0383 108.089 28.4488 103.834 21.2986 97.4678ZM67.0481 109.911C71.8877 105.595 76.0095 98.2907 78.8813 88.8468C82.0775 90.3168 85.1412 92.1142 88.037 94.2274L88.5967 100.295C82.1385 105.139 74.8281 108.387 67.0481 109.911Z" fill="black"/>
<path d="M27.9488 65.2275C27.9649 65.3086 27.9869 65.3884 28.0146 65.4665C28.303 66.2788 29.0731 66.8219 29.9343 66.8219H29.9483C30.815 66.816 31.5844 66.2607 31.8631 65.44C31.8678 65.4255 31.8728 65.4108 31.8774 65.3961L34.8121 55.9141L37.7338 65.3981C37.7408 65.4212 37.7485 65.4439 37.7566 65.4665C38.0451 66.2788 38.8154 66.8219 39.6764 66.8219H39.69C40.5564 66.8162 41.3258 66.2614 41.605 65.4409C41.629 65.3705 41.6485 65.2982 41.663 65.225L44.5934 50.5004C44.7767 49.58 44.179 48.6853 43.2587 48.5022C42.3381 48.3192 41.4436 48.9166 41.2606 49.8372L39.3907 59.2329L36.436 49.6412C36.1883 48.8376 35.3897 48.3362 34.5591 48.4612C33.8424 48.5691 33.2866 49.1149 33.1468 49.8019L30.2272 59.234L28.3635 49.8116C28.1811 48.891 27.2875 48.2922 26.3669 48.4746C25.4464 48.6568 24.8475 49.5506 25.0297 50.4711L27.9488 65.2275Z" fill="black"/>
<path d="M49.814 65.2275C49.83 65.3089 49.8522 65.3893 49.8801 65.4674C50.1688 66.279 50.9389 66.8219 51.7996 66.8219H51.8137C52.6796 66.816 53.4491 66.2611 53.7282 65.4409C53.7332 65.426 53.7382 65.411 53.7429 65.3959L56.6777 55.9141L59.5991 65.3979C59.6061 65.421 59.6138 65.4437 59.622 65.4663C59.9104 66.2786 60.6805 66.8217 61.5417 66.8217H61.5558C62.4224 66.8158 63.1918 66.2605 63.4705 65.4398C63.4943 65.3696 63.5136 65.2978 63.5281 65.225L66.4588 50.5004C66.6421 49.58 66.0444 48.6853 65.124 48.5022C64.203 48.3192 63.309 48.9166 63.1259 49.8372L61.2558 59.2329L58.3013 49.6412C58.0537 48.8376 57.2559 48.3362 56.4244 48.4612C55.7078 48.5691 55.152 49.1149 55.0122 49.8019L52.0926 59.2345L50.2286 49.8116C50.0462 48.891 49.1526 48.2922 48.232 48.4746C47.3115 48.6568 46.7127 49.5506 46.8948 50.4711L49.814 65.2275Z" fill="black"/>
<path d="M71.6796 65.2275C71.6957 65.3086 71.7176 65.3884 71.7453 65.4665C72.0337 66.2788 72.8038 66.8219 73.665 66.8219H73.6791C74.5457 66.816 75.3151 66.2607 75.5938 65.44C75.5986 65.4255 75.6036 65.4108 75.6081 65.3961L78.5429 55.9143L81.4643 65.3981C81.4716 65.4215 81.4793 65.4446 81.4876 65.4677C81.7763 66.2793 82.5464 66.8221 83.4072 66.8221H83.4212C84.2872 66.8162 85.0566 66.2614 85.3355 65.4412C85.3595 65.3707 85.379 65.2984 85.3935 65.2252L88.324 50.5006C88.5073 49.5803 87.9096 48.6855 86.9893 48.5025C86.0682 48.3194 85.1742 48.9169 84.9911 49.8374L83.1212 59.2336L80.1667 49.6412C79.9191 48.8376 79.1202 48.3362 78.2898 48.4612C77.5732 48.5691 77.0174 49.1149 76.8776 49.8019L73.958 59.234L72.0942 49.8116C71.912 48.891 71.0187 48.2922 70.0976 48.4746C69.1771 48.6568 68.5783 49.5506 68.7604 50.4711L71.6796 65.2275Z" fill="black"/>
</g>
<defs>
<clipPath id="clip0">
<rect width="116" height="116" fill="white"/>
</clipPath>
</defs>
</svg>
