<svg width="349" height="200" viewBox="0 0 349 200" fill="none" xmlns="http://www.w3.org/2000/svg">
<rect width="349" height="200" fill="#EEF163"/>
<path d="M174.5 200C270.874 200 349 195.76 349 190.53C349 185.301 270.874 181.061 174.5 181.061C78.1263 181.061 0 185.301 0 190.53C0 195.76 78.1263 200 174.5 200Z" fill="#F2F2F2"/>
<path d="M317.724 10.4805H55.5757V18.3496H317.724V10.4805Z" fill="#F2F2F2"/>
<path d="M62.5904 16.3356C63.7825 16.3356 64.7489 15.4238 64.7489 14.299C64.7489 13.1743 63.7825 12.2625 62.5904 12.2625C61.3983 12.2625 60.4319 13.1743 60.4319 14.299C60.4319 15.4238 61.3983 16.3356 62.5904 16.3356Z" fill="#6C63FF"/>
<path d="M69.6053 16.3356C70.7974 16.3356 71.7638 15.4238 71.7638 14.299C71.7638 13.1743 70.7974 12.2625 69.6053 12.2625C68.4132 12.2625 67.4468 13.1743 67.4468 14.299C67.4468 15.4238 68.4132 16.3356 69.6053 16.3356Z" fill="#6C63FF"/>
<path d="M76.6202 16.3356C77.8123 16.3356 78.7787 15.4238 78.7787 14.299C78.7787 13.1743 77.8123 12.2625 76.6202 12.2625C75.4282 12.2625 74.4618 13.1743 74.4618 14.299C74.4618 15.4238 75.4282 16.3356 76.6202 16.3356Z" fill="#6C63FF"/>
<path d="M55.7611 134.938L55.5752 135.088V188.172H317.724V94.9287L314.6 95.1523L55.7611 134.938Z" fill="#3F3D56"/>
<path d="M147.699 63.1194H74.4943V65.9045H147.699V63.1194Z" fill="#3F3D56"/>
<path d="M147.699 69.2466H74.4943V72.0317H147.699V69.2466Z" fill="#3F3D56"/>
<path d="M99.2896 75.374H74.4943V78.1592H99.2896V75.374Z" fill="#3F3D56"/>
<path d="M296.987 140.441H223.782V143.227H296.987V140.441Z" fill="white"/>
<path d="M296.987 146.569H223.782V149.354H296.987V146.569Z" fill="white"/>
<path d="M248.577 152.696H223.782V155.481H248.577V152.696Z" fill="white"/>
<path d="M178.299 185.604C179.89 185.604 181.179 184.388 181.179 182.887C181.179 181.386 179.89 180.17 178.299 180.17C176.709 180.17 175.42 181.386 175.42 182.887C175.42 184.388 176.709 185.604 178.299 185.604Z" fill="#F2F2F2"/>
<path d="M186.65 185.876C188.24 185.876 189.529 184.659 189.529 183.159C189.529 181.658 188.24 180.442 186.65 180.442C185.059 180.442 183.77 181.658 183.77 183.159C183.77 184.659 185.059 185.876 186.65 185.876Z" fill="#F2F2F2"/>
<path d="M195.001 186.147C196.591 186.147 197.88 184.931 197.88 183.43C197.88 181.93 196.591 180.713 195.001 180.713C193.41 180.713 192.121 181.93 192.121 183.43C192.121 184.931 193.41 186.147 195.001 186.147Z" fill="#F2F2F2"/>
<path d="M186.676 185.332C187.949 185.332 188.98 184.359 188.98 183.159C188.98 181.958 187.949 180.985 186.676 180.985C185.404 180.985 184.373 181.958 184.373 183.159C184.373 184.359 185.404 185.332 186.676 185.332Z" fill="#3F3D56"/>
<path d="M123.43 94.999H98.6345V100.337H123.43V94.999Z" fill="#3F3D56"/>
<path d="M270.812 167.226H246.017V172.564H270.812V167.226Z" fill="white"/>
<path opacity="0.3" d="M111.172 113.88C120.645 113.88 128.324 106.634 128.324 97.6963C128.324 88.7584 120.645 81.5127 111.172 81.5127C101.699 81.5127 94.0194 88.7584 94.0194 97.6963C94.0194 106.634 101.699 113.88 111.172 113.88Z" fill="#6C63FF"/>
<path opacity="0.3" d="M111.172 108.485C117.487 108.485 122.607 103.655 122.607 97.6963C122.607 91.7377 117.487 86.9072 111.172 86.9072C104.856 86.9072 99.7369 91.7377 99.7369 97.6963C99.7369 103.655 104.856 108.485 111.172 108.485Z" fill="#6C63FF"/>
<path d="M111.172 105.189C115.557 105.189 119.112 101.834 119.112 97.6963C119.112 93.5583 115.557 90.2039 111.172 90.2039C106.786 90.2039 103.231 93.5583 103.231 97.6963C103.231 101.834 106.786 105.189 111.172 105.189Z" fill="#6C63FF"/>
<path opacity="0.3" d="M255.497 73.7721C264.97 73.7721 272.649 66.5264 272.649 57.5884C272.649 48.6504 264.97 41.4048 255.497 41.4048C246.024 41.4048 238.345 48.6504 238.345 57.5884C238.345 66.5264 246.024 73.7721 255.497 73.7721Z" fill="#6C63FF"/>
<path opacity="0.3" d="M255.496 68.3775C261.812 68.3775 266.931 63.5471 266.931 57.5884C266.931 51.6298 261.812 46.7993 255.496 46.7993C249.181 46.7993 244.062 51.6298 244.062 57.5884C244.062 63.5471 249.181 68.3775 255.496 68.3775Z" fill="#6C63FF"/>
<path d="M255.497 65.0808C259.882 65.0808 263.438 61.7263 263.438 57.5884C263.438 53.4504 259.882 50.0959 255.497 50.0959C251.111 50.0959 247.556 53.4504 247.556 57.5884C247.556 61.7263 251.111 65.0808 255.497 65.0808Z" fill="#6C63FF"/>
<path opacity="0.3" d="M258.554 186.107C268.027 186.107 275.706 178.861 275.706 169.923C275.706 160.985 268.027 153.74 258.554 153.74C249.081 153.74 241.402 160.985 241.402 169.923C241.402 178.861 249.081 186.107 258.554 186.107Z" fill="#6C63FF"/>
<path opacity="0.3" d="M258.554 180.712C264.869 180.712 269.989 175.882 269.989 169.923C269.989 163.965 264.869 159.134 258.554 159.134C252.239 159.134 247.119 163.965 247.119 169.923C247.119 175.882 252.239 180.712 258.554 180.712Z" fill="#6C63FF"/>
<path d="M258.554 177.416C262.939 177.416 266.494 174.061 266.494 169.923C266.494 165.785 262.939 162.431 258.554 162.431C254.168 162.431 250.613 165.785 250.613 169.923C250.613 174.061 254.168 177.416 258.554 177.416Z" fill="#6C63FF"/>
<path d="M28.5623 43.2556L35.6219 43.5139L35.9738 34.9498L28.9142 34.6915L28.5623 43.2556Z" fill="#6C63FF"/>
<path d="M60.7601 64.685C60.7601 64.685 70.5365 60.2777 70.3801 64.0839C70.2237 67.8902 60.5255 70.3943 60.5255 70.3943L60.7601 64.685Z" fill="#FFB9B9"/>
<path d="M55.396 96.8905C55.396 96.8905 60.0084 107.542 61.7125 115.229C63.4167 122.915 66.0121 133.493 62.6736 140.995C59.3352 148.496 49.8438 170.545 49.746 172.923C49.6483 175.302 50.559 177.718 48.542 177.644C46.525 177.571 35.5486 174.31 35.103 172.864C34.6574 171.418 38.8479 167.76 38.8479 167.76L49.1956 137.166L38.3994 117.234L30.6121 146.969L29.0869 184.08C29.0869 184.08 21.6012 181.9 20.5145 183.766C20.5145 183.766 17.1607 179.355 16.7346 177.434C16.3086 175.512 18.3185 138.895 18.3185 138.895C18.3185 138.895 11.4474 97.1885 16.9942 97.3914C22.541 97.5944 44.2674 85.0473 55.396 96.8905Z" fill="#2F2E41"/>
<path d="M48.6207 175.741C48.6207 175.741 53.7373 186.411 54.222 186.906C54.7067 187.4 58.041 192.287 55.5197 192.195C52.9984 192.102 47.0451 189.502 42.6632 185.53C38.2813 181.557 32.504 174.675 33.0278 174.218C33.5516 173.76 37.1401 172.462 37.1401 172.462L48.6207 175.741Z" fill="#2F2E41"/>
<path d="M28.1765 181.664C28.1765 181.664 28.4852 186.44 29.4155 188.38C30.3458 190.32 30.2285 193.175 27.7072 193.083C25.1859 192.991 18.6697 191.799 18.6697 191.799C18.6697 191.799 18.2828 188.926 18.8066 188.469C19.3304 188.011 21.5625 182.852 20.6127 181.387C19.6628 179.923 28.1765 181.664 28.1765 181.664Z" fill="#2F2E41"/>
<path d="M24.4465 26.6658C24.4465 26.6658 19.0715 34.5696 16.9762 36.3989C14.881 38.2282 20.7756 42.2559 20.7756 42.2559L31.3259 43.5949C31.3259 43.5949 31.1932 34.5366 31.7366 33.6035C32.28 32.6704 24.4465 26.6658 24.4465 26.6658Z" fill="#FFB9B9"/>
<path d="M33.6169 37.008C33.6169 37.008 31.4434 40.7404 29.4264 40.6666C27.4093 40.5928 16.9764 36.3991 16.5308 34.9533C16.0852 33.5075 13.075 45.3098 13.075 45.3098L38.6037 87.6992L44.8308 83.6386L41.8136 58.7503L39.3355 45.3177L33.6169 37.008Z" fill="#6C63FF"/>
<path d="M15.5892 74.9446C16.6075 76.9546 17.2435 79.0506 17.1554 81.1964C17.1514 81.2915 17.1475 81.3867 17.1386 81.4816C16.897 85.8852 15.1777 90.978 14.5609 94.6816C14.1133 97.3384 14.2407 99.2776 15.8885 99.7334C19.8834 100.833 15.306 101.618 30.762 106.472C46.218 111.326 48.9153 107.136 48.9544 106.185C48.9935 105.233 46.7655 98.0042 47.2893 97.5469C47.8131 97.0895 54.6185 103.533 56.6747 102.655C58.7308 101.777 56.9093 96.9459 56.9093 96.9459C56.9093 96.9459 52.2774 86.7699 52.3752 84.391C52.4729 82.0121 45.3588 70.7924 45.3588 70.7924L40.5201 41.0724C40.5201 41.0724 38.6595 37.1924 36.1578 36.6244C33.656 36.0563 31.5803 37.4099 31.5803 37.4099L35.7667 46.14L40.1835 61.5495L39.4446 67.2405C39.4446 67.2405 34.3084 57.0461 30.9351 53.1107C27.5617 49.1753 20.3694 39.8587 20.3694 39.8587C20.3694 39.8587 18.6902 34.5129 19.9578 32.9153C21.2256 31.313 14.6702 31.0732 11.8752 37.6419C10.3938 41.1233 7.98869 46.3149 6.48203 51.1486C5.13944 55.4309 4.50525 59.4341 5.83536 61.7223C7.86829 65.2179 12.9821 69.8126 15.5892 74.9446Z" fill="#575A89"/>
<path opacity="0.1" d="M5.83493 61.7222C7.86787 65.2178 12.9817 69.8125 15.5888 74.9445C16.2697 72.6298 17.1004 70.2349 17.1004 70.2349C17.1004 70.2349 20.2866 54.1505 10.8621 49.9937C9.30053 49.8512 7.73873 50.263 6.4816 51.1486C5.13901 55.4308 4.50482 59.434 5.83493 61.7222Z" fill="black"/>
<path d="M43.248 60.7085L51.2379 62.9068L62.3315 63.3127L63.4728 72.4079L45.2413 73.6469C45.2413 73.6469 40.6876 61.5678 43.248 60.7085Z" fill="#575A89"/>
<path d="M30.2197 91.2896C30.2197 91.2896 40.9086 92.9628 38.469 95.9977C36.0294 99.0327 26.5603 95.842 26.5603 95.842L30.2197 91.2896Z" fill="#FFB9B9"/>
<path opacity="0.1" d="M17.1386 81.4814C16.897 85.885 15.1777 90.9778 14.5608 94.6815C17.9659 97.7222 21.204 100.404 22.4243 100.449C24.9455 100.541 28.9992 100.213 30.4924 100.744C31.9856 101.275 32.8614 92.2538 32.8614 92.2538C32.8614 92.2538 31.9702 89.3622 27.9948 87.7873C25.3115 86.7218 20.168 83.8318 17.1386 81.4814Z" fill="black"/>
<path d="M10.9798 47.139C10.9798 47.139 2.44654 45.8738 2.90754 59.2326C3.36854 72.5914 2.00805 81.1186 5.44008 83.6267C8.87211 86.1347 20.0203 97.5021 22.5416 97.5943C25.0629 97.6866 29.1165 97.3584 30.6097 97.8895C32.1029 98.4207 32.9787 89.3992 32.9787 89.3992C32.9787 89.3992 32.0875 86.5076 28.1121 84.9327C24.1367 83.3577 14.7709 77.7736 14.8491 75.8705C14.9273 73.9673 17.2181 67.3802 17.2181 67.3802C17.2181 67.3802 20.4043 51.2958 10.9798 47.139Z" fill="#575A89"/>
<path d="M31.9711 38.3691C38.1026 38.3691 43.0731 33.6793 43.0731 27.894C43.0731 22.1088 38.1026 17.4189 31.9711 17.4189C25.8396 17.4189 20.8691 22.1088 20.8691 27.894C20.8691 33.6793 25.8396 38.3691 31.9711 38.3691Z" fill="#FFB9B9"/>
<path d="M39.4465 12.8804C39.7143 13.0981 40.035 13.2499 40.38 13.3224C40.5532 13.3515 40.7316 13.3148 40.8762 13.2203C41.0208 13.1258 41.1199 12.9811 41.1519 12.8179C41.4059 13.3149 41.6925 13.8446 42.2111 14.0997C42.7297 14.3547 43.5316 14.1408 43.6064 13.5936C43.6821 14.0091 43.8769 14.3971 44.1697 14.7156C44.4915 15.0051 45.075 15.0781 45.3559 14.753C45.1288 15.9241 45.269 17.1284 45.1976 18.317C45.1263 19.5056 44.7904 20.7657 43.8386 21.5472C42.4506 22.6871 40.3634 22.4058 38.5376 22.1898C38.2615 22.1351 37.975 22.1499 37.7068 22.2327C37.0232 22.5075 37.0542 23.4054 37.045 24.1065C36.9892 25.3367 36.4732 26.5083 35.5886 27.4135C34.704 28.3187 33.508 28.8988 32.2131 29.0508C31.4884 29.1563 30.7489 28.986 30.1572 28.5774C29.6388 28.1628 29.374 27.487 28.78 27.1756C27.8137 26.669 26.6418 27.4078 25.9354 28.21C25.2289 29.0122 24.5326 29.999 23.4382 30.1459C21.9908 30.3401 20.8884 28.9483 20.3475 27.6667C19.6013 25.8705 19.2438 23.9515 19.2961 22.0229C19.3483 20.0942 19.8093 18.195 20.6519 16.4371C23.6742 10.2211 33.9983 9.23791 39.4465 12.8804Z" fill="#2F2E41"/>
<path d="M305.952 179.441C309.862 185.732 317.748 188.223 317.748 188.223C317.748 188.223 319.294 180.513 315.384 174.222C311.474 167.931 303.588 165.44 303.588 165.44C303.588 165.44 302.042 173.149 305.952 179.441Z" fill="#F2F2F2"/>
<path d="M308.392 177.245C315.154 180.778 317.987 188.155 317.987 188.155C317.987 188.155 309.856 189.803 303.094 186.27C296.332 182.736 293.499 175.359 293.499 175.359C293.499 175.359 301.63 173.711 308.392 177.245Z" fill="#6C63FF"/>
<path d="M213.178 0H140.32V3.49345H213.178V0Z" fill="#EEF163"/>
</svg>
